Fust&Schoeffer-Durandus-GoticoAntiqua118G.ufo
<glyph name="ampersand" format="1">
  <advance width="548"/>
  <unicode hex="0026"/>
  <outline>
    <contour>
      <point x="362" y="-17" type="curve"/>
      <point x="407" y="0"/>
      <point x="462" y="40"/>
      <point x="544" y="97" type="curve"/>
      <point x="526" y="120" type="line"/>
      <point x="492" y="93"/>
      <point x="471" y="87"/>
      <point x="449" y="87" type="curve"/>
      <point x="427" y="87"/>
      <point x="361" y="118"/>
      <point x="361" y="214" type="curve"/>
      <point x="361" y="262"/>
      <point x="384" y="343"/>
      <point x="427" y="412" type="curve"/>
      <point x="347" y="432"/>
      <point x="240" y="440"/>
      <point x="166" y="440" type="curve"/>
      <point x="83" y="381"/>
      <point x="-4" y="300"/>
      <point x="-4" y="194" type="curve"/>
      <point x="-4" y="120"/>
      <point x="36" y="82"/>
      <point x="70" y="80" type="curve"/>
      <point x="88" y="79"/>
      <point x="108" y="95"/>
      <point x="108" y="123" type="curve"/>
      <point x="108" y="171"/>
      <point x="35" y="162"/>
      <point x="35" y="217" type="curve"/>
      <point x="35" y="284"/>
      <point x="104" y="352"/>
      <point x="166" y="352" type="curve"/>
      <point x="210" y="352"/>
      <point x="269" y="338"/>
      <point x="320" y="311" type="curve"/>
      <point x="287" y="237"/>
      <point x="257" y="198"/>
      <point x="257" y="125" type="curve"/>
      <point x="257" y="60"/>
      <point x="308" y="-17"/>
    </contour>
  </outline>
</glyph>
<glyph name="comma" format="1">
  <advance width="232"/>
  <unicode hex="002C"/>
  <outline>
    <contour>
      <point x="25" y="-106" type="curve"/>
      <point x="57" y="-141" type="line"/>
      <point x="143" y="-72"/>
      <point x="207" y="34"/>
      <point x="207" y="49" type="curve"/>
      <point x="207" y="64"/>
      <point x="173" y="109"/>
      <point x="134" y="149" type="curve"/>
      <point x="130" y="149" type="line"/>
      <point x="33" y="72" type="line"/>
      <point x="33" y="68" type="line"/>
      <point x="60" y="50"/>
      <point x="85" y="24"/>
      <point x="85" y="-7" type="curve"/>
      <point x="85" y="-49"/>
      <point x="57" y="-75"/>
    </contour>
  </outline>
</glyph>
<glyph name="hyphen" format="1">
  <advance width="358"/>
  <unicode hex="002D"/>
  <outline>
    <contour>
      <point x="32" y="88" type="line"/>
      <point x="38" y="62" type="line"/>
      <point x="40" y="60" type="line"/>
      <point x="354" y="184" type="line"/>
      <point x="355" y="189" type="line"/>
      <point x="349" y="239" type="line"/>
      <point x="346" y="240" type="line"/>
      <point x="32" y="91" type="line"/>
    </contour>
    <contour>
      <point x="32" y="259" type="line"/>
      <point x="38" y="233" type="line"/>
      <point x="40" y="231" type="line"/>
      <point x="324" y="365" type="line"/>
      <point x="325" y="370" type="line"/>
      <point x="319" y="420" type="line"/>
      <point x="316" y="421" type="line"/>
      <point x="32" y="262" type="line"/>
    </contour>
  </outline>
</glyph>
<glyph name="period" format="1">
  <advance width="214"/>
  <unicode hex="002E"/>
  <outline>
    <contour>
      <point x="10" y="69" type="line"/>
      <point x="93" y="-22" type="line"/>
      <point x="96" y="-22" type="line"/>
      <point x="191" y="59" type="line"/>
      <point x="191" y="64" type="line"/>
      <point x="112" y="154" type="line"/>
      <point x="108" y="154" type="line"/>
      <point x="10" y="73" type="line"/>
    </contour>
  </outline>
</glyph>
<glyph name="A" format="1">
  <advance width="655"/>
  <unicode hex="0041"/>
  <outline>
    <contour>
      <point x="-10" y="-32" type="line"/>
      <point x="-10" y="-40" type="line"/>
      <point x="50" y="-40" type="line"/>
      <point x="79" y="45"/>
      <point x="121" y="150"/>
      <point x="153" y="225" type="curve"/>
      <point x="399" y="225" type="line"/>
      <point x="470" y="48" type="line" smooth="yes"/>
      <point x="490" y="-2"/>
      <point x="532" y="-22"/>
      <point x="553" y="-22" type="curve"/>
      <point x="574" y="-22"/>
      <point x="612" y="27"/>
      <point x="655" y="81" type="curve"/>
      <point x="647" y="103" type="line"/>
      <point x="582" y="98"/>
      <point x="577" y="117"/>
      <point x="558" y="163" type="curve"/>
      <point x="343" y="699" type="line"/>
      <point x="344" y="700" type="line"/>
      <point x="295" y="700" type="line"/>
    </contour>
    <contour>
      <point x="365" y="316" type="line"/>
      <point x="192" y="316" type="line"/>
      <point x="275" y="552" type="line"/>
    </contour>
    <contour>
      <point x="328" y="0" type="move" name="bottom"/>
    </contour>
    <contour>
      <point x="593" y="10" type="move" name="ogonek"/>
    </contour>
    <contour>
      <point x="328" y="700" type="move" name="top"/>
    </contour>
  </outline>
</glyph>
<glyph name="B" format="1">
  <advance width="722"/>
  <unicode hex="0042"/>
  <outline>
    <contour>
      <point x="393" y="-21" type="curve"/>
      <point x="451" y="4"/>
      <point x="640" y="104"/>
      <point x="676" y="158" type="curve"/>
      <point x="742" y="378"/>
      <point x="578" y="495"/>
      <point x="350" y="423" type="curve"/>
      <point x="387" y="418" type="line"/>
      <point x="405" y="467"/>
      <point x="442" y="478"/>
      <point x="442" y="545" type="curve"/>
      <point x="442" y="620"/>
      <point x="367" y="689"/>
      <point x="311" y="720" type="curve"/>
      <point x="289" y="720"/>
      <point x="136" y="620"/>
      <point x="43" y="568" type="curve"/>
      <point x="52" y="543" type="line"/>
      <point x="79" y="549"/>
      <point x="99" y="553"/>
      <point x="98" y="489" type="curve"/>
      <point x="95" y="166" type="line" smooth="yes"/>
      <point x="95" y="122"/>
      <point x="92" y="93"/>
      <point x="50" y="0" type="curve"/>
      <point x="69" y="-18" type="line"/>
      <point x="95" y="0"/>
      <point x="140" y="11"/>
      <point x="188" y="11" type="curve"/>
      <point x="240" y="11"/>
      <point x="327" y="-9"/>
    </contour>
    <contour>
      <point x="437" y="82" type="curve"/>
      <point x="380" y="82"/>
      <point x="279" y="124"/>
      <point x="197" y="104" type="curve"/>
      <point x="197" y="162"/>
      <point x="200" y="231"/>
      <point x="209" y="256" type="curve"/>
      <point x="240" y="306"/>
      <point x="313" y="362"/>
      <point x="394" y="362" type="curve"/>
      <point x="523" y="362"/>
      <point x="626" y="272"/>
      <point x="588" y="147" type="curve"/>
      <point x="552" y="110"/>
      <point x="499" y="82"/>
    </contour>
    <contour>
      <point x="211" y="321" type="curve"/>
      <point x="209" y="458" type="line" smooth="yes"/>
      <point x="208" y="502"/>
      <point x="201" y="602"/>
      <point x="246" y="632" type="curve"/>
      <point x="275" y="608"/>
      <point x="338" y="565"/>
      <point x="335" y="486" type="curve"/>
      <point x="333" y="434"/>
      <point x="272" y="356"/>
    </contour>
    <contour>
      <point x="361" y="0" type="move" name="bottom"/>
    </contour>
    <contour>
      <point x="361" y="700" type="move" name="top"/>
    </contour>
  </outline>
</glyph>
<glyph name="D" format="1">
  <advance width="605"/>
  <unicode hex="0044"/>
  <outline>
    <contour>
      <point x="5" y="-7" type="curve"/>
      <point x="26" y="-22" type="line"/>
      <point x="52" y="7"/>
      <point x="104" y="20"/>
      <point x="163" y="20" type="curve"/>
      <point x="249" y="20"/>
      <point x="309" y="0"/>
      <point x="383" y="-20" type="curve"/>
      <point x="432" y="30"/>
      <point x="565" y="149"/>
      <point x="565" y="195" type="curve"/>
      <point x="565" y="270"/>
      <point x="509" y="350"/>
      <point x="457" y="445" type="curve"/>
      <point x="404" y="542"/>
      <point x="361" y="617"/>
      <point x="341" y="654" type="curve"/>
      <point x="330" y="675"/>
      <point x="331" y="686"/>
      <point x="347" y="700" type="curve"/>
      <point x="329" y="721" type="line"/>
      <point x="37" y="520" type="line"/>
      <point x="52" y="496" type="line"/>
      <point x="72" y="514"/>
      <point x="104" y="524"/>
      <point x="106" y="486" type="curve"/>
      <point x="109" y="437"/>
      <point x="118" y="256"/>
      <point x="94" y="184" type="curve"/>
      <point x="76" y="130"/>
      <point x="47" y="59"/>
    </contour>
    <contour>
      <point x="96" y="91" type="curve"/>
      <point x="89" y="44" type="line"/>
      <point x="194" y="205"/>
      <point x="233" y="246"/>
      <point x="233" y="313" type="curve"/>
      <point x="233" y="377"/>
      <point x="212" y="459"/>
      <point x="212" y="509" type="curve"/>
      <point x="212" y="550"/>
      <point x="219" y="574"/>
      <point x="238" y="599" type="curve"/>
      <point x="262" y="566"/>
      <point x="309" y="489"/>
      <point x="365" y="383" type="curve"/>
      <point x="406" y="305"/>
      <point x="464" y="227"/>
      <point x="464" y="159" type="curve"/>
      <point x="464" y="114"/>
      <point x="444" y="85"/>
      <point x="416" y="85" type="curve"/>
      <point x="380" y="85"/>
      <point x="314" y="132"/>
      <point x="275" y="132" type="curve"/>
      <point x="230" y="132"/>
      <point x="162" y="123"/>
    </contour>
    <contour>
      <point x="283" y="0" type="move" name="bottom"/>
    </contour>
    <contour>
      <point x="283" y="350" type="move" name="center"/>
    </contour>
    <contour>
      <point x="283" y="700" type="move" name="top"/>
    </contour>
  </outline>
</glyph>
<glyph name="E" format="1">
  <advance width="679"/>
  <unicode hex="0045"/>
  <outline>
    <contour>
      <point x="320" y="-20" type="curve"/>
      <point x="352" y="-20"/>
      <point x="527" y="44"/>
      <point x="638" y="90" type="curve"/>
      <point x="623" y="121" type="line"/>
      <point x="571" y="100"/>
      <point x="506" y="72"/>
      <point x="450" y="72" type="curve"/>
      <point x="332" y="72"/>
      <point x="171" y="152"/>
      <point x="171" y="350" type="curve"/>
      <point x="171" y="490"/>
      <point x="264" y="597"/>
      <point x="297" y="617" type="curve"/>
      <point x="314" y="617"/>
      <point x="389" y="577"/>
      <point x="418" y="557" type="curve"/>
      <point x="471" y="577"/>
      <point x="553" y="629"/>
      <point x="659" y="694" type="curve"/>
      <point x="639" y="722" type="line"/>
      <point x="587" y="687"/>
      <point x="537" y="663"/>
      <point x="510" y="663" type="curve"/>
      <point x="460" y="663"/>
      <point x="439" y="694"/>
      <point x="413" y="720" type="curve"/>
      <point x="401" y="720"/>
      <point x="296" y="668"/>
      <point x="195" y="594" type="curve"/>
      <point x="94" y="520"/>
      <point x="37" y="420"/>
      <point x="37" y="288" type="curve"/>
      <point x="37" y="107"/>
      <point x="198" y="0"/>
    </contour>
    <contour>
      <point x="169" y="257" type="curve"/>
      <point x="182" y="219" type="line"/>
      <point x="225" y="270"/>
      <point x="252" y="273"/>
      <point x="290" y="273" type="curve"/>
      <point x="347" y="273"/>
      <point x="415" y="252"/>
      <point x="455" y="244" type="curve"/>
      <point x="506" y="270"/>
      <point x="559" y="303"/>
      <point x="642" y="350" type="curve"/>
      <point x="628" y="372" type="line"/>
      <point x="599" y="359"/>
      <point x="579" y="349"/>
      <point x="546" y="349" type="curve"/>
      <point x="440" y="349"/>
      <point x="382" y="372"/>
      <point x="341" y="377" type="curve"/>
      <point x="315" y="362"/>
      <point x="254" y="317"/>
    </contour>
    <contour>
      <point x="340" y="0" type="move" name="bottom"/>
    </contour>
    <contour>
      <point x="611" y="10" type="move" name="ogonek"/>
    </contour>
    <contour>
      <point x="340" y="700" type="move" name="top"/>
    </contour>
    <contour>
      <point x="20" y="700" type="move" name="topleft"/>
    </contour>
  </outline>
</glyph>
<glyph name="F" format="1">
  <advance width="499"/>
  <unicode hex="0046"/>
  <outline>
    <contour>
      <point x="37" y="-226" type="curve"/>
      <point x="63" y="-241" type="line"/>
      <point x="115" y="-208"/>
      <point x="172" y="-142"/>
      <point x="210" y="-93" type="curve"/>
      <point x="204" y="100"/>
      <point x="202" y="337"/>
      <point x="209" y="530" type="curve"/>
      <point x="210" y="557"/>
      <point x="213" y="585"/>
      <point x="238" y="607" type="curve"/>
      <point x="252" y="586"/>
      <point x="258" y="563"/>
      <point x="258" y="526" type="curve"/>
      <point x="258" y="303"/>
      <point x="251" y="91"/>
      <point x="250" y="-132" type="curve"/>
      <point x="258" y="-135" type="line"/>
      <point x="293" y="-45" type="line"/>
      <point x="293" y="281" type="line"/>
      <point x="428" y="281" type="line"/>
      <point x="436" y="378" type="line"/>
      <point x="295" y="378" type="line"/>
      <point x="293" y="591" type="line"/>
      <point x="322" y="608"/>
      <point x="365" y="624"/>
      <point x="393" y="624" type="curve"/>
      <point x="406" y="624"/>
      <point x="447" y="601"/>
      <point x="447" y="550" type="curve"/>
      <point x="447" y="531"/>
      <point x="442" y="518"/>
      <point x="423" y="507" type="curve"/>
      <point x="426" y="492" type="line"/>
      <point x="476" y="513"/>
      <point x="499" y="576"/>
      <point x="499" y="649" type="curve"/>
      <point x="499" y="692"/>
      <point x="487" y="723"/>
      <point x="476" y="723" type="curve"/>
      <point x="462" y="723"/>
      <point x="351" y="688"/>
      <point x="251" y="651" type="curve"/>
      <point x="171" y="622"/>
      <point x="97" y="596"/>
      <point x="29" y="560" type="curve"/>
      <point x="29" y="555" type="line"/>
      <point x="83" y="512"/>
      <point x="97" y="473"/>
      <point x="106" y="408" type="curve"/>
      <point x="25" y="390" type="line"/>
      <point x="25" y="385" type="line"/>
      <point x="77" y="351"/>
      <point x="104" y="316"/>
      <point x="114" y="239" type="curve"/>
      <point x="37" y="209" type="line"/>
      <point x="37" y="204" type="line"/>
      <point x="51" y="199"/>
      <point x="76" y="180"/>
      <point x="87" y="133" type="curve"/>
      <point x="100" y="80"/>
      <point x="105" y="16"/>
      <point x="103" y="-58" type="curve"/>
      <point x="102" y="-105"/>
      <point x="94" y="-181"/>
    </contour>
    <contour>
      <point x="250" y="0" type="move" name="bottom"/>
    </contour>
    <contour>
      <point x="250" y="700" type="move" name="top"/>
    </contour>
  </outline>
</glyph>
<glyph name="G" format="1">
  <advance width="863"/>
  <unicode hex="0047"/>
  <outline>
    <contour>
      <point x="337" y="403" type="curve"/>
      <point x="336" y="354" type="line"/>
      <point x="388" y="415"/>
      <point x="444" y="460"/>
      <point x="524" y="460" type="curve"/>
      <point x="636" y="460"/>
      <point x="710" y="392"/>
      <point x="710" y="282" type="curve"/>
      <point x="710" y="170"/>
      <point x="625" y="111"/>
      <point x="542" y="76" type="curve"/>
      <point x="495" y="76"/>
      <point x="402" y="146"/>
      <point x="276" y="135" type="curve"/>
      <point x="265" y="193"/>
      <point x="267" y="379"/>
      <point x="267" y="585" type="curve"/>
      <point x="267" y="604"/>
      <point x="268" y="628"/>
      <point x="273" y="643" type="curve"/>
      <point x="311" y="618" type="line"/>
      <point x="312" y="452"/>
      <point x="310" y="286"/>
      <point x="307" y="120" type="curve"/>
      <point x="339" y="120" type="line"/>
      <point x="344" y="641" type="line"/>
      <point x="375" y="643"/>
      <point x="414" y="599"/>
      <point x="455" y="589" type="curve"/>
      <point x="495" y="621"/>
      <point x="550" y="666"/>
      <point x="595" y="697" type="curve"/>
      <point x="577" y="711" type="line"/>
      <point x="564" y="706"/>
      <point x="544" y="698"/>
      <point x="535" y="698" type="curve"/>
      <point x="514" y="698"/>
      <point x="487" y="720"/>
      <point x="432" y="720" type="curve"/>
      <point x="357" y="720"/>
      <point x="235" y="668"/>
      <point x="67" y="607" type="curve"/>
      <point x="67" y="603" type="line"/>
      <point x="107" y="565"/>
      <point x="127" y="531"/>
      <point x="138" y="470" type="curve"/>
      <point x="58" y="450" type="line"/>
      <point x="58" y="445" type="line"/>
      <point x="117" y="409"/>
      <point x="131" y="349"/>
      <point x="137" y="283" type="curve"/>
      <point x="67" y="253" type="line"/>
      <point x="67" y="249" type="line"/>
      <point x="98" y="221"/>
      <point x="124" y="193"/>
      <point x="126" y="162" type="curve"/>
      <point x="127" y="143"/>
      <point x="123" y="116"/>
      <point x="118" y="85" type="curve"/>
      <point x="115" y="68"/>
      <point x="57" y="26"/>
      <point x="30" y="1" type="curve"/>
      <point x="48" y="-23" type="line"/>
      <point x="108" y="15"/>
      <point x="153" y="40"/>
      <point x="194" y="40" type="curve"/>
      <point x="284" y="40"/>
      <point x="372" y="-10"/>
      <point x="395" y="-19" type="curve"/>
      <point x="415" y="-16"/>
      <point x="558" y="32"/>
      <point x="658" y="69" type="curve"/>
      <point x="763" y="128"/>
      <point x="825" y="198"/>
      <point x="828" y="314" type="curve"/>
      <point x="831" y="476"/>
      <point x="694" y="591"/>
      <point x="506" y="558" type="curve"/>
      <point x="461" y="532"/>
      <point x="384" y="470"/>
    </contour>
    <contour>
      <point x="432" y="0" type="move" name="bottom"/>
    </contour>
    <contour>
      <point x="432" y="700" type="move" name="top"/>
    </contour>
  </outline>
</glyph>
<glyph name="H" format="1">
  <advance width="825"/>
  <unicode hex="0048"/>
  <outline>
    <contour>
      <point x="534" y="-11" type="curve"/>
      <point x="671" y="60"/>
      <point x="790" y="184"/>
      <point x="790" y="320" type="curve"/>
      <point x="790" y="459"/>
      <point x="693" y="570"/>
      <point x="549" y="570" type="curve"/>
      <point x="416" y="570"/>
      <point x="302" y="441"/>
      <point x="249" y="348" type="curve"/>
      <point x="246" y="292" type="line"/>
      <point x="312" y="390"/>
      <point x="393" y="448"/>
      <point x="500" y="448" type="curve"/>
      <point x="628" y="448"/>
      <point x="699" y="366"/>
      <point x="699" y="257" type="curve"/>
      <point x="699" y="168"/>
      <point x="647" y="115"/>
      <point x="610" y="87" type="curve"/>
      <point x="590" y="75"/>
      <point x="561" y="114"/>
      <point x="553" y="146" type="curve"/>
      <point x="543" y="147" type="line"/>
      <point x="523" y="126"/>
      <point x="477" y="88"/>
      <point x="464" y="71" type="curve"/>
      <point x="464" y="37"/>
      <point x="490" y="-1"/>
    </contour>
    <contour>
      <point x="220" y="-21" type="curve"/>
      <point x="233" y="-21"/>
      <point x="354" y="73"/>
      <point x="426" y="125" type="curve"/>
      <point x="412" y="146" type="line"/>
      <point x="351" y="113"/>
      <point x="324" y="98"/>
      <point x="302" y="98" type="curve"/>
      <point x="276" y="98"/>
      <point x="217" y="109"/>
      <point x="207" y="115" type="curve"/>
      <point x="205" y="706" type="line"/>
      <point x="201" y="709" type="line"/>
      <point x="30" y="664" type="line"/>
      <point x="30" y="659" type="line"/>
      <point x="81" y="604"/>
      <point x="110" y="526"/>
      <point x="110" y="480" type="curve"/>
      <point x="33" y="430" type="line"/>
      <point x="33" y="427" type="line"/>
      <point x="75" y="386"/>
      <point x="93" y="352"/>
      <point x="95" y="311" type="curve"/>
      <point x="33" y="273" type="line"/>
      <point x="33" y="269" type="line"/>
      <point x="84" y="225"/>
      <point x="106" y="171"/>
      <point x="93" y="127" type="curve"/>
      <point x="87" y="106"/>
      <point x="71" y="64"/>
      <point x="62" y="41" type="curve"/>
      <point x="62" y="41"/>
      <point x="197" y="-2"/>
    </contour>
    <contour>
      <point x="241" y="704" type="line"/>
      <point x="243" y="44" type="line"/>
      <point x="268" y="62" type="line"/>
      <point x="278" y="704" type="line"/>
      <point x="247" y="705" type="line"/>
    </contour>
    <contour>
      <point x="418" y="0" type="move" name="bottom"/>
    </contour>
    <contour>
      <point x="418" y="350" type="move" name="center"/>
    </contour>
    <contour>
      <point x="418" y="700" type="move" name="top"/>
    </contour>
    <contour>
      <point x="25" y="700" type="move" name="topleft"/>
    </contour>
  </outline>
</glyph>
<glyph name="K" format="1">
  <advance width="600"/>
  <unicode hex="004B"/>
  <outline>
    <contour>
      <point x="123" y="48" type="curve"/>
      <point x="260" y="-22" type="line"/>
      <point x="392" y="99" type="line"/>
      <point x="372" y="119" type="line"/>
      <point x="356" y="107"/>
      <point x="343" y="92"/>
      <point x="319" y="92" type="curve"/>
      <point x="299" y="92"/>
      <point x="284" y="104"/>
      <point x="256" y="129" type="curve"/>
      <point x="255" y="577" type="line"/>
      <point x="255" y="605"/>
      <point x="270" y="630"/>
      <point x="281" y="652" type="curve"/>
      <point x="193" y="723" type="line"/>
      <point x="85" y="642" type="line"/>
      <point x="98" y="619" type="line"/>
      <point x="131" y="630"/>
      <point x="149" y="607"/>
      <point x="149" y="580" type="curve"/>
      <point x="149" y="543"/>
      <point x="150" y="498"/>
      <point x="148" y="467" type="curve"/>
      <point x="78" y="427" type="line"/>
      <point x="78" y="421" type="line"/>
      <point x="121" y="373"/>
      <point x="144" y="334"/>
      <point x="142" y="290" type="curve"/>
      <point x="77" y="250" type="line"/>
      <point x="77" y="246" type="line"/>
      <point x="142" y="216"/>
      <point x="144" y="176"/>
      <point x="144" y="126" type="curve"/>
      <point x="144" y="96"/>
      <point x="140" y="79"/>
    </contour>
    <contour>
      <point x="519" y="-18" type="curve"/>
      <point x="630" y="81" type="line"/>
      <point x="630" y="95" type="line"/>
      <point x="607" y="109"/>
      <point x="580" y="151"/>
      <point x="570" y="202" type="curve"/>
      <point x="552" y="293"/>
      <point x="530" y="371"/>
      <point x="437" y="437" type="curve"/>
      <point x="330" y="373" type="line"/>
      <point x="514" y="302"/>
      <point x="406" y="93"/>
    </contour>
    <contour>
      <point x="212" y="307" type="curve"/>
      <point x="220" y="281" type="line"/>
      <point x="358" y="363" type="line"/>
      <point x="397" y="408" type="line"/>
      <point x="485" y="457"/>
      <point x="550" y="503"/>
      <point x="550" y="552" type="curve"/>
      <point x="550" y="603"/>
      <point x="483" y="665"/>
      <point x="421" y="685" type="curve"/>
      <point x="379" y="665"/>
      <point x="292" y="607"/>
      <point x="223" y="574" type="curve"/>
      <point x="227" y="530" type="line"/>
      <point x="264" y="566"/>
      <point x="300" y="588"/>
      <point x="337" y="590" type="curve"/>
      <point x="367" y="592"/>
      <point x="416" y="558"/>
      <point x="416" y="503" type="curve"/>
      <point x="416" y="438"/>
      <point x="277" y="360"/>
    </contour>
  </outline>
</glyph>
<glyph name="M" format="1">
  <advance width="939"/>
  <unicode hex="004D"/>
  <outline>
    <contour>
      <point x="479" y="-20" type="curve"/>
      <point x="520" y="10"/>
      <point x="576" y="57"/>
      <point x="619" y="89" type="curve"/>
      <point x="612" y="112" type="line"/>
      <point x="556" y="85"/>
      <point x="527" y="68"/>
      <point x="517" y="100" type="curve"/>
      <point x="453" y="301"/>
      <point x="379" y="520"/>
      <point x="332" y="709" type="curve"/>
      <point x="296" y="714"/>
      <point x="244" y="699"/>
      <point x="217" y="688" type="curve"/>
      <point x="289" y="503"/>
      <point x="352" y="255"/>
      <point x="416" y="40" type="curve"/>
      <point x="424" y="13"/>
      <point x="455" y="-20"/>
    </contour>
    <contour>
      <point x="91" y="-5" type="curve"/>
      <point x="121" y="52"/>
      <point x="276" y="530"/>
      <point x="311" y="627" type="curve"/>
      <point x="274" y="664" type="line"/>
      <point x="97" y="115" type="line" smooth="yes"/>
      <point x="88" y="87"/>
      <point x="88" y="87"/>
      <point x="14" y="118" type="curve"/>
      <point x="3" y="91"/>
      <point x="-20" y="40"/>
      <point x="-20" y="22" type="curve"/>
      <point x="3" y="4"/>
      <point x="57" y="-13"/>
    </contour>
    <contour>
      <point x="463" y="192" type="curve"/>
      <point x="482" y="134" type="line"/>
      <point x="654" y="635" type="line"/>
      <point x="624" y="670" type="line"/>
      <point x="624" y="670"/>
      <point x="519" y="368"/>
    </contour>
    <contour>
      <point x="840" y="-20" type="curve"/>
      <point x="868" y="7"/>
      <point x="898" y="38"/>
      <point x="934" y="63" type="curve"/>
      <point x="932" y="89" type="line"/>
      <point x="879" y="82"/>
      <point x="875" y="88"/>
      <point x="862" y="126" type="curve"/>
      <point x="799" y="312"/>
      <point x="738" y="528"/>
      <point x="685" y="714" type="curve"/>
      <point x="671" y="720" type="line"/>
      <point x="663" y="720"/>
      <point x="586" y="657"/>
      <point x="567" y="632" type="curve"/>
      <point x="634" y="502"/>
      <point x="737" y="134"/>
      <point x="768" y="39" type="curve"/>
      <point x="778" y="8"/>
      <point x="822" y="-20"/>
    </contour>
    <contour>
      <point x="455" y="0" type="move" name="bottom"/>
    </contour>
    <contour>
      <point x="455" y="700" type="move" name="top"/>
    </contour>
  </outline>
</glyph>
<glyph name="P" format="1">
  <advance width="915"/>
  <unicode hex="0050"/>
  <outline>
    <contour>
      <point x="309" y="176" type="curve"/>
      <point x="351" y="90" type="line"/>
      <point x="353" y="236"/>
      <point x="359" y="468"/>
      <point x="361" y="613" type="curve"/>
      <point x="317" y="600" type="line"/>
      <point x="321" y="494"/>
      <point x="312" y="321"/>
    </contour>
    <contour>
      <point x="109" y="-221" type="curve"/>
      <point x="257" y="-221" type="line"/>
      <point x="250" y="7"/>
      <point x="246" y="304"/>
      <point x="247" y="569" type="curve"/>
      <point x="247" y="607"/>
      <point x="257" y="663"/>
      <point x="260" y="715" type="curve"/>
      <point x="238" y="723" type="line"/>
      <point x="181" y="688"/>
      <point x="122" y="666"/>
      <point x="40" y="628" type="curve"/>
      <point x="47" y="603" type="line"/>
      <point x="103" y="601"/>
      <point x="113" y="551"/>
      <point x="114" y="496" type="curve"/>
      <point x="118" y="251"/>
      <point x="117" y="25"/>
    </contour>
    <contour>
      <point x="242" y="81" type="curve"/>
      <point x="240" y="46" type="line"/>
      <point x="266" y="60"/>
      <point x="293" y="68"/>
      <point x="316" y="65" type="curve"/>
      <point x="369" y="60"/>
      <point x="411" y="18"/>
      <point x="444" y="-11" type="curve"/>
      <point x="535" y="23"/>
      <point x="663" y="84"/>
      <point x="741" y="118" type="curve"/>
      <point x="805" y="180"/>
      <point x="895" y="266"/>
      <point x="895" y="393" type="curve"/>
      <point x="895" y="616"/>
      <point x="698" y="723"/>
      <point x="477" y="723" type="curve"/>
      <point x="403" y="682"/>
      <point x="311" y="634"/>
      <point x="247" y="599" type="curve"/>
      <point x="232" y="548" type="line"/>
      <point x="340" y="611"/>
      <point x="414" y="624"/>
      <point x="467" y="624" type="curve"/>
      <point x="598" y="624"/>
      <point x="771" y="544"/>
      <point x="771" y="353" type="curve"/>
      <point x="771" y="213"/>
      <point x="698" y="127"/>
      <point x="543" y="77" type="curve"/>
      <point x="512" y="94"/>
      <point x="428" y="141"/>
      <point x="379" y="141" type="curve"/>
      <point x="361" y="141"/>
      <point x="294" y="106"/>
    </contour>
    <contour>
      <point x="438" y="0" type="move" name="bottom"/>
    </contour>
    <contour>
      <point x="438" y="700" type="move" name="top"/>
    </contour>
  </outline>
</glyph>
<glyph name="Q" format="1">
  <advance width="865"/>
  <unicode hex="0051"/>
  <outline>
    <contour>
      <point x="358" y="-20" type="curve"/>
      <point x="432" y="52"/>
      <point x="492" y="104"/>
      <point x="556" y="166" type="curve"/>
      <point x="534" y="184" type="line"/>
      <point x="471" y="129"/>
      <point x="416" y="102"/>
      <point x="368" y="102" type="curve"/>
      <point x="233" y="102"/>
      <point x="160" y="217"/>
      <point x="160" y="336" type="curve"/>
      <point x="160" y="513"/>
      <point x="305" y="630"/>
      <point x="405" y="630" type="curve"/>
      <point x="569" y="630"/>
      <point x="699" y="537"/>
      <point x="699" y="384" type="curve"/>
      <point x="699" y="228"/>
      <point x="617" y="150"/>
      <point x="563" y="74" type="curve"/>
      <point x="619" y="34"/>
      <point x="693" y="-20"/>
      <point x="704" y="-20" type="curve"/>
      <point x="713" y="-20"/>
      <point x="809" y="70"/>
      <point x="870" y="111" type="curve"/>
      <point x="855" y="135" type="line"/>
      <point x="828" y="121"/>
      <point x="774" y="94"/>
      <point x="767" y="94" type="curve"/>
      <point x="756" y="94"/>
      <point x="697" y="131"/>
      <point x="674" y="156" type="curve"/>
      <point x="697" y="191"/>
      <point x="831" y="284"/>
      <point x="836" y="430" type="curve"/>
      <point x="842" y="600"/>
      <point x="721" y="680"/>
      <point x="603" y="720" type="curve"/>
      <point x="303" y="720"/>
      <point x="29" y="553"/>
      <point x="29" y="300" type="curve"/>
      <point x="29" y="105"/>
      <point x="155" y="-20"/>
    </contour>
    <contour>
      <point x="433" y="0" type="move" name="bottom"/>
    </contour>
    <contour>
      <point x="433" y="700" type="move" name="top"/>
    </contour>
  </outline>
</glyph>
<glyph name="R" format="1">
  <advance width="561"/>
  <unicode hex="0052"/>
  <outline>
    <contour>
      <point x="46" y="601" type="curve"/>
      <point x="35" y="-10" type="line"/>
      <point x="152" y="10" type="line"/>
      <point x="153" y="370" type="line" smooth="yes"/>
      <point x="153" y="391"/>
      <point x="181" y="395"/>
      <point x="201" y="395" type="curve"/>
      <point x="330" y="395"/>
      <point x="397" y="184"/>
      <point x="408" y="-9" type="curve"/>
      <point x="421" y="-10" type="line"/>
      <point x="531" y="67" type="line"/>
      <point x="494" y="277"/>
      <point x="459" y="421"/>
      <point x="287" y="473" type="curve"/>
      <point x="378" y="537"/>
      <point x="422" y="546"/>
      <point x="422" y="612" type="curve"/>
      <point x="422" y="688"/>
      <point x="356" y="720"/>
      <point x="286" y="719" type="curve"/>
      <point x="212" y="718"/>
      <point x="131" y="670"/>
    </contour>
    <contour>
      <point x="207" y="460" type="curve"/>
      <point x="152" y="426" type="line"/>
      <point x="153" y="619" type="line"/>
      <point x="169" y="633"/>
      <point x="197" y="648"/>
      <point x="225" y="648" type="curve"/>
      <point x="269" y="648"/>
      <point x="299" y="622"/>
      <point x="299" y="580" type="curve"/>
      <point x="299" y="520"/>
      <point x="242" y="481"/>
    </contour>
    <contour>
      <point x="281" y="0" type="move" name="bottom"/>
    </contour>
    <contour>
      <point x="281" y="700" type="move" name="top"/>
    </contour>
  </outline>
</glyph>
<glyph name="U" format="1">
  <advance width="914"/>
  <unicode hex="0055"/>
  <outline>
    <contour>
      <point x="350" y="-20" type="curve"/>
      <point x="646" y="128" type="line"/>
      <point x="646" y="174" type="line"/>
      <point x="604" y="149"/>
      <point x="479" y="73"/>
      <point x="432" y="73" type="curve"/>
      <point x="372" y="73"/>
      <point x="248" y="102"/>
      <point x="248" y="249" type="curve"/>
      <point x="248" y="337"/>
      <point x="331" y="480"/>
      <point x="372" y="532" type="curve"/>
      <point x="390" y="555"/>
      <point x="442" y="588"/>
      <point x="442" y="592" type="curve"/>
      <point x="442" y="601"/>
      <point x="300" y="723"/>
      <point x="290" y="723" type="curve"/>
      <point x="274" y="723"/>
      <point x="155" y="640"/>
      <point x="107" y="598" type="curve"/>
      <point x="121" y="578" type="line"/>
      <point x="121" y="578"/>
      <point x="179" y="604"/>
      <point x="200" y="604" type="curve"/>
      <point x="232" y="604"/>
      <point x="291" y="566"/>
      <point x="318" y="533" type="curve"/>
      <point x="215" y="413"/>
      <point x="111" y="288"/>
      <point x="111" y="190" type="curve"/>
      <point x="111" y="71"/>
      <point x="228" y="-20"/>
    </contour>
    <contour>
      <point x="747" y="125" type="move"/>
    </contour>
    <contour>
      <point x="593" y="651" type="curve"/>
      <point x="545" y="633" type="line"/>
      <point x="543" y="103" type="line"/>
      <point x="581" y="113" type="line"/>
      <point x="583" y="332"/>
      <point x="587" y="432"/>
    </contour>
    <contour>
      <point x="627" y="659" type="line"/>
      <point x="628" y="134" type="line"/>
      <point x="729" y="-19" type="line"/>
      <point x="864" y="92" type="line"/>
      <point x="861" y="127" type="line"/>
      <point x="783" y="109"/>
      <point x="744" y="164"/>
      <point x="742" y="252" type="curve"/>
      <point x="739" y="381"/>
      <point x="729" y="586"/>
      <point x="794" y="706" type="curve"/>
      <point x="783" y="728" type="line"/>
    </contour>
  </outline>
</glyph>
<glyph name="X" format="1">
  <advance width="970"/>
  <unicode hex="0058"/>
  <outline>
    <contour>
      <point x="128" y="-175" type="curve"/>
      <point x="145" y="-209" type="line"/>
      <point x="218" y="-143"/>
      <point x="380" y="-18"/>
      <point x="429" y="150" type="curve"/>
      <point x="408" y="146" type="line"/>
      <point x="429" y="53"/>
      <point x="560" y="-20"/>
      <point x="628" y="-20" type="curve"/>
      <point x="678" y="-2"/>
      <point x="872" y="55"/>
      <point x="920" y="81" type="curve"/>
      <point x="909" y="107" type="line"/>
      <point x="838" y="84"/>
      <point x="793" y="77"/>
      <point x="757" y="77" type="curve"/>
      <point x="660" y="77"/>
      <point x="506" y="136"/>
      <point x="506" y="309" type="curve"/>
      <point x="506" y="433"/>
      <point x="556" y="538"/>
      <point x="609" y="575" type="curve"/>
      <point x="638" y="555"/>
      <point x="670" y="527"/>
      <point x="727" y="512" type="curve"/>
      <point x="769" y="538"/>
      <point x="858" y="584"/>
      <point x="941" y="655" type="curve"/>
      <point x="921" y="687" type="line"/>
      <point x="883" y="660"/>
      <point x="843" y="630"/>
      <point x="798" y="630" type="curve"/>
      <point x="754" y="630"/>
      <point x="727" y="698"/>
      <point x="714" y="718" type="curve"/>
      <point x="695" y="718"/>
      <point x="451" y="513"/>
      <point x="436" y="459" type="curve"/>
      <point x="449" y="450" type="line"/>
      <point x="434" y="534"/>
      <point x="352" y="649"/>
      <point x="226" y="651" type="curve"/>
      <point x="147" y="652"/>
      <point x="67" y="600"/>
      <point x="20" y="538" type="curve"/>
      <point x="36" y="516" type="line"/>
      <point x="78" y="545"/>
      <point x="108" y="552"/>
      <point x="150" y="552" type="curve"/>
      <point x="277" y="552"/>
      <point x="344" y="404"/>
      <point x="344" y="257" type="curve"/>
      <point x="344" y="81"/>
      <point x="252" y="-62"/>
    </contour>
    <contour>
      <point x="485" y="0" type="move" name="bottom"/>
    </contour>
    <contour>
      <point x="485" y="700" type="move" name="top"/>
    </contour>
  </outline>
</glyph>
<glyph name="Z" format="1">
  <advance width="698"/>
  <unicode hex="005A"/>
  <outline>
    <contour>
      <point x="186" y="-240" type="curve"/>
      <point x="244" y="-214"/>
      <point x="302" y="-182"/>
      <point x="401" y="-117" type="curve"/>
      <point x="513" y="-43"/>
      <point x="674" y="58"/>
      <point x="674" y="192" type="curve"/>
      <point x="674" y="336"/>
      <point x="467" y="404"/>
      <point x="353" y="402" type="curve"/>
      <point x="357" y="383" type="line"/>
      <point x="460" y="466"/>
      <point x="564" y="594"/>
      <point x="671" y="676" type="curve"/>
      <point x="649" y="704" type="line"/>
      <point x="539" y="685"/>
      <point x="474" y="676"/>
      <point x="421" y="676" type="curve"/>
      <point x="312" y="676"/>
      <point x="204" y="716"/>
      <point x="153" y="716" type="curve"/>
      <point x="158" y="717"/>
      <point x="72" y="660"/>
      <point x="28" y="598" type="curve"/>
      <point x="49" y="577" type="line"/>
      <point x="85" y="605"/>
      <point x="120" y="612"/>
      <point x="149" y="612" type="curve"/>
      <point x="206" y="612"/>
      <point x="287" y="586"/>
      <point x="362" y="586" type="curve"/>
      <point x="406" y="586"/>
      <point x="456" y="591"/>
      <point x="507" y="600" type="curve"/>
      <point x="395" y="459"/>
      <point x="283" y="370"/>
      <point x="74" y="273" type="curve"/>
      <point x="93" y="232" type="line"/>
      <point x="139" y="253"/>
      <point x="238" y="304"/>
      <point x="244" y="304" type="curve"/>
      <point x="372" y="304"/>
      <point x="526" y="262"/>
      <point x="526" y="140" type="curve"/>
      <point x="526" y="71"/>
      <point x="486" y="3"/>
      <point x="432" y="-43" type="curve"/>
      <point x="381" y="-86"/>
      <point x="287" y="-134"/>
      <point x="272" y="-134" type="curve"/>
      <point x="254" y="-134"/>
      <point x="187" y="-56"/>
      <point x="181" y="-56" type="curve"/>
      <point x="152" y="-75"/>
      <point x="94" y="-127"/>
      <point x="74" y="-142" type="curve"/>
      <point x="84" y="-163"/>
      <point x="139" y="-218"/>
    </contour>
    <contour>
      <point x="339" y="0" type="move" name="bottom"/>
    </contour>
    <contour>
      <point x="339" y="700" type="move" name="top"/>
    </contour>
  </outline>
</glyph>
<glyph name="a" format="1">
  <advance width="423"/>
  <unicode hex="0061"/>
  <outline>
    <contour>
      <point x="291" y="-21" type="curve"/>
      <point x="328" y="-8"/>
      <point x="376" y="24"/>
      <point x="398" y="42" type="curve"/>
      <point x="397" y="61" type="line"/>
      <point x="376" y="74"/>
      <point x="362" y="89"/>
      <point x="362" y="124" type="curve"/>
      <point x="362" y="154"/>
      <point x="368" y="298"/>
      <point x="368" y="328" type="curve"/>
      <point x="368" y="391"/>
      <point x="309" y="451"/>
      <point x="241" y="451" type="curve"/>
      <point x="194" y="440"/>
      <point x="102" y="394"/>
      <point x="31" y="350" type="curve"/>
      <point x="47" y="320" type="line"/>
      <point x="92" y="349"/>
      <point x="137" y="378"/>
      <point x="180" y="378" type="curve"/>
      <point x="236" y="378"/>
      <point x="259" y="343"/>
      <point x="259" y="319" type="curve"/>
      <point x="259" y="286"/>
      <point x="258" y="110"/>
      <point x="258" y="70" type="curve"/>
      <point x="258" y="42"/>
      <point x="270" y="9"/>
    </contour>
    <contour>
      <point x="91" y="-20" type="curve"/>
      <point x="143" y="8"/>
      <point x="232" y="57"/>
      <point x="277" y="78" type="curve"/>
      <point x="302" y="146" type="line"/>
      <point x="278" y="124"/>
      <point x="238" y="78"/>
      <point x="199" y="78" type="curve"/>
      <point x="160" y="78"/>
      <point x="131" y="103"/>
      <point x="131" y="136" type="curve"/>
      <point x="131" y="171"/>
      <point x="206" y="231"/>
      <point x="312" y="285" type="curve"/>
      <point x="302" y="335" type="line"/>
      <point x="235" y="289"/>
      <point x="67" y="155"/>
      <point x="5" y="94" type="curve"/>
      <point x="36" y="65"/>
      <point x="64" y="17"/>
    </contour>
    <contour>
      <point x="212" y="0" type="move" name="bottom"/>
    </contour>
    <contour>
      <point x="376" y="2" type="move" name="ogonek"/>
    </contour>
    <contour>
      <point x="212" y="430" type="move" name="top"/>
    </contour>
  </outline>
</glyph>
<glyph name="g" format="1">
  <advance width="523"/>
  <unicode hex="0067"/>
  <outline>
    <contour>
      <point x="208" y="-240" type="curve"/>
      <point x="268" y="-231"/>
      <point x="331" y="-214"/>
      <point x="386" y="-193" type="curve"/>
      <point x="428" y="-167"/>
      <point x="486" y="-124"/>
      <point x="486" y="-38" type="curve"/>
      <point x="486" y="45"/>
      <point x="430" y="117"/>
      <point x="295" y="148" type="curve"/>
      <point x="197" y="100"/>
      <point x="111" y="149"/>
      <point x="111" y="231" type="curve"/>
      <point x="111" y="279"/>
      <point x="129" y="308"/>
      <point x="139" y="325" type="curve"/>
      <point x="215" y="384"/>
      <point x="319" y="322"/>
      <point x="319" y="241" type="curve"/>
      <point x="319" y="198"/>
      <point x="301" y="149"/>
      <point x="241" y="111" type="curve"/>
      <point x="307" y="122" type="line"/>
      <point x="352" y="165"/>
      <point x="393" y="238"/>
      <point x="427" y="287" type="curve"/>
      <point x="448" y="293"/>
      <point x="488" y="294"/>
      <point x="508" y="295" type="curve"/>
      <point x="495" y="390" type="line"/>
      <point x="325" y="405"/>
      <point x="321" y="415"/>
      <point x="241" y="454" type="curve"/>
      <point x="199" y="441"/>
      <point x="98" y="363"/>
      <point x="50" y="317" type="curve"/>
      <point x="30" y="282"/>
      <point x="15" y="239"/>
      <point x="15" y="200" type="curve"/>
      <point x="15" y="91"/>
      <point x="82" y="48"/>
      <point x="173" y="30" type="curve"/>
      <point x="287" y="72"/>
      <point x="377" y="22"/>
      <point x="381" y="-61" type="curve"/>
      <point x="384" y="-125"/>
      <point x="348" y="-179"/>
      <point x="286" y="-179" type="curve"/>
      <point x="227" y="-179"/>
      <point x="157" y="-144"/>
      <point x="157" y="-59" type="curve"/>
      <point x="157" y="-16"/>
      <point x="188" y="25"/>
      <point x="211" y="46" type="curve"/>
      <point x="184" y="50" type="line"/>
      <point x="155" y="36"/>
      <point x="72" y="-24"/>
      <point x="44" y="-49" type="curve"/>
      <point x="19" y="-184"/>
      <point x="126" y="-228"/>
    </contour>
    <contour>
      <point x="286" y="0" type="move" name="bottom"/>
    </contour>
    <contour>
      <point x="286" y="430" type="move" name="top"/>
    </contour>
  </outline>
</glyph>
<glyph name="h" format="1">
  <advance width="553"/>
  <unicode hex="0068"/>
  <outline>
    <contour>
      <point x="181" y="8" type="line"/>
      <point x="181" y="306" type="line"/>
      <point x="179" y="324" type="line"/>
      <point x="182" y="446"/>
      <point x="185" y="589"/>
      <point x="186" y="712" type="curve"/>
      <point x="179" y="716" type="line"/>
      <point x="142" y="701"/>
      <point x="70" y="689"/>
      <point x="59" y="684" type="curve"/>
      <point x="59" y="620"/>
      <point x="70" y="458"/>
      <point x="63" y="394" type="curve"/>
      <point x="59" y="355"/>
      <point x="45" y="338"/>
      <point x="20" y="311" type="curve"/>
      <point x="20" y="305" type="line"/>
      <point x="40" y="288"/>
      <point x="67" y="253"/>
      <point x="67" y="214" type="curve"/>
      <point x="67" y="187"/>
      <point x="67" y="-10"/>
      <point x="68" y="-11" type="curve"/>
      <point x="77" y="-17" type="line"/>
    </contour>
    <contour>
      <point x="178" y="332" type="curve"/>
      <point x="175" y="289" type="line"/>
      <point x="204" y="328"/>
      <point x="239" y="343"/>
      <point x="282" y="343" type="curve"/>
      <point x="367" y="343"/>
      <point x="440" y="277"/>
      <point x="440" y="188" type="curve"/>
      <point x="440" y="112"/>
      <point x="408" y="78"/>
      <point x="376" y="52" type="curve"/>
      <point x="339" y="52"/>
      <point x="328" y="78"/>
      <point x="309" y="105" type="curve"/>
      <point x="282" y="92"/>
      <point x="246" y="69"/>
      <point x="230" y="45" type="curve"/>
      <point x="230" y="20"/>
      <point x="288" y="-21"/>
      <point x="320" y="-21" type="curve"/>
      <point x="376" y="23"/>
      <point x="410" y="42"/>
      <point x="482" y="99" type="curve"/>
      <point x="530" y="150"/>
      <point x="538" y="179"/>
      <point x="538" y="226" type="curve"/>
      <point x="538" y="343"/>
      <point x="453" y="460"/>
      <point x="306" y="449" type="curve"/>
      <point x="261" y="409"/>
      <point x="180" y="331"/>
    </contour>
    <contour>
      <point x="277" y="0" type="move" name="bottom"/>
    </contour>
    <contour>
      <point x="277" y="215" type="move" name="center"/>
    </contour>
    <contour>
      <point x="277" y="430" type="move" name="top"/>
    </contour>
  </outline>
</glyph>
<glyph name="j" format="1">
  <advance width="235"/>
  <unicode hex="006A"/>
  <outline>
    <contour>
      <point x="49" y="-143" type="curve"/>
      <point x="67" y="-149" type="line"/>
      <point x="109" y="-77"/>
      <point x="147" y="-21"/>
      <point x="190" y="32" type="curve"/>
      <point x="182" y="136"/>
      <point x="177" y="178"/>
      <point x="185" y="329" type="curve"/>
      <point x="190" y="415"/>
      <point x="144" y="463"/>
      <point x="75" y="447" type="curve"/>
      <point x="10" y="365" type="line"/>
      <point x="10" y="345" type="line"/>
      <point x="39" y="336"/>
      <point x="67" y="332"/>
      <point x="67" y="283" type="curve"/>
      <point x="67" y="201"/>
      <point x="74" y="72"/>
    </contour>
    <contour>
      <point x="99" y="588" type="line"/>
      <point x="106" y="550" type="line"/>
      <point x="109" y="550" type="line"/>
      <point x="186" y="714" type="line"/>
      <point x="186" y="717" type="line"/>
      <point x="148" y="733" type="line"/>
      <point x="145" y="732" type="line"/>
    </contour>
  </outline>
</glyph>
<glyph name="k" format="1">
  <advance width="435"/>
  <unicode hex="006B"/>
  <outline>
    <contour>
      <point x="321" y="18" type="line"/>
      <point x="382" y="-15" type="line"/>
      <point x="421" y="0" type="line"/>
      <point x="425" y="20"/>
      <point x="430" y="48"/>
      <point x="430" y="79" type="curve"/>
      <point x="430" y="149"/>
      <point x="358" y="218"/>
      <point x="254" y="233" type="curve"/>
      <point x="258" y="226" type="line"/>
      <point x="291" y="252"/>
      <point x="324" y="275"/>
      <point x="357" y="305" type="curve"/>
      <point x="417" y="390"/>
      <point x="308" y="450"/>
      <point x="278" y="450" type="curve"/>
      <point x="254" y="450"/>
      <point x="183" y="387"/>
      <point x="131" y="348" type="curve"/>
      <point x="145" y="328" type="line"/>
      <point x="199" y="368"/>
      <point x="271" y="356"/>
      <point x="271" y="296" type="curve"/>
      <point x="271" y="262"/>
      <point x="228" y="238"/>
      <point x="186" y="211" type="curve"/>
      <point x="127" y="173" type="line"/>
      <point x="147" y="155" type="line"/>
      <point x="166" y="163" type="line"/>
      <point x="280" y="153"/>
      <point x="363" y="87"/>
      <point x="317" y="21" type="curve"/>
    </contour>
    <contour>
      <point x="39" y="26" type="curve"/>
      <point x="40" y="-1" type="line"/>
      <point x="159" y="0" type="line"/>
      <point x="157" y="163"/>
      <point x="148" y="162"/>
      <point x="167" y="718" type="curve"/>
      <point x="159" y="720" type="line"/>
      <point x="47" y="686" type="line"/>
      <point x="61" y="592"/>
      <point x="61" y="511"/>
      <point x="61" y="445" type="curve"/>
      <point x="61" y="413"/>
      <point x="47" y="379"/>
      <point x="10" y="341" type="curve"/>
      <point x="10" y="332" type="line"/>
      <point x="30" y="311"/>
      <point x="62" y="282"/>
      <point x="62" y="215" type="curve"/>
      <point x="62" y="155"/>
      <point x="59" y="46"/>
    </contour>
  </outline>
</glyph>
<glyph name="l" format="1">
  <advance width="218"/>
  <unicode hex="006C"/>
  <outline>
    <contour>
      <point x="127" y="-19" type="curve"/>
      <point x="140" y="-19"/>
      <point x="180" y="17"/>
      <point x="208" y="36" type="curve"/>
      <point x="208" y="55" type="line"/>
      <point x="174" y="71"/>
      <point x="173" y="83"/>
      <point x="172" y="103" type="curve"/>
      <point x="161" y="307"/>
      <point x="167" y="501"/>
      <point x="170" y="718" type="curve"/>
      <point x="162" y="720" type="line"/>
      <point x="47" y="666" type="line"/>
      <point x="58" y="582"/>
      <point x="61" y="511"/>
      <point x="61" y="445" type="curve"/>
      <point x="61" y="413"/>
      <point x="47" y="379"/>
      <point x="10" y="341" type="curve"/>
      <point x="10" y="332" type="line"/>
      <point x="30" y="311"/>
      <point x="62" y="282"/>
      <point x="62" y="215" type="curve"/>
      <point x="62" y="155"/>
      <point x="57" y="96"/>
      <point x="57" y="36" type="curve"/>
      <point x="57" y="13"/>
      <point x="103" y="-19"/>
    </contour>
    <contour>
      <point x="109" y="0" type="move" name="bottom"/>
    </contour>
    <contour>
      <point x="109" y="215" type="move" name="center"/>
    </contour>
    <contour>
      <point x="109" y="430" type="move" name="top"/>
    </contour>
    <contour>
      <point x="198" y="430" type="move" name="topright"/>
    </contour>
  </outline>
</glyph>
<glyph name="m" format="1">
  <advance width="701"/>
  <unicode hex="006D"/>
  <outline>
    <contour>
      <point x="301" y="-4" type="curve"/>
      <point x="305" y="-6" type="line"/>
      <point x="424" y="0" type="line"/>
      <point x="421" y="115"/>
      <point x="421" y="229"/>
      <point x="421" y="344" type="curve"/>
      <point x="421" y="430"/>
      <point x="350" y="450"/>
      <point x="286" y="450" type="curve"/>
      <point x="274" y="450"/>
      <point x="240" y="394"/>
      <point x="171" y="333" type="curve"/>
      <point x="178" y="299" type="line"/>
      <point x="188" y="309"/>
      <point x="215" y="337"/>
      <point x="244" y="337" type="curve"/>
      <point x="262" y="337"/>
      <point x="294" y="328"/>
      <point x="298" y="300" type="curve"/>
      <point x="302" y="271"/>
      <point x="305" y="94"/>
    </contour>
    <contour>
      <point x="76" y="-5" type="line"/>
      <point x="80" y="-7" type="line"/>
      <point x="195" y="0" type="line"/>
      <point x="191" y="105"/>
      <point x="190" y="205"/>
      <point x="191" y="310" type="curve"/>
      <point x="191" y="326" type="line"/>
      <point x="191" y="348" type="line" smooth="yes"/>
      <point x="191" y="414"/>
      <point x="137" y="450"/>
      <point x="83" y="450" type="curve"/>
      <point x="77" y="450"/>
      <point x="44" y="397"/>
      <point x="10" y="357" type="curve"/>
      <point x="10" y="332" type="line"/>
      <point x="43" y="332"/>
      <point x="76" y="329"/>
      <point x="76" y="271" type="curve"/>
    </contour>
    <contour>
      <point x="533" y="-2" type="curve"/>
      <point x="656" y="0" type="line"/>
      <point x="653" y="115"/>
      <point x="653" y="229"/>
      <point x="653" y="344" type="curve"/>
      <point x="653" y="430"/>
      <point x="582" y="450"/>
      <point x="518" y="450" type="curve"/>
      <point x="506" y="450"/>
      <point x="472" y="394"/>
      <point x="403" y="333" type="curve"/>
      <point x="410" y="299" type="line"/>
      <point x="420" y="309"/>
      <point x="447" y="337"/>
      <point x="476" y="337" type="curve"/>
      <point x="494" y="337"/>
      <point x="528" y="328"/>
      <point x="530" y="300" type="curve"/>
      <point x="532" y="271"/>
      <point x="537" y="96"/>
    </contour>
    <contour>
      <point x="338" y="0" type="move" name="bottom"/>
    </contour>
    <contour>
      <point x="338" y="430" type="move" name="top"/>
    </contour>
  </outline>
</glyph>
<glyph name="n" format="1">
  <advance width="479"/>
  <unicode hex="006E"/>
  <outline>
    <contour>
      <point x="177" y="332" type="curve"/>
      <point x="187" y="298" type="line"/>
      <point x="195" y="307"/>
      <point x="227" y="337"/>
      <point x="257" y="337" type="curve"/>
      <point x="280" y="337"/>
      <point x="311" y="329"/>
      <point x="311" y="293" type="curve"/>
      <point x="311" y="264"/>
      <point x="311" y="98"/>
      <point x="311" y="-4" type="curve"/>
      <point x="315" y="-6" type="line"/>
      <point x="434" y="0" type="line"/>
      <point x="431" y="115"/>
      <point x="431" y="229"/>
      <point x="431" y="344" type="curve"/>
      <point x="431" y="430"/>
      <point x="360" y="450"/>
      <point x="296" y="450" type="curve"/>
      <point x="284" y="450"/>
      <point x="248" y="396"/>
    </contour>
    <contour>
      <point x="76" y="-5" type="line"/>
      <point x="80" y="-7" type="line"/>
      <point x="195" y="0" type="line"/>
      <point x="191" y="101"/>
      <point x="190" y="188"/>
      <point x="191" y="338" type="curve"/>
      <point x="191" y="404"/>
      <point x="137" y="450"/>
      <point x="83" y="450" type="curve"/>
      <point x="77" y="450"/>
      <point x="44" y="397"/>
      <point x="10" y="357" type="curve"/>
      <point x="10" y="332" type="line"/>
      <point x="43" y="332"/>
      <point x="76" y="329"/>
      <point x="76" y="271" type="curve"/>
    </contour>
    <contour>
      <point x="230" y="0" type="move" name="bottom"/>
    </contour>
    <contour>
      <point x="230" y="430" type="move" name="top"/>
    </contour>
  </outline>
</glyph>
<glyph name="o" format="1">
  <advance width="453"/>
  <unicode hex="006F"/>
  <outline>
    <contour>
      <point x="195" y="-21" type="curve"/>
      <point x="234" y="-21"/>
      <point x="347" y="64"/>
      <point x="392" y="100" type="curve"/>
      <point x="422" y="132"/>
      <point x="438" y="198"/>
      <point x="438" y="234" type="curve"/>
      <point x="438" y="365"/>
      <point x="335" y="441"/>
      <point x="261" y="450" type="curve"/>
      <point x="224" y="440"/>
      <point x="99" y="349"/>
      <point x="71" y="330" type="curve"/>
      <point x="43" y="302"/>
      <point x="14" y="252"/>
      <point x="14" y="194" type="curve"/>
      <point x="14" y="79"/>
      <point x="102" y="-11"/>
    </contour>
    <contour>
      <point x="277" y="68" type="curve"/>
      <point x="254" y="60"/>
      <point x="122" y="90"/>
      <point x="122" y="247" type="curve"/>
      <point x="122" y="311"/>
      <point x="155" y="351"/>
      <point x="178" y="355" type="curve"/>
      <point x="224" y="362"/>
      <point x="322" y="318"/>
      <point x="322" y="183" type="curve"/>
      <point x="322" y="124"/>
      <point x="299" y="76"/>
    </contour>
    <contour>
      <point x="227" y="0" type="move" name="bottom"/>
    </contour>
    <contour>
      <point x="227" y="215" type="move" name="center"/>
    </contour>
    <contour>
      <point x="408" y="10" type="move" name="ogonek"/>
    </contour>
    <contour>
      <point x="227" y="430" type="move" name="top"/>
    </contour>
    <contour>
      <point x="433" y="430" type="move" name="topright"/>
    </contour>
  </outline>
</glyph>
<glyph name="q" format="1">
  <advance width="495"/>
  <unicode hex="0071"/>
  <outline>
    <contour>
      <point x="351" y="-240" type="curve"/>
      <point x="351" y="-244"/>
      <point x="467" y="-226"/>
      <point x="465" y="-203" type="curve"/>
      <point x="441" y="73"/>
      <point x="461" y="396"/>
      <point x="451" y="398" type="curve"/>
      <point x="415" y="405"/>
      <point x="297" y="433"/>
      <point x="253" y="445" type="curve"/>
      <point x="240" y="449"/>
      <point x="123" y="366"/>
      <point x="61" y="318" type="curve"/>
      <point x="34" y="297"/>
      <point x="14" y="258"/>
      <point x="14" y="181" type="curve"/>
      <point x="14" y="83"/>
      <point x="78" y="-19"/>
      <point x="213" y="-19" type="curve"/>
      <point x="245" y="-19"/>
      <point x="292" y="44"/>
      <point x="345" y="93" type="curve"/>
      <point x="347" y="-49"/>
      <point x="351" y="-224"/>
    </contour>
    <contour>
      <point x="261" y="88" type="curve"/>
      <point x="202" y="88"/>
      <point x="140" y="125"/>
      <point x="140" y="224" type="curve"/>
      <point x="140" y="265"/>
      <point x="148" y="308"/>
      <point x="168" y="338" type="curve"/>
      <point x="283" y="346"/>
      <point x="347" y="286"/>
      <point x="349" y="152" type="curve"/>
      <point x="329" y="113"/>
      <point x="297" y="88"/>
    </contour>
    <contour>
      <point x="242" y="0" type="move" name="bottom"/>
    </contour>
    <contour>
      <point x="242" y="430" type="move" name="top"/>
    </contour>
  </outline>
</glyph>
<glyph name="r" format="1">
  <advance width="345"/>
  <unicode hex="0072"/>
  <outline>
    <contour>
      <point x="76" y="-5" type="line"/>
      <point x="80" y="-7" type="line"/>
      <point x="195" y="0" type="line"/>
      <point x="191" y="102"/>
      <point x="190" y="200"/>
      <point x="191" y="302" type="curve"/>
      <point x="191" y="334" type="line"/>
      <point x="191" y="348" type="line" smooth="yes"/>
      <point x="191" y="387"/>
      <point x="137" y="430"/>
      <point x="83" y="450" type="curve"/>
      <point x="76" y="453"/>
      <point x="44" y="404"/>
      <point x="10" y="364" type="curve"/>
      <point x="10" y="339" type="line"/>
      <point x="43" y="339"/>
      <point x="76" y="336"/>
      <point x="76" y="278" type="curve"/>
    </contour>
    <contour>
      <point x="253" y="305" type="curve"/>
      <point x="258" y="301"/>
      <point x="345" y="376"/>
      <point x="345" y="380" type="curve"/>
      <point x="345" y="389"/>
      <point x="277" y="455"/>
      <point x="271" y="450" type="curve"/>
      <point x="244" y="427"/>
      <point x="209" y="390"/>
      <point x="184" y="367" type="curve"/>
      <point x="191" y="328" type="line"/>
      <point x="211" y="345"/>
      <point x="211" y="345"/>
    </contour>
    <contour>
      <point x="165" y="0" type="move" name="bottom"/>
    </contour>
    <contour>
      <point x="165" y="430" type="move" name="top"/>
    </contour>
  </outline>
</glyph>
<glyph name="u" format="1">
  <advance width="469"/>
  <unicode hex="0075"/>
  <outline>
    <contour>
      <point x="131" y="-24" type="curve"/>
      <point x="177" y="-24"/>
      <point x="248" y="33"/>
      <point x="291" y="62" type="curve"/>
      <point x="294" y="49" type="line" smooth="yes"/>
      <point x="302" y="16"/>
      <point x="327" y="-20"/>
      <point x="366" y="-20" type="curve"/>
      <point x="387" y="-20"/>
      <point x="449" y="41"/>
      <point x="464" y="58" type="curve"/>
      <point x="462" y="81" type="line"/>
      <point x="432" y="80"/>
      <point x="402" y="88"/>
      <point x="401" y="124" type="curve"/>
      <point x="398" y="220"/>
      <point x="399" y="343"/>
      <point x="405" y="450" type="curve"/>
      <point x="399" y="452" type="line"/>
      <point x="280" y="396" type="line"/>
      <point x="289" y="313"/>
      <point x="286" y="187"/>
      <point x="286" y="104" type="curve"/>
      <point x="270" y="90"/>
      <point x="249" y="73"/>
      <point x="224" y="73" type="curve"/>
      <point x="190" y="73"/>
      <point x="177" y="103"/>
      <point x="177" y="134" type="curve"/>
      <point x="177" y="389" type="line" smooth="yes"/>
      <point x="177" y="421"/>
      <point x="140" y="449"/>
      <point x="86" y="449" type="curve"/>
      <point x="80" y="449"/>
      <point x="36" y="392"/>
      <point x="15" y="361" type="curve"/>
      <point x="15" y="341" type="line"/>
      <point x="40" y="333"/>
      <point x="65" y="316"/>
      <point x="65" y="275" type="curve"/>
      <point x="65" y="65" type="line" smooth="yes"/>
      <point x="65" y="28"/>
      <point x="80" y="-24"/>
    </contour>
    <contour>
      <point x="237" y="0" type="move" name="bottom"/>
    </contour>
    <contour>
      <point x="423" y="10" type="move" name="ogonek"/>
    </contour>
    <contour>
      <point x="237" y="430" type="move" name="top"/>
    </contour>
    <contour>
      <point x="449" y="430" type="move" name="topright"/>
    </contour>
  </outline>
</glyph>
<glyph name="v" format="1">
  <advance width="544"/>
  <unicode hex="0076"/>
  <outline>
    <contour>
      <point x="319" y="-19" type="curve"/>
      <point x="335" y="-19" type="line"/>
      <point x="418" y="110"/>
      <point x="544" y="293"/>
      <point x="544" y="347" type="curve"/>
      <point x="544" y="389"/>
      <point x="468" y="449"/>
      <point x="454" y="449" type="curve"/>
      <point x="439" y="449"/>
      <point x="342" y="358"/>
      <point x="278" y="319" type="curve"/>
      <point x="244" y="378" type="line" smooth="yes"/>
      <point x="218" y="423"/>
      <point x="196" y="450"/>
      <point x="117" y="450" type="curve"/>
      <point x="100" y="450"/>
      <point x="30" y="321"/>
      <point x="0" y="272" type="curve"/>
      <point x="21" y="258" type="line"/>
      <point x="38" y="283"/>
      <point x="63" y="326"/>
      <point x="82" y="326" type="curve"/>
      <point x="115" y="326"/>
      <point x="150" y="304"/>
      <point x="175" y="258" type="curve"/>
      <point x="205" y="202"/>
      <point x="255" y="106"/>
    </contour>
    <contour>
      <point x="383" y="116" type="curve"/>
      <point x="296" y="290" type="line"/>
      <point x="314" y="310"/>
      <point x="345" y="330"/>
      <point x="356" y="330" type="curve"/>
      <point x="396" y="330"/>
      <point x="443" y="298"/>
      <point x="443" y="250" type="curve"/>
      <point x="443" y="211"/>
      <point x="420" y="166"/>
    </contour>
    <contour>
      <point x="272" y="0" type="move" name="bottom"/>
    </contour>
    <contour>
      <point x="272" y="430" type="move" name="top"/>
    </contour>
  </outline>
</glyph>
<glyph name="z" format="1">
  <advance width="331"/>
  <unicode hex="007A"/>
  <outline>
    <contour>
      <point x="71" y="-239" type="curve"/>
      <point x="130" y="-239"/>
      <point x="311" y="-79"/>
      <point x="311" y="50" type="curve"/>
      <point x="311" y="134"/>
      <point x="251" y="180"/>
      <point x="174" y="189" type="curve"/>
      <point x="209" y="246"/>
      <point x="270" y="304"/>
      <point x="270" y="328" type="curve"/>
      <point x="270" y="389"/>
      <point x="232" y="446"/>
      <point x="153" y="446" type="curve"/>
      <point x="131" y="446"/>
      <point x="78" y="385"/>
      <point x="36" y="346" type="curve"/>
      <point x="50" y="325" type="line"/>
      <point x="50" y="325"/>
      <point x="75" y="338"/>
      <point x="99" y="338" type="curve"/>
      <point x="129" y="338"/>
      <point x="149" y="300"/>
      <point x="149" y="261" type="curve"/>
      <point x="149" y="237"/>
      <point x="140" y="205"/>
      <point x="119" y="180" type="curve"/>
      <point x="99" y="156"/>
      <point x="62" y="125"/>
      <point x="32" y="97" type="curve"/>
      <point x="52" y="79" type="line"/>
      <point x="62" y="86"/>
      <point x="72" y="95"/>
      <point x="79" y="95" type="curve"/>
      <point x="136" y="95"/>
      <point x="203" y="58"/>
      <point x="203" y="-25" type="curve"/>
      <point x="203" y="-84"/>
      <point x="179" y="-142"/>
      <point x="146" y="-142" type="curve"/>
      <point x="118" y="-142"/>
      <point x="104" y="-115"/>
      <point x="98" y="-115" type="curve"/>
      <point x="63" y="-115"/>
      <point x="20" y="-141"/>
      <point x="20" y="-184" type="curve"/>
      <point x="20" y="-213"/>
      <point x="36" y="-239"/>
    </contour>
  </outline>
</glyph>
<glyph name="section" format="1">
  <advance width="600"/>
  <unicode hex="00A7"/>
  <outline>
    <contour>
      <point x="236" y="160" type="curve"/>
      <point x="262" y="128" type="line"/>
      <point x="311" y="174"/>
      <point x="404" y="210"/>
      <point x="404" y="286" type="curve"/>
      <point x="404" y="388"/>
      <point x="315" y="498"/>
      <point x="323" y="535" type="curve"/>
      <point x="406" y="562"/>
      <point x="438" y="554"/>
      <point x="481" y="491" type="curve"/>
      <point x="509" y="507"/>
      <point x="559" y="538"/>
      <point x="579" y="559" type="curve"/>
      <point x="552" y="589"/>
      <point x="472" y="622"/>
      <point x="428" y="622" type="curve"/>
      <point x="401" y="612"/>
      <point x="181" y="516"/>
      <point x="144" y="495" type="curve"/>
      <point x="95" y="467"/>
      <point x="49" y="410"/>
      <point x="49" y="316" type="curve"/>
      <point x="49" y="188"/>
      <point x="173" y="111"/>
      <point x="222" y="69" type="curve"/>
      <point x="271" y="27"/>
      <point x="374" y="-34"/>
      <point x="374" y="-75" type="curve"/>
      <point x="365" y="-105"/>
      <point x="348" y="-134"/>
      <point x="325" y="-164" type="curve"/>
      <point x="349" y="-171" type="line"/>
      <point x="398" y="-108"/>
      <point x="449" y="-61"/>
      <point x="449" y="-16" type="curve"/>
      <point x="449" y="5"/>
      <point x="330" y="98"/>
      <point x="271" y="146" type="curve"/>
      <point x="257" y="158" type="line"/>
      <point x="199" y="203"/>
      <point x="144" y="256"/>
      <point x="144" y="337" type="curve"/>
      <point x="144" y="393"/>
      <point x="162" y="443"/>
      <point x="215" y="483" type="curve"/>
      <point x="263" y="432"/>
      <point x="305" y="329"/>
      <point x="305" y="264" type="curve"/>
      <point x="305" y="208"/>
      <point x="263" y="172"/>
    </contour>
  </outline>
</glyph>
<glyph name="periodcentered" format="1">
  <advance width="221"/>
  <unicode hex="00B7"/>
  <outline>
    <contour>
      <point x="20" y="276" type="line"/>
      <point x="20" y="272" type="line"/>
      <point x="103" y="181" type="line"/>
      <point x="106" y="181" type="line"/>
      <point x="201" y="262" type="line"/>
      <point x="201" y="267" type="line"/>
      <point x="122" y="357" type="line"/>
      <point x="118" y="357" type="line"/>
    </contour>
  </outline>
</glyph>
<glyph name="a_macr" format="1">
  <advance width="423"/>
  <unicode hex="0101"/>
  <outline>
    <contour>
      <point x="97" y="514" type="curve"/>
      <point x="116" y="506" type="line"/>
      <point x="147" y="580"/>
      <point x="181" y="553"/>
      <point x="304" y="553" type="curve"/>
      <point x="329" y="578"/>
      <point x="341" y="602"/>
      <point x="366" y="634" type="curve"/>
      <point x="344" y="645" type="line"/>
      <point x="330" y="639"/>
      <point x="317" y="637"/>
      <point x="295" y="637" type="curve"/>
      <point x="272" y="637"/>
      <point x="216" y="641"/>
      <point x="192" y="641" type="curve"/>
      <point x="168" y="604"/>
      <point x="103" y="536"/>
    </contour>
    <component base="a"/>
    <contour>
      <point x="212" y="0" type="move" name="bottom"/>
    </contour>
    <contour>
      <point x="381" y="10" type="move" name="ogonek"/>
    </contour>
    <contour>
      <point x="212" y="430" type="move" name="top"/>
    </contour>
  </outline>
</glyph>
<glyph name="d_strok" format="1">
  <advance width="511"/>
  <unicode hex="0111"/>
  <outline>
    <contour>
      <point x="253" y="458" type="curve"/>
      <point x="277" y="436" type="line"/>
      <point x="356" y="500"/>
      <point x="453" y="603"/>
      <point x="453" y="617" type="curve"/>
      <point x="453" y="681"/>
      <point x="418" y="720"/>
      <point x="369" y="720" type="curve"/>
      <point x="345" y="720"/>
      <point x="284" y="672"/>
      <point x="236" y="643" type="curve"/>
      <point x="244" y="626" type="line"/>
      <point x="256" y="629"/>
      <point x="281" y="636"/>
      <point x="299" y="636" type="curve"/>
      <point x="322" y="636"/>
      <point x="341" y="619"/>
      <point x="341" y="589" type="curve"/>
      <point x="341" y="543"/>
      <point x="283" y="487"/>
    </contour>
    <component base="d.ss01"/>
    <contour>
      <point x="256" y="0" type="move" name="bottom"/>
    </contour>
    <contour>
      <point x="256" y="215" type="move" name="center"/>
    </contour>
    <contour>
      <point x="256" y="430" type="move" name="top"/>
    </contour>
    <contour>
      <point x="491" y="430" type="move" name="topright"/>
    </contour>
  </outline>
</glyph>
<glyph name="e_macr" format="1">
  <advance width="401"/>
  <unicode hex="0113"/>
  <outline>
    <contour>
      <point x="72" y="536" type="curve"/>
      <point x="101" y="525" type="line"/>
      <point x="120" y="537"/>
      <point x="156" y="550"/>
      <point x="181" y="550" type="curve"/>
      <point x="208" y="550"/>
      <point x="276" y="543"/>
      <point x="304" y="543" type="curve"/>
      <point x="319" y="543"/>
      <point x="360" y="604"/>
      <point x="389" y="636" type="curve"/>
      <point x="356" y="645" type="line"/>
      <point x="340" y="639"/>
      <point x="325" y="637"/>
      <point x="300" y="637" type="curve"/>
      <point x="273" y="637"/>
      <point x="208" y="641"/>
      <point x="180" y="641" type="curve"/>
      <point x="166" y="641"/>
      <point x="103" y="568"/>
    </contour>
    <component base="e"/>
    <contour>
      <point x="189" y="0" type="move" name="bottom"/>
    </contour>
    <contour>
      <point x="339" y="10" type="move" name="ogonek"/>
    </contour>
    <contour>
      <point x="189" y="430" type="move" name="top"/>
    </contour>
  </outline>
</glyph>
<glyph name="o_macr" format="1">
  <advance width="453"/>
  <unicode hex="014D"/>
  <outline>
    <contour>
      <point x="90" y="559" type="curve"/>
      <point x="118" y="550" type="line"/>
      <point x="135" y="564"/>
      <point x="169" y="579"/>
      <point x="193" y="581" type="curve"/>
      <point x="219" y="582"/>
      <point x="285" y="580"/>
      <point x="312" y="582" type="curve"/>
      <point x="326" y="583"/>
      <point x="361" y="647"/>
      <point x="386" y="680" type="curve"/>
      <point x="355" y="687" type="line"/>
      <point x="339" y="680"/>
      <point x="325" y="677"/>
      <point x="301" y="675" type="curve"/>
      <point x="275" y="674"/>
      <point x="212" y="673"/>
      <point x="186" y="671" type="curve"/>
      <point x="172" y="670"/>
      <point x="116" y="593"/>
    </contour>
    <component base="o"/>
    <contour>
      <point x="227" y="0" type="move" name="bottom"/>
    </contour>
    <contour>
      <point x="227" y="215" type="move" name="center"/>
    </contour>
    <contour>
      <point x="408" y="10" type="move" name="ogonek"/>
    </contour>
    <contour>
      <point x="227" y="430" type="move" name="top"/>
    </contour>
    <contour>
      <point x="433" y="430" type="move" name="topright"/>
    </contour>
  </outline>
</glyph>
<glyph name="u_macr" format="1">
  <advance width="464"/>
  <unicode hex="016B"/>
  <outline>
    <contour>
      <point x="126" y="-20" type="curve"/>
      <point x="172" y="-20"/>
      <point x="243" y="43"/>
      <point x="286" y="62" type="curve"/>
      <point x="289" y="49" type="line" smooth="yes"/>
      <point x="297" y="16"/>
      <point x="322" y="-20"/>
      <point x="361" y="-20" type="curve"/>
      <point x="382" y="-20"/>
      <point x="444" y="41"/>
      <point x="459" y="58" type="curve"/>
      <point x="457" y="81" type="line"/>
      <point x="427" y="80"/>
      <point x="397" y="88"/>
      <point x="396" y="124" type="curve"/>
      <point x="393" y="220"/>
      <point x="394" y="343"/>
      <point x="400" y="450" type="curve"/>
      <point x="394" y="452" type="line"/>
      <point x="275" y="396" type="line"/>
      <point x="284" y="313"/>
      <point x="281" y="187"/>
      <point x="281" y="104" type="curve"/>
      <point x="265" y="90"/>
      <point x="244" y="73"/>
      <point x="219" y="73" type="curve"/>
      <point x="185" y="73"/>
      <point x="171" y="103"/>
      <point x="172" y="134" type="curve"/>
      <point x="174" y="239"/>
      <point x="166" y="327"/>
      <point x="179" y="448" type="curve"/>
      <point x="173" y="452" type="line"/>
      <point x="60" y="396" type="line"/>
      <point x="60" y="65" type="line" smooth="yes"/>
      <point x="60" y="28"/>
      <point x="75" y="-20"/>
    </contour>
    <contour>
      <point x="99" y="591" type="curve"/>
      <point x="127" y="582" type="line"/>
      <point x="144" y="596"/>
      <point x="177" y="611"/>
      <point x="201" y="613" type="curve"/>
      <point x="226" y="614"/>
      <point x="292" y="612"/>
      <point x="318" y="614" type="curve"/>
      <point x="332" y="615"/>
      <point x="367" y="678"/>
      <point x="392" y="712" type="curve"/>
      <point x="360" y="719" type="line"/>
      <point x="345" y="712"/>
      <point x="331" y="709"/>
      <point x="307" y="707" type="curve"/>
      <point x="282" y="705"/>
      <point x="220" y="705"/>
      <point x="193" y="703" type="curve"/>
      <point x="180" y="702"/>
      <point x="125" y="625"/>
    </contour>
    <contour>
      <point x="232" y="0" type="move" name="bottom"/>
    </contour>
    <contour>
      <point x="418" y="10" type="move" name="ogonek"/>
    </contour>
    <contour>
      <point x="232" y="430" type="move" name="top"/>
    </contour>
    <contour>
      <point x="444" y="430" type="move" name="topright"/>
    </contour>
  </outline>
</glyph>
<glyph name="a_hook" format="1">
  <advance width="423"/>
  <unicode hex="1EA3"/>
  <outline>
    <contour>
      <point x="198" y="487" type="curve"/>
      <point x="218" y="470" type="line"/>
      <point x="297" y="534"/>
      <point x="328" y="553"/>
      <point x="348" y="567" type="curve"/>
      <point x="386" y="632"/>
      <point x="356" y="700"/>
      <point x="293" y="721" type="curve"/>
      <point x="287" y="721" type="line"/>
      <point x="189" y="661" type="line"/>
      <point x="189" y="642" type="line"/>
      <point x="224" y="634"/>
      <point x="246" y="619"/>
      <point x="246" y="580" type="curve"/>
      <point x="246" y="544"/>
      <point x="228" y="516"/>
    </contour>
    <component base="a"/>
    <contour>
      <point x="212" y="0" type="move" name="bottom"/>
    </contour>
    <contour>
      <point x="381" y="10" type="move" name="ogonek"/>
    </contour>
    <contour>
      <point x="212" y="430" type="move" name="top"/>
    </contour>
  </outline>
</glyph>
<glyph name="p_bardes" format="1">
  <advance width="534"/>
  <unicode hex="A750"/>
  <outline>
    <contour>
      <point x="94" y="-160" type="curve"/>
      <point x="15" y="-236" type="line"/>
      <point x="15" y="-251" type="line"/>
      <point x="143" y="-242"/>
      <point x="230" y="-243"/>
      <point x="378" y="-244" type="curve"/>
      <point x="433" y="-185" type="line"/>
      <point x="433" y="-166" type="line"/>
      <point x="310" y="-166"/>
      <point x="217" y="-170"/>
    </contour>
    <component base="p" xOffset="10"/>
    <contour>
      <point x="98" y="0" type="move" name="bottom_1"/>
    </contour>
    <contour>
      <point x="274" y="0" type="move" name="bottom_2"/>
    </contour>
    <contour>
      <point x="450" y="0" type="move" name="bottom_3"/>
    </contour>
    <contour>
      <point x="186" y="0" type="move" name="caret_1"/>
    </contour>
    <contour>
      <point x="362" y="0" type="move" name="caret_2"/>
    </contour>
    <contour>
      <point x="98" y="430" type="move" name="top_1"/>
    </contour>
    <contour>
      <point x="274" y="430" type="move" name="top_2"/>
    </contour>
    <contour>
      <point x="450" y="430" type="move" name="top_3"/>
    </contour>
  </outline>
</glyph>
<glyph name="p_flour" format="1">
  <advance width="528"/>
  <unicode hex="A753"/>
  <outline>
    <contour>
      <point x="-45" y="-218" type="curve"/>
      <point x="-39" y="-218"/>
      <point x="53" y="-181"/>
      <point x="78" y="-181" type="curve"/>
      <point x="78" y="-147" type="line"/>
      <point x="62" y="-161"/>
      <point x="45" y="-165"/>
      <point x="29" y="-165" type="curve"/>
      <point x="-13" y="-165"/>
      <point x="-41" y="-127"/>
      <point x="-41" y="-81" type="curve"/>
      <point x="-41" y="-31"/>
      <point x="3" y="9"/>
      <point x="31" y="9" type="curve"/>
      <point x="40" y="9"/>
      <point x="66" y="-3"/>
      <point x="82" y="-11" type="curve"/>
      <point x="98" y="6" type="line"/>
      <point x="72" y="117" type="line"/>
      <point x="54" y="47"/>
      <point x="-117" y="-21"/>
      <point x="-117" y="-124" type="curve"/>
      <point x="-117" y="-179"/>
      <point x="-76" y="-218"/>
    </contour>
    <component base="p"/>
    <contour>
      <point x="264" y="0" type="move" name="bottom"/>
    </contour>
    <contour>
      <point x="264" y="430" type="move" name="top"/>
    </contour>
  </outline>
</glyph>
<glyph name="con" format="1">
  <advance width="600"/>
  <unicode hex="A76F"/>
  <outline>
    <contour>
      <point x="253" y="-16" type="curve"/>
      <point x="321" y="-16"/>
      <point x="493" y="68"/>
      <point x="493" y="272" type="curve"/>
      <point x="493" y="417"/>
      <point x="397" y="450"/>
      <point x="309" y="450" type="curve"/>
      <point x="221" y="450"/>
      <point x="138" y="382"/>
      <point x="89" y="286" type="curve"/>
      <point x="102" y="258"/>
      <point x="128" y="229"/>
      <point x="128" y="201" type="curve"/>
      <point x="128" y="169"/>
      <point x="111" y="155"/>
      <point x="105" y="145" type="curve"/>
      <point x="133" y="127" type="line"/>
      <point x="157" y="163"/>
      <point x="218" y="202"/>
      <point x="218" y="252" type="curve"/>
      <point x="218" y="297"/>
      <point x="184" y="322"/>
      <point x="180" y="333" type="curve"/>
      <point x="206" y="345"/>
      <point x="243" y="353"/>
      <point x="298" y="353" type="curve"/>
      <point x="397" y="353"/>
      <point x="441" y="276"/>
      <point x="441" y="211" type="curve"/>
      <point x="441" y="128"/>
      <point x="358" y="66"/>
      <point x="302" y="66" type="curve"/>
      <point x="271" y="66"/>
      <point x="258" y="101"/>
      <point x="244" y="117" type="curve"/>
      <point x="211" y="107"/>
      <point x="161" y="77"/>
      <point x="138" y="49" type="curve"/>
      <point x="161" y="28"/>
      <point x="210" y="-16"/>
    </contour>
  </outline>
</glyph>
<glyph name="rum" format="1">
  <advance width="692"/>
  <unicode hex="A775"/>
  <outline>
    <contour>
      <point x="525" y="-19" type="curve"/>
      <point x="566" y="14"/>
      <point x="643" y="92"/>
      <point x="675" y="138" type="curve"/>
      <point x="677" y="173"/>
      <point x="666" y="195"/>
      <point x="644" y="211" type="curve"/>
      <point x="616" y="175" type="line"/>
      <point x="635" y="165"/>
      <point x="644" y="145"/>
      <point x="643" y="135" type="curve"/>
      <point x="623" y="109"/>
      <point x="588" y="97"/>
      <point x="547" y="97" type="curve"/>
      <point x="487" y="97"/>
      <point x="438" y="149"/>
      <point x="371" y="149" type="curve"/>
      <point x="288" y="149"/>
      <point x="192" y="111"/>
      <point x="114" y="79" type="curve"/>
      <point x="122" y="76" type="line"/>
      <point x="168" y="111"/>
      <point x="255" y="263"/>
      <point x="255" y="324" type="curve"/>
      <point x="255" y="402"/>
      <point x="213" y="449"/>
      <point x="142" y="449" type="curve"/>
      <point x="129" y="449"/>
      <point x="73" y="403"/>
      <point x="20" y="356" type="curve"/>
      <point x="30" y="331" type="line"/>
      <point x="98" y="357"/>
      <point x="151" y="335"/>
      <point x="151" y="242" type="curve"/>
      <point x="151" y="132"/>
      <point x="39" y="24"/>
      <point x="21" y="2" type="curve"/>
      <point x="44" y="-18" type="line"/>
      <point x="138" y="40"/>
      <point x="246" y="36"/>
      <point x="361" y="36" type="curve"/>
      <point x="405" y="36"/>
      <point x="507" y="-18"/>
    </contour>
    <contour>
      <point x="202" y="-180" type="curve"/>
      <point x="271" y="-180" type="line"/>
      <point x="300" y="-115"/>
      <point x="363" y="16"/>
      <point x="394" y="72" type="curve"/>
      <point x="351" y="76" type="line"/>
      <point x="300" y="-24"/>
      <point x="247" y="-115"/>
    </contour>
    <contour>
      <point x="378" y="143" type="curve"/>
      <point x="418" y="130" type="line"/>
      <point x="467" y="232"/>
      <point x="540" y="361"/>
      <point x="540" y="368" type="curve"/>
      <point x="540" y="377"/>
      <point x="441" y="450"/>
      <point x="432" y="450" type="curve"/>
      <point x="425" y="450"/>
      <point x="301" y="365"/>
      <point x="234" y="338" type="curve"/>
      <point x="236" y="288" type="line"/>
      <point x="265" y="319"/>
      <point x="303" y="341"/>
      <point x="342" y="341" type="curve"/>
      <point x="386" y="341"/>
      <point x="430" y="313"/>
      <point x="430" y="267" type="curve"/>
      <point x="430" y="229"/>
      <point x="389" y="157"/>
    </contour>
  </outline>
</glyph>
<glyph name="m_macr" format="1">
  <advance width="676"/>
  <unicode hex="E5B8"/>
  <outline>
    <contour>
      <point x="229" y="536" type="curve"/>
      <point x="254" y="525" type="line"/>
      <point x="270" y="537"/>
      <point x="301" y="550"/>
      <point x="323" y="550" type="curve"/>
      <point x="346" y="550"/>
      <point x="405" y="543"/>
      <point x="429" y="543" type="curve"/>
      <point x="442" y="543"/>
      <point x="477" y="604"/>
      <point x="502" y="636" type="curve"/>
      <point x="474" y="645" type="line"/>
      <point x="460" y="639"/>
      <point x="447" y="637"/>
      <point x="425" y="637" type="curve"/>
      <point x="402" y="637"/>
      <point x="346" y="641"/>
      <point x="322" y="641" type="curve"/>
      <point x="310" y="641"/>
      <point x="255" y="568"/>
    </contour>
    <component base="m"/>
    <contour>
      <point x="338" y="0" type="move" name="bottom"/>
    </contour>
    <contour>
      <point x="338" y="430" type="move" name="top"/>
    </contour>
  </outline>
</glyph>
<glyph name="p_macr" format="1">
  <advance width="524"/>
  <unicode hex="E665"/>
  <outline>
    <contour>
      <point x="16" y="555" type="curve"/>
      <point x="48" y="546" type="line"/>
      <point x="66" y="559"/>
      <point x="103" y="574"/>
      <point x="130" y="576" type="curve"/>
      <point x="157" y="577"/>
      <point x="230" y="575"/>
      <point x="259" y="576" type="curve"/>
      <point x="275" y="577"/>
      <point x="312" y="640"/>
      <point x="340" y="674" type="curve"/>
      <point x="305" y="681" type="line"/>
      <point x="289" y="674"/>
      <point x="273" y="671"/>
      <point x="246" y="670" type="curve"/>
      <point x="218" y="668"/>
      <point x="150" y="668"/>
      <point x="121" y="667" type="curve"/>
      <point x="106" y="666"/>
      <point x="45" y="589"/>
    </contour>
    <component base="p"/>
    <contour>
      <point x="256" y="0" type="move" name="bottom"/>
    </contour>
    <contour>
      <point x="256" y="430" type="move" name="top"/>
    </contour>
  </outline>
</glyph>
<glyph name="q_etfin" format="1">
  <advance width="771"/>
  <unicode hex="E8BF"/>
  <outline>
    <contour>
      <point x="550" y="-139" type="curve"/>
      <point x="628" y="-94"/>
      <point x="766" y="-7"/>
      <point x="766" y="112" type="curve"/>
      <point x="766" y="217"/>
      <point x="680" y="274"/>
      <point x="580" y="271" type="curve"/>
      <point x="588" y="254" type="line"/>
      <point x="630" y="308"/>
      <point x="663" y="333"/>
      <point x="707" y="365" type="curve"/>
      <point x="714" y="416"/>
      <point x="655" y="479"/>
      <point x="586" y="489" type="curve"/>
      <point x="552" y="459"/>
      <point x="500" y="423"/>
      <point x="437" y="385" type="curve"/>
      <point x="458" y="353" type="line"/>
      <point x="481" y="375"/>
      <point x="501" y="387"/>
      <point x="524" y="387" type="curve"/>
      <point x="554" y="387"/>
      <point x="589" y="365"/>
      <point x="589" y="331" type="curve"/>
      <point x="589" y="295"/>
      <point x="573" y="274"/>
      <point x="494" y="204" type="curve"/>
      <point x="502" y="183" type="line"/>
      <point x="608" y="200"/>
      <point x="678" y="138"/>
      <point x="682" y="59" type="curve"/>
      <point x="685" y="1"/>
      <point x="653" y="-36"/>
      <point x="620" y="-49" type="curve"/>
      <point x="595" y="-49"/>
      <point x="570" y="-37"/>
      <point x="551" y="-13" type="curve"/>
      <point x="530" y="-23"/>
      <point x="508" y="-51"/>
      <point x="497" y="-69" type="curve"/>
      <point x="494" y="-93"/>
      <point x="520" y="-130"/>
    </contour>
    <component base="q"/>
    <contour>
      <point x="202" y="0" type="move" name="bottom_1"/>
    </contour>
    <contour>
      <point x="605" y="0" type="move" name="bottom_2"/>
    </contour>
    <contour>
      <point x="403.5" y="0" type="move" name="caret_1"/>
    </contour>
    <contour>
      <point x="202" y="430" type="move" name="top_1"/>
    </contour>
    <contour>
      <point x="605" y="430" type="move" name="top_2"/>
    </contour>
  </outline>
</glyph>
<glyph name="p_p_flour" format="1">
  <advance width="784"/>
  <unicode hex="EED7"/>
  <outline>
    <contour>
      <point x="-43" y="-218" type="curve"/>
      <point x="-37" y="-218"/>
      <point x="55" y="-181"/>
      <point x="80" y="-181" type="curve"/>
      <point x="80" y="-147" type="line"/>
      <point x="64" y="-161"/>
      <point x="47" y="-165"/>
      <point x="31" y="-165" type="curve"/>
      <point x="-11" y="-165"/>
      <point x="-39" y="-127"/>
      <point x="-39" y="-81" type="curve"/>
      <point x="-39" y="-31"/>
      <point x="5" y="9"/>
      <point x="33" y="9" type="curve"/>
      <point x="42" y="9"/>
      <point x="68" y="-3"/>
      <point x="84" y="-11" type="curve"/>
      <point x="100" y="6" type="line"/>
      <point x="74" y="117" type="line"/>
      <point x="56" y="47"/>
      <point x="-115" y="-21"/>
      <point x="-115" y="-124" type="curve"/>
      <point x="-115" y="-179"/>
      <point x="-74" y="-218"/>
    </contour>
    <component base="p_p"/>
    <contour>
      <point x="131" y="0" type="move" name="bottom_1"/>
    </contour>
    <contour>
      <point x="394" y="0" type="move" name="bottom_2"/>
    </contour>
    <contour>
      <point x="657" y="0" type="move" name="bottom_3"/>
    </contour>
    <contour>
      <point x="262.667" y="0" type="move" name="caret_1"/>
    </contour>
    <contour>
      <point x="525.333" y="0" type="move" name="caret_2"/>
    </contour>
    <contour>
      <point x="131" y="430" type="move" name="top_1"/>
    </contour>
    <contour>
      <point x="394" y="430" type="move" name="top_2"/>
    </contour>
    <contour>
      <point x="657" y="430" type="move" name="top_3"/>
    </contour>
  </outline>
</glyph>
<glyph name="Q.ss01" format="1">
  <advance width="870"/>
  <outline>
    <contour>
      <point x="694" y="-20" type="curve"/>
      <point x="703" y="-20"/>
      <point x="749" y="41"/>
      <point x="810" y="82" type="curve"/>
      <point x="795" y="106" type="line"/>
      <point x="767" y="99"/>
      <point x="749" y="102"/>
      <point x="725" y="115" type="curve"/>
      <point x="537" y="215" type="line"/>
      <point x="489" y="158"/>
      <point x="426" y="119"/>
      <point x="358" y="119" type="curve"/>
      <point x="223" y="119"/>
      <point x="151" y="248"/>
      <point x="151" y="367" type="curve"/>
      <point x="151" y="544"/>
      <point x="286" y="617"/>
      <point x="396" y="617" type="curve"/>
      <point x="570" y="617"/>
      <point x="662" y="492"/>
      <point x="662" y="388" type="curve"/>
      <point x="662" y="296"/>
      <point x="627" y="224"/>
      <point x="586" y="174" type="curve"/>
      <point x="625" y="156" type="line"/>
      <point x="639" y="185"/>
      <point x="773" y="298"/>
      <point x="778" y="430" type="curve"/>
      <point x="785" y="600"/>
      <point x="683" y="715"/>
      <point x="475" y="715" type="curve"/>
      <point x="327" y="715"/>
      <point x="29" y="546"/>
      <point x="29" y="290" type="curve"/>
      <point x="29" y="115"/>
      <point x="173" y="-8"/>
      <point x="330" y="-18" type="curve"/>
      <point x="387" y="13"/>
      <point x="462" y="69"/>
      <point x="506" y="110" type="curve"/>
      <point x="628" y="31"/>
      <point x="686" y="-20"/>
    </contour>
    <contour>
      <point x="435" y="0" type="move" name="bottom"/>
    </contour>
    <contour>
      <point x="435" y="700" type="move" name="top"/>
    </contour>
  </outline>
</glyph>
<glyph name="Q.ss02" format="1">
  <advance width="677"/>
  <outline>
    <contour>
      <point x="569" y="-18" type="curve"/>
      <point x="597" y="26"/>
      <point x="631" y="67"/>
      <point x="667" y="122" type="curve"/>
      <point x="648" y="132" type="line"/>
      <point x="633" y="111"/>
      <point x="627" y="96"/>
      <point x="602" y="96" type="curve"/>
      <point x="553" y="96"/>
      <point x="551" y="182"/>
      <point x="524" y="244" type="curve"/>
      <point x="507" y="282"/>
      <point x="462" y="313"/>
      <point x="424" y="347" type="curve"/>
      <point x="450" y="383"/>
      <point x="476" y="409"/>
      <point x="503" y="459" type="curve"/>
      <point x="523" y="627"/>
      <point x="443" y="736"/>
      <point x="257" y="713" type="curve"/>
      <point x="223" y="709"/>
      <point x="82" y="600"/>
      <point x="40" y="546" type="curve"/>
      <point x="22" y="496"/>
      <point x="20" y="450"/>
      <point x="20" y="408" type="curve"/>
      <point x="20" y="266"/>
      <point x="128" y="176"/>
      <point x="235" y="153" type="curve"/>
      <point x="270" y="190"/>
      <point x="299" y="222"/>
      <point x="343" y="267" type="curve"/>
      <point x="389" y="237"/>
      <point x="414" y="207"/>
      <point x="426" y="171" type="curve"/>
      <point x="474" y="26"/>
      <point x="483" y="-10"/>
    </contour>
    <contour>
      <point x="291" y="273" type="curve"/>
      <point x="202" y="296"/>
      <point x="126" y="343"/>
      <point x="126" y="459" type="curve"/>
      <point x="126" y="530"/>
      <point x="146" y="604"/>
      <point x="222" y="640" type="curve"/>
      <point x="320" y="640"/>
      <point x="409" y="574"/>
      <point x="409" y="458" type="curve"/>
      <point x="409" y="353"/>
      <point x="337" y="291"/>
    </contour>
    <contour>
      <point x="339" y="0" type="move" name="bottom"/>
    </contour>
    <contour>
      <point x="339" y="700" type="move" name="top"/>
    </contour>
  </outline>
</glyph>
<glyph name="Q.ss03" format="1">
  <advance width="1187"/>
  <outline>
    <contour>
      <point x="923" y="-20" type="curve"/>
      <point x="939" y="-20"/>
      <point x="1070" y="71"/>
      <point x="1157" y="138" type="curve"/>
      <point x="1139" y="160" type="line"/>
      <point x="1076" y="123"/>
      <point x="1044" y="106"/>
      <point x="1008" y="106" type="curve"/>
      <point x="924" y="106"/>
      <point x="740" y="364"/>
      <point x="539" y="364" type="curve"/>
      <point x="478" y="364"/>
      <point x="434" y="361"/>
      <point x="404" y="357" type="curve"/>
      <point x="436" y="424"/>
      <point x="491" y="503"/>
      <point x="494" y="561" type="curve"/>
      <point x="499" y="651"/>
      <point x="422" y="714"/>
      <point x="346" y="714" type="curve"/>
      <point x="295" y="714"/>
      <point x="269" y="704"/>
      <point x="239" y="685" type="curve"/>
      <point x="86" y="542" type="line"/>
      <point x="65" y="517"/>
      <point x="54" y="482"/>
      <point x="54" y="440" type="curve"/>
      <point x="54" y="330"/>
      <point x="134" y="276"/>
      <point x="226" y="256" type="curve"/>
      <point x="248" y="267"/>
      <point x="311" y="344"/>
      <point x="342" y="378" type="curve"/>
      <point x="326" y="390" type="line"/>
      <point x="309" y="381"/>
      <point x="291" y="369"/>
      <point x="274" y="369" type="curve"/>
      <point x="184" y="369"/>
      <point x="158" y="441"/>
      <point x="158" y="498" type="curve"/>
      <point x="158" y="566"/>
      <point x="209" y="610"/>
      <point x="262" y="610" type="curve"/>
      <point x="350" y="610"/>
      <point x="394" y="542"/>
      <point x="394" y="468" type="curve"/>
      <point x="394" y="387"/>
      <point x="348" y="329"/>
      <point x="300" y="252" type="curve"/>
      <point x="308" y="237" type="line"/>
      <point x="342" y="245"/>
      <point x="395" y="255"/>
      <point x="463" y="255" type="curve"/>
      <point x="662" y="255"/>
      <point x="752" y="62"/>
    </contour>
    <contour>
      <point x="594" y="0" type="move" name="bottom"/>
    </contour>
    <contour>
      <point x="594" y="700" type="move" name="top"/>
    </contour>
  </outline>
</glyph>
<glyph name="S.ss01" format="1">
  <advance width="847"/>
  <outline>
    <contour>
      <point x="258" y="-31" type="curve"/>
      <point x="280" y="-57" type="line"/>
      <point x="370" y="19"/>
      <point x="422" y="59"/>
      <point x="447" y="59" type="curve"/>
      <point x="477" y="59"/>
      <point x="515" y="38"/>
      <point x="555" y="-20" type="curve"/>
      <point x="639" y="33"/>
      <point x="694" y="60"/>
      <point x="761" y="100" type="curve"/>
      <point x="820" y="135"/>
      <point x="837" y="196"/>
      <point x="837" y="249" type="curve"/>
      <point x="837" y="384"/>
      <point x="714" y="472"/>
      <point x="593" y="472" type="curve"/>
      <point x="463" y="472"/>
      <point x="357" y="394"/>
      <point x="257" y="394" type="curve"/>
      <point x="155" y="394"/>
      <point x="81" y="491"/>
      <point x="131" y="576" type="curve"/>
      <point x="173" y="567"/>
      <point x="225" y="555"/>
      <point x="278" y="555" type="curve"/>
      <point x="318" y="555"/>
      <point x="385" y="639"/>
      <point x="437" y="698" type="curve"/>
      <point x="415" y="720" type="line"/>
      <point x="369" y="690"/>
      <point x="329" y="672"/>
      <point x="299" y="672" type="curve"/>
      <point x="254" y="672"/>
      <point x="221" y="711"/>
      <point x="205" y="721" type="curve"/>
      <point x="187" y="721"/>
      <point x="20" y="527"/>
      <point x="13" y="462" type="curve"/>
      <point x="7" y="410"/>
      <point x="54" y="276"/>
      <point x="238" y="276" type="curve"/>
      <point x="351" y="276"/>
      <point x="451" y="342"/>
      <point x="555" y="342" type="curve"/>
      <point x="656" y="342"/>
      <point x="722" y="281"/>
      <point x="722" y="208" type="curve"/>
      <point x="722" y="160"/>
      <point x="703" y="108"/>
      <point x="658" y="82" type="curve"/>
      <point x="623" y="126"/>
      <point x="588" y="179"/>
      <point x="538" y="179" type="curve"/>
      <point x="468" y="179"/>
      <point x="360" y="61"/>
    </contour>
    <contour>
      <point x="424" y="0" type="move" name="bottom"/>
    </contour>
    <contour>
      <point x="424" y="700" type="move" name="top"/>
    </contour>
  </outline>
</glyph>
<glyph name="ampersand.ss01" format="1">
  <advance width="432"/>
  <outline>
    <contour>
      <point x="258" y="321" type="curve"/>
      <point x="257" y="0" type="line"/>
      <point x="372" y="0" type="line"/>
      <point x="366" y="143"/>
      <point x="364" y="340"/>
      <point x="382" y="430" type="curve"/>
      <point x="308" y="438"/>
      <point x="215" y="442"/>
      <point x="141" y="442" type="curve"/>
      <point x="52" y="343"/>
      <point x="10" y="275"/>
      <point x="10" y="249" type="curve"/>
      <point x="10" y="182"/>
      <point x="43" y="162"/>
      <point x="83" y="144" type="curve"/>
      <point x="104" y="157"/>
      <point x="130" y="186"/>
      <point x="153" y="209" type="curve"/>
      <point x="124" y="244"/>
      <point x="87" y="300"/>
      <point x="97" y="336" type="curve"/>
      <point x="141" y="333"/>
      <point x="207" y="329"/>
    </contour>
  </outline>
</glyph>
<glyph name="b_e_macr" format="1">
  <advance width="750"/>
  <outline>
    <contour>
      <point x="414" y="570" type="curve"/>
      <point x="444" y="561" type="line"/>
      <point x="488" y="592"/>
      <point x="536" y="579"/>
      <point x="642" y="583" type="curve"/>
      <point x="659" y="604"/>
      <point x="681" y="647"/>
      <point x="704" y="681" type="curve"/>
      <point x="670" y="688" type="line"/>
      <point x="654" y="681"/>
      <point x="639" y="678"/>
      <point x="613" y="676" type="curve"/>
      <point x="586" y="674"/>
      <point x="509" y="674"/>
      <point x="481" y="672" type="curve"/>
      <point x="464" y="651"/>
      <point x="442" y="604"/>
    </contour>
    <component base="b"/>
    <component base="e" xOffset="349"/>
    <contour>
      <point x="121" y="0" type="move" name="bottom_1"/>
    </contour>
    <contour>
      <point x="363" y="0" type="move" name="bottom_2"/>
    </contour>
    <contour>
      <point x="605" y="0" type="move" name="bottom_3"/>
    </contour>
    <contour>
      <point x="242" y="0" type="move" name="caret_1"/>
    </contour>
    <contour>
      <point x="484" y="0" type="move" name="caret_2"/>
    </contour>
    <contour>
      <point x="121" y="430" type="move" name="top_1"/>
    </contour>
    <contour>
      <point x="363" y="430" type="move" name="top_2"/>
    </contour>
    <contour>
      <point x="605" y="430" type="move" name="top_3"/>
    </contour>
  </outline>
</glyph>
<glyph name="b_o" format="1">
  <advance width="791"/>
  <outline>
    <contour>
      <point x="180" y="-20" type="curve"/>
      <point x="198" y="-20"/>
      <point x="343" y="47"/>
      <point x="403" y="85" type="curve"/>
      <point x="425" y="99"/>
      <point x="463" y="180"/>
      <point x="463" y="260" type="curve"/>
      <point x="463" y="327"/>
      <point x="378" y="450"/>
      <point x="305" y="450" type="curve"/>
      <point x="295" y="450"/>
      <point x="206" y="379"/>
      <point x="157" y="343" type="curve"/>
      <point x="158" y="314" type="line"/>
      <point x="177" y="325"/>
      <point x="203" y="333"/>
      <point x="235" y="333" type="curve"/>
      <point x="301" y="333"/>
      <point x="359" y="294"/>
      <point x="359" y="213" type="curve"/>
      <point x="359" y="141"/>
      <point x="315" y="69"/>
      <point x="258" y="69" type="curve"/>
      <point x="211" y="69"/>
      <point x="168" y="105"/>
      <point x="158" y="131" type="curve"/>
      <point x="158" y="177"/>
      <point x="159" y="286"/>
      <point x="174" y="330" type="curve"/>
      <point x="163" y="340" type="line"/>
      <point x="172" y="718" type="line"/>
      <point x="164" y="722" type="line"/>
      <point x="48" y="670" type="line"/>
      <point x="48" y="590"/>
      <point x="48" y="545"/>
      <point x="48" y="464" type="curve"/>
      <point x="48" y="426"/>
      <point x="23" y="370"/>
      <point x="10" y="336" type="curve"/>
      <point x="10" y="328" type="line"/>
      <point x="23" y="320"/>
      <point x="48" y="304"/>
      <point x="48" y="270" type="curve"/>
      <point x="48" y="69" type="line" smooth="yes"/>
      <point x="48" y="52"/>
      <point x="169" y="-20"/>
    </contour>
    <contour>
      <point x="633" y="71" type="curve"/>
      <point x="549" y="70"/>
      <point x="476" y="118"/>
      <point x="476" y="228" type="curve"/>
      <point x="476" y="272"/>
      <point x="485" y="313"/>
      <point x="508" y="341" type="curve"/>
      <point x="568" y="351"/>
      <point x="677" y="311"/>
      <point x="677" y="202" type="curve"/>
      <point x="677" y="142"/>
      <point x="658" y="103"/>
    </contour>
    <contour>
      <point x="548" y="-21" type="curve"/>
      <point x="615" y="9"/>
      <point x="700" y="54"/>
      <point x="735" y="90" type="curve"/>
      <point x="765" y="121"/>
      <point x="776" y="204"/>
      <point x="776" y="240" type="curve"/>
      <point x="776" y="391"/>
      <point x="657" y="440"/>
      <point x="594" y="450" type="curve"/>
      <point x="577" y="450"/>
      <point x="440" y="333"/>
      <point x="412" y="312" type="curve"/>
      <point x="385" y="291"/>
      <point x="362" y="253"/>
      <point x="362" y="195" type="curve"/>
      <point x="362" y="80"/>
      <point x="475" y="-11"/>
    </contour>
    <contour>
      <point x="192" y="0" type="move" name="bottom_1"/>
    </contour>
    <contour>
      <point x="595" y="0" type="move" name="bottom_2"/>
    </contour>
    <contour>
      <point x="393" y="0" type="move" name="caret_1"/>
    </contour>
    <contour>
      <point x="192" y="430" type="move" name="top_1"/>
    </contour>
    <contour>
      <point x="595" y="430" type="move" name="top_2"/>
    </contour>
  </outline>
</glyph>
<glyph name="b_s" format="1">
  <advance width="798"/>
  <outline>
    <contour>
      <point x="600" y="-10" type="curve"/>
      <point x="605" y="-10" type="line"/>
      <point x="700" y="56"/>
      <point x="783" y="196"/>
      <point x="783" y="246" type="curve"/>
      <point x="783" y="361"/>
      <point x="694" y="451"/>
      <point x="589" y="451" type="curve"/>
      <point x="433" y="318" type="line"/>
      <point x="452" y="298" type="line"/>
      <point x="482" y="318"/>
      <point x="533" y="331"/>
      <point x="571" y="331" type="curve"/>
      <point x="636" y="331"/>
      <point x="696" y="283"/>
      <point x="696" y="208" type="curve"/>
      <point x="696" y="143"/>
      <point x="666" y="114"/>
      <point x="630" y="89" type="curve"/>
      <point x="482" y="99" type="line"/>
      <point x="440" y="9" type="line"/>
      <point x="445" y="0" type="line"/>
      <point x="497" y="2"/>
      <point x="548" y="-2"/>
    </contour>
    <component base="b"/>
  </outline>
</glyph>
<glyph name="blason" format="1">
  <advance width="1443"/>
  <outline>
    <contour>
      <point x="405" y="-101" type="curve"/>
      <point x="519" y="-101"/>
      <point x="596" y="-30"/>
      <point x="652" y="44" type="curve"/>
      <point x="655" y="47"/>
      <point x="655" y="49"/>
      <point x="650" y="50" type="curve"/>
      <point x="601" y="76"/>
      <point x="578" y="127"/>
      <point x="578" y="180" type="curve"/>
      <point x="578" y="270"/>
      <point x="652" y="342"/>
      <point x="730" y="423" type="curve"/>
      <point x="804" y="385"/>
      <point x="877" y="321"/>
      <point x="877" y="239" type="curve"/>
      <point x="877" y="173"/>
      <point x="824" y="97"/>
      <point x="769" y="67" type="curve"/>
      <point x="766" y="66"/>
      <point x="763" y="63"/>
      <point x="765" y="60" type="curve"/>
      <point x="833" y="-25"/>
      <point x="942" y="-88"/>
      <point x="1049" y="-88" type="curve"/>
      <point x="1241" y="-88"/>
      <point x="1343" y="8"/>
      <point x="1343" y="222" type="curve"/>
      <point x="1343" y="368"/>
      <point x="1290" y="449"/>
      <point x="1290" y="568" type="curve"/>
      <point x="1290" y="613"/>
      <point x="1303" y="657"/>
      <point x="1331" y="694" type="curve"/>
      <point x="1335" y="697"/>
      <point x="1329" y="700"/>
      <point x="1323" y="700" type="curve"/>
      <point x="1321" y="700"/>
      <point x="1318" y="699"/>
      <point x="1316" y="697" type="curve"/>
      <point x="1183" y="536"/>
      <point x="1011" y="418"/>
      <point x="834" y="418" type="curve"/>
      <point x="800" y="418"/>
      <point x="769" y="418"/>
      <point x="740" y="438" type="curve"/>
      <point x="781" y="483"/>
      <point x="791" y="519"/>
      <point x="791" y="581" type="curve"/>
      <point x="789" y="616"/>
      <point x="782" y="645"/>
      <point x="765" y="665" type="curve"/>
      <point x="810" y="716" type="line"/>
      <point x="810" y="716"/>
      <point x="788" y="732"/>
      <point x="768" y="732" type="curve"/>
      <point x="761" y="732"/>
      <point x="752" y="731"/>
      <point x="747" y="726" type="curve"/>
      <point x="715" y="688" type="line"/>
      <point x="669" y="688"/>
      <point x="631" y="648"/>
      <point x="631" y="591" type="curve"/>
      <point x="631" y="530"/>
      <point x="660" y="474"/>
      <point x="718" y="436" type="curve"/>
      <point x="689" y="410"/>
      <point x="655" y="395"/>
      <point x="614" y="395" type="curve"/>
      <point x="476" y="395"/>
      <point x="302" y="554"/>
      <point x="210" y="683" type="curve"/>
      <point x="209" y="685"/>
      <point x="204" y="688"/>
      <point x="200" y="688" type="curve"/>
      <point x="193" y="688"/>
      <point x="192" y="685"/>
      <point x="192" y="683" type="curve"/>
      <point x="192" y="681"/>
      <point x="192" y="680"/>
      <point x="192" y="680" type="curve"/>
      <point x="201" y="651"/>
      <point x="206" y="622"/>
      <point x="209" y="590" type="curve"/>
      <point x="212" y="548"/>
      <point x="200" y="504"/>
      <point x="171" y="433" type="curve"/>
      <point x="150" y="372"/>
      <point x="103" y="298"/>
      <point x="103" y="188" type="curve"/>
      <point x="103" y="20"/>
      <point x="213" y="-101"/>
    </contour>
    <contour>
      <point x="467" y="-39" type="curve"/>
      <point x="460" y="-39"/>
      <point x="459" y="-33"/>
      <point x="457" y="-28" type="curve"/>
      <point x="374" y="137" type="line"/>
      <point x="408" y="185" type="line"/>
      <point x="474" y="50" type="line"/>
      <point x="474" y="50"/>
      <point x="477" y="44"/>
      <point x="482" y="44" type="curve"/>
      <point x="491" y="44"/>
      <point x="505" y="62"/>
      <point x="505" y="62" type="curve"/>
      <point x="506" y="66"/>
      <point x="511" y="67"/>
      <point x="514" y="67" type="curve"/>
      <point x="517" y="67"/>
      <point x="521" y="66"/>
      <point x="521" y="56" type="curve"/>
      <point x="521" y="50"/>
      <point x="518" y="44"/>
      <point x="518" y="44" type="curve"/>
      <point x="477" y="-30" type="line"/>
      <point x="477" y="-30"/>
      <point x="474" y="-39"/>
    </contour>
    <contour>
      <point x="255" y="8" type="curve"/>
      <point x="248" y="8"/>
      <point x="245" y="17"/>
      <point x="245" y="17" type="curve"/>
      <point x="218" y="80" type="line"/>
      <point x="216" y="85"/>
      <point x="215" y="89"/>
      <point x="215" y="92" type="curve"/>
      <point x="215" y="97"/>
      <point x="218" y="97"/>
      <point x="219" y="97" type="curve"/>
      <point x="224" y="97"/>
      <point x="229" y="92"/>
      <point x="229" y="92" type="curve"/>
      <point x="244" y="82" type="line"/>
      <point x="244" y="82"/>
      <point x="252" y="74"/>
      <point x="257" y="85" type="curve"/>
      <point x="463" y="370" type="line"/>
      <point x="463" y="370"/>
      <point x="471" y="378"/>
      <point x="476" y="378" type="curve"/>
      <point x="482" y="378"/>
      <point x="485" y="370"/>
      <point x="488" y="364" type="curve"/>
      <point x="489" y="358"/>
      <point x="515" y="290"/>
      <point x="515" y="290" type="curve"/>
      <point x="515" y="290"/>
      <point x="517" y="284"/>
      <point x="517" y="278" type="curve"/>
      <point x="517" y="275"/>
      <point x="517" y="272"/>
      <point x="515" y="270" type="curve"/>
      <point x="509" y="268"/>
      <point x="499" y="279"/>
      <point x="499" y="279" type="curve"/>
      <point x="482" y="298" type="line"/>
      <point x="482" y="298"/>
      <point x="479" y="301"/>
      <point x="473" y="301" type="curve"/>
      <point x="471" y="301"/>
      <point x="469" y="299"/>
      <point x="463" y="295" type="curve"/>
      <point x="457" y="282"/>
      <point x="264" y="14"/>
      <point x="264" y="14" type="curve"/>
      <point x="264" y="11"/>
      <point x="261" y="8"/>
    </contour>
    <contour>
      <point x="284" y="440" type="curve"/>
      <point x="370" y="266" type="line"/>
      <point x="335" y="220" type="line"/>
      <point x="274" y="346" type="line"/>
      <point x="274" y="346"/>
      <point x="272" y="353"/>
      <point x="267" y="353" type="curve"/>
      <point x="266" y="353"/>
      <point x="264" y="352"/>
      <point x="261" y="350" type="curve"/>
      <point x="255" y="346"/>
      <point x="238" y="324"/>
      <point x="238" y="324" type="curve"/>
      <point x="229" y="318"/>
      <point x="225" y="323"/>
      <point x="225" y="327" type="curve"/>
      <point x="225" y="329"/>
      <point x="226" y="330"/>
      <point x="226" y="330" type="curve"/>
      <point x="264" y="439" type="line"/>
      <point x="264" y="439"/>
      <point x="267" y="455"/>
      <point x="273" y="455" type="curve"/>
      <point x="280" y="455"/>
      <point x="280" y="449"/>
    </contour>
    <contour>
      <point x="403" y="-71" type="curve"/>
      <point x="499" y="-71"/>
      <point x="566" y="-17"/>
      <point x="614" y="40" type="curve"/>
      <point x="614" y="40"/>
      <point x="547" y="89"/>
      <point x="547" y="178" type="curve"/>
      <point x="547" y="249"/>
      <point x="591" y="323"/>
      <point x="644" y="370" type="curve"/>
      <point x="633" y="368"/>
      <point x="624" y="365"/>
      <point x="613" y="365" type="curve"/>
      <point x="415" y="365"/>
      <point x="241" y="591"/>
      <point x="241" y="591" type="curve"/>
      <point x="241" y="591"/>
      <point x="242" y="510"/>
      <point x="218" y="445" type="curve"/>
      <point x="186" y="358"/>
      <point x="139" y="296"/>
      <point x="139" y="188" type="curve"/>
      <point x="139" y="41"/>
      <point x="239" y="-71"/>
    </contour>
    <contour>
      <point x="405" y="-85" type="curve"/>
      <point x="235" y="-85"/>
      <point x="123" y="21"/>
      <point x="123" y="189" type="curve"/>
      <point x="123" y="296"/>
      <point x="155" y="337"/>
      <point x="189" y="427" type="curve"/>
      <point x="221" y="510"/>
      <point x="228" y="552"/>
      <point x="226" y="591" type="curve"/>
      <point x="225" y="610"/>
      <point x="224" y="625"/>
      <point x="221" y="639" type="curve"/>
      <point x="321" y="516"/>
      <point x="470" y="382"/>
      <point x="611" y="382" type="curve"/>
      <point x="636" y="382"/>
      <point x="657" y="384"/>
      <point x="678" y="392" type="curve"/>
      <point x="611" y="320"/>
      <point x="563" y="263"/>
      <point x="563" y="180" type="curve"/>
      <point x="563" y="125"/>
      <point x="585" y="73"/>
      <point x="634" y="44" type="curve"/>
      <point x="578" y="-24"/>
      <point x="508" y="-85"/>
    </contour>
    <contour>
      <point x="392" y="614" type="curve"/>
      <point x="371" y="614"/>
      <point x="352" y="616"/>
      <point x="347" y="619" type="curve"/>
      <point x="338" y="626"/>
      <point x="352" y="635"/>
      <point x="352" y="635" type="curve"/>
      <point x="432" y="671" type="line"/>
      <point x="432" y="671"/>
      <point x="448" y="681"/>
      <point x="460" y="681" type="curve"/>
      <point x="467" y="681"/>
      <point x="473" y="680"/>
      <point x="474" y="671" type="curve"/>
      <point x="482" y="654"/>
      <point x="447" y="626"/>
      <point x="431" y="619" type="curve"/>
      <point x="422" y="616"/>
      <point x="408" y="614"/>
    </contour>
    <contour>
      <point x="622" y="574" type="curve"/>
      <point x="621" y="580"/>
      <point x="619" y="588"/>
      <point x="619" y="604" type="curve"/>
      <point x="619" y="622"/>
      <point x="634" y="649"/>
      <point x="634" y="649" type="curve"/>
      <point x="530" y="652"/>
      <point x="485" y="694"/>
      <point x="485" y="694" type="curve"/>
      <point x="476" y="700"/>
      <point x="469" y="703"/>
      <point x="460" y="703" type="curve"/>
      <point x="450" y="703"/>
      <point x="438" y="694"/>
      <point x="438" y="694" type="curve"/>
      <point x="311" y="629" type="line"/>
      <point x="306" y="626"/>
      <point x="305" y="625"/>
      <point x="305" y="622" type="curve"/>
      <point x="305" y="614"/>
      <point x="319" y="607"/>
      <point x="319" y="607" type="curve"/>
      <point x="411" y="572"/>
      <point x="622" y="574"/>
    </contour>
    <contour>
      <point x="1071" y="53" type="curve"/>
      <point x="1062" y="79" type="line"/>
      <point x="1062" y="85"/>
      <point x="1056" y="80"/>
      <point x="1056" y="80" type="curve"/>
      <point x="1035" y="70" type="line"/>
      <point x="1029" y="70"/>
      <point x="1030" y="77"/>
      <point x="1030" y="77" type="curve"/>
      <point x="1045" y="103" type="line"/>
      <point x="1051" y="106"/>
      <point x="1043" y="111"/>
      <point x="1043" y="111" type="curve"/>
      <point x="1023" y="125" type="line"/>
      <point x="1020" y="133"/>
      <point x="1023" y="134"/>
      <point x="1026" y="134" type="curve"/>
      <point x="1028" y="134"/>
      <point x="1029" y="134"/>
      <point x="1029" y="134" type="curve"/>
      <point x="1056" y="128" type="line"/>
      <point x="1067" y="125"/>
      <point x="1068" y="134"/>
      <point x="1068" y="134" type="curve"/>
      <point x="1074" y="160" type="line"/>
      <point x="1079" y="166"/>
      <point x="1082" y="160"/>
      <point x="1082" y="160" type="curve"/>
      <point x="1087" y="128" type="line"/>
      <point x="1087" y="124"/>
      <point x="1091" y="124"/>
      <point x="1091" y="124" type="curve"/>
      <point x="1119" y="128" type="line"/>
      <point x="1126" y="128"/>
      <point x="1123" y="123"/>
      <point x="1123" y="123" type="curve"/>
      <point x="1103" y="106" type="line"/>
      <point x="1097" y="101"/>
      <point x="1103" y="97"/>
      <point x="1103" y="97" type="curve"/>
      <point x="1119" y="77" type="line"/>
      <point x="1122" y="72"/>
      <point x="1117" y="70"/>
      <point x="1116" y="70" type="curve"/>
      <point x="1113" y="70"/>
      <point x="1113" y="70"/>
      <point x="1113" y="70" type="curve"/>
      <point x="1094" y="80" type="line"/>
      <point x="1088" y="85"/>
      <point x="1088" y="79"/>
      <point x="1088" y="79" type="curve"/>
      <point x="1079" y="53" type="line"/>
      <point x="1074" y="47"/>
      <point x="1071" y="53"/>
    </contour>
    <contour>
      <point x="727" y="445" type="curve"/>
      <point x="679" y="485"/>
      <point x="649" y="527"/>
      <point x="649" y="594" type="curve"/>
      <point x="649" y="635"/>
      <point x="672" y="668"/>
      <point x="707" y="678" type="curve"/>
      <point x="692" y="659" type="line"/>
      <point x="692" y="659"/>
      <point x="664" y="636"/>
      <point x="663" y="625" type="curve"/>
      <point x="660" y="614"/>
      <point x="659" y="590"/>
      <point x="663" y="574" type="curve"/>
      <point x="761" y="574" type="line"/>
      <point x="761" y="574"/>
      <point x="761" y="601"/>
      <point x="755" y="622" type="curve"/>
      <point x="743" y="639" type="line"/>
      <point x="753" y="651" type="line"/>
      <point x="766" y="632"/>
      <point x="772" y="600"/>
      <point x="772" y="572" type="curve"/>
      <point x="772" y="527"/>
      <point x="765" y="489"/>
    </contour>
    <contour>
      <point x="966" y="284" type="curve"/>
      <point x="952" y="304" type="line"/>
      <point x="952" y="304"/>
      <point x="948" y="307"/>
      <point x="945" y="305" type="curve"/>
      <point x="922" y="294" type="line"/>
      <point x="922" y="294"/>
      <point x="916" y="294"/>
      <point x="919" y="302" type="curve"/>
      <point x="930" y="321" type="line"/>
      <point x="930" y="321"/>
      <point x="930" y="324"/>
      <point x="927" y="327" type="curve"/>
      <point x="904" y="342" type="line"/>
      <point x="904" y="342"/>
      <point x="897" y="346"/>
      <point x="904" y="350" type="curve"/>
      <point x="933" y="350" type="line"/>
      <point x="933" y="350"/>
      <point x="939" y="350"/>
      <point x="939" y="355" type="curve"/>
      <point x="939" y="356"/>
      <point x="939" y="356"/>
      <point x="939" y="358" type="curve"/>
      <point x="939" y="382" type="line"/>
      <point x="939" y="382"/>
      <point x="940" y="390"/>
      <point x="948" y="385" type="curve"/>
      <point x="963" y="362" type="line"/>
      <point x="963" y="362"/>
      <point x="965" y="358"/>
      <point x="968" y="358" type="curve"/>
      <point x="988" y="368" type="line"/>
      <point x="988" y="368"/>
      <point x="996" y="373"/>
      <point x="997" y="366" type="curve"/>
      <point x="987" y="346" type="line"/>
      <point x="987" y="346"/>
      <point x="985" y="340"/>
      <point x="988" y="339" type="curve"/>
      <point x="1001" y="327" type="line"/>
      <point x="1001" y="327"/>
      <point x="1007" y="321"/>
      <point x="1001" y="318" type="curve"/>
      <point x="981" y="318" type="line"/>
      <point x="981" y="318"/>
      <point x="975" y="318"/>
      <point x="975" y="314" type="curve"/>
      <point x="975" y="308"/>
      <point x="975" y="311"/>
      <point x="975" y="311" type="curve"/>
      <point x="975" y="287" type="line"/>
      <point x="975" y="287"/>
      <point x="971" y="278"/>
    </contour>
    <contour>
      <point x="1049" y="-59" type="curve"/>
      <point x="1232" y="-59"/>
      <point x="1310" y="54"/>
      <point x="1310" y="220" type="curve"/>
      <point x="1310" y="310"/>
      <point x="1286" y="384"/>
      <point x="1271" y="458" type="curve"/>
      <point x="1258" y="509"/>
      <point x="1258" y="586"/>
      <point x="1258" y="586" type="curve"/>
      <point x="1258" y="586"/>
      <point x="1065" y="387"/>
      <point x="833" y="387" type="curve"/>
      <point x="874" y="349"/>
      <point x="908" y="313"/>
      <point x="908" y="240" type="curve"/>
      <point x="908" y="139"/>
      <point x="807" y="57"/>
      <point x="807" y="57" type="curve"/>
      <point x="866" y="-7"/>
      <point x="954" y="-59"/>
    </contour>
    <contour>
      <point x="1049" y="-72" type="curve"/>
      <point x="945" y="-72"/>
      <point x="839" y="-10"/>
      <point x="785" y="60" type="curve"/>
      <point x="843" y="97"/>
      <point x="895" y="169"/>
      <point x="895" y="242" type="curve"/>
      <point x="895" y="311"/>
      <point x="849" y="362"/>
      <point x="789" y="406" type="curve"/>
      <point x="798" y="401"/>
      <point x="814" y="400"/>
      <point x="830" y="400" type="curve"/>
      <point x="996" y="400"/>
      <point x="1165" y="501"/>
      <point x="1280" y="632" type="curve"/>
      <point x="1275" y="613"/>
      <point x="1274" y="588"/>
      <point x="1274" y="566" type="curve"/>
      <point x="1274" y="427"/>
      <point x="1326" y="382"/>
      <point x="1326" y="220" type="curve"/>
      <point x="1326" y="21"/>
      <point x="1222" y="-72"/>
    </contour>
    <contour>
      <point x="943" y="50" type="curve"/>
      <point x="942" y="50"/>
      <point x="939" y="50"/>
      <point x="936" y="53" type="curve"/>
      <point x="936" y="53"/>
      <point x="916" y="141"/>
      <point x="913" y="159" type="curve"/>
      <point x="913" y="159"/>
      <point x="914" y="166"/>
      <point x="923" y="160" type="curve"/>
      <point x="933" y="153" type="line"/>
      <point x="933" y="153"/>
      <point x="937" y="148"/>
      <point x="942" y="156" type="curve"/>
      <point x="945" y="160"/>
      <point x="1064" y="417"/>
      <point x="1068" y="423" type="curve"/>
      <point x="1068" y="424"/>
      <point x="1071" y="427"/>
      <point x="1074" y="427" type="curve"/>
      <point x="1078" y="427"/>
      <point x="1079" y="424"/>
      <point x="1081" y="420" type="curve"/>
      <point x="1082" y="417"/>
      <point x="1244" y="144"/>
      <point x="1244" y="144" type="curve"/>
      <point x="1244" y="144"/>
      <point x="1247" y="136"/>
      <point x="1252" y="136" type="curve"/>
      <point x="1260" y="136"/>
      <point x="1264" y="150"/>
      <point x="1273" y="150" type="curve"/>
      <point x="1283" y="150"/>
      <point x="1280" y="137"/>
      <point x="1277" y="133" type="curve"/>
      <point x="1252" y="62" type="line"/>
      <point x="1252" y="62"/>
      <point x="1249" y="54"/>
      <point x="1244" y="54" type="curve"/>
      <point x="1239" y="54"/>
      <point x="1236" y="59"/>
      <point x="1233" y="63" type="curve"/>
      <point x="1082" y="324" type="line"/>
      <point x="1082" y="324"/>
      <point x="1078" y="334"/>
      <point x="1074" y="324" type="curve"/>
      <point x="951" y="53" type="line"/>
      <point x="951" y="53"/>
      <point x="948" y="50"/>
    </contour>
    <contour>
      <point x="900" y="548" type="curve"/>
      <point x="940" y="568" type="line"/>
      <point x="939" y="574"/>
      <point x="916" y="591"/>
      <point x="916" y="591" type="curve"/>
      <point x="911" y="594"/>
      <point x="910" y="597"/>
      <point x="910" y="601" type="curve"/>
      <point x="910" y="613"/>
      <point x="940" y="617"/>
      <point x="940" y="617" type="curve"/>
      <point x="991" y="625"/>
      <point x="1068" y="648"/>
      <point x="1091" y="665" type="curve"/>
      <point x="1100" y="674"/>
      <point x="1079" y="680"/>
      <point x="1079" y="680" type="curve"/>
      <point x="1048" y="690"/>
      <point x="1008" y="717"/>
      <point x="1008" y="717" type="curve"/>
      <point x="1001" y="723"/>
      <point x="994" y="725"/>
      <point x="990" y="725" type="curve"/>
      <point x="980" y="725"/>
      <point x="975" y="717"/>
      <point x="975" y="717" type="curve"/>
      <point x="929" y="665"/>
      <point x="792" y="646"/>
      <point x="792" y="646" type="curve"/>
      <point x="801" y="626"/>
      <point x="804" y="600"/>
      <point x="803" y="580" type="curve"/>
      <point x="803" y="580"/>
      <point x="836" y="580"/>
      <point x="840" y="580" type="curve"/>
      <point x="849" y="580"/>
      <point x="858" y="580"/>
      <point x="866" y="574" type="curve"/>
      <point x="875" y="568"/>
      <point x="900" y="548"/>
    </contour>
    <contour>
      <point x="1204" y="346" type="curve"/>
      <point x="1199" y="372" type="line"/>
      <point x="1197" y="381"/>
      <point x="1189" y="378"/>
      <point x="1189" y="378" type="curve"/>
      <point x="1168" y="365" type="line"/>
      <point x="1164" y="366"/>
      <point x="1165" y="373"/>
      <point x="1165" y="373" type="curve"/>
      <point x="1180" y="398" type="line"/>
      <point x="1183" y="401"/>
      <point x="1175" y="407"/>
      <point x="1175" y="407" type="curve"/>
      <point x="1156" y="421" type="line"/>
      <point x="1151" y="429"/>
      <point x="1156" y="432"/>
      <point x="1162" y="430" type="curve"/>
      <point x="1189" y="424" type="line"/>
      <point x="1200" y="421"/>
      <point x="1201" y="429"/>
      <point x="1201" y="429" type="curve"/>
      <point x="1209" y="456" type="line"/>
      <point x="1212" y="461"/>
      <point x="1216" y="456"/>
      <point x="1216" y="456" type="curve"/>
      <point x="1221" y="424" type="line"/>
      <point x="1221" y="421"/>
      <point x="1225" y="421"/>
      <point x="1225" y="421" type="curve"/>
      <point x="1252" y="424" type="line"/>
      <point x="1258" y="421"/>
      <point x="1255" y="417"/>
      <point x="1255" y="417" type="curve"/>
      <point x="1236" y="400" type="line"/>
      <point x="1230" y="397"/>
      <point x="1236" y="392"/>
      <point x="1236" y="392" type="curve"/>
      <point x="1252" y="373" type="line"/>
      <point x="1254" y="365"/>
      <point x="1251" y="365"/>
      <point x="1249" y="365" type="curve"/>
      <point x="1248" y="365"/>
      <point x="1247" y="365"/>
      <point x="1247" y="365" type="curve"/>
      <point x="1226" y="378" type="line"/>
      <point x="1221" y="379"/>
      <point x="1221" y="375"/>
      <point x="1221" y="375" type="curve"/>
      <point x="1215" y="346" type="line"/>
      <point x="1209" y="342"/>
      <point x="1204" y="346"/>
    </contour>
    <contour>
      <point x="1032" y="658" type="curve"/>
      <point x="1020" y="658"/>
      <point x="1007" y="662"/>
      <point x="994" y="670" type="curve"/>
      <point x="985" y="674"/>
      <point x="982" y="681"/>
      <point x="982" y="687" type="curve"/>
      <point x="982" y="691"/>
      <point x="984" y="694"/>
      <point x="984" y="694" type="curve"/>
      <point x="985" y="700"/>
      <point x="988" y="700"/>
      <point x="993" y="700" type="curve"/>
      <point x="1001" y="700"/>
      <point x="1011" y="694"/>
      <point x="1011" y="694" type="curve"/>
      <point x="1045" y="678" type="line"/>
      <point x="1045" y="678"/>
      <point x="1054" y="671"/>
      <point x="1054" y="667" type="curve"/>
      <point x="1054" y="664"/>
      <point x="1051" y="662"/>
      <point x="1045" y="659" type="curve"/>
      <point x="1042" y="659"/>
      <point x="1036" y="658"/>
    </contour>
  </outline>
</glyph>
<glyph name="c_a" format="1">
  <advance width="710"/>
  <outline>
    <contour>
      <point x="593" y="-21" type="curve"/>
      <point x="610" y="-21"/>
      <point x="653" y="12"/>
      <point x="685" y="33" type="curve"/>
      <point x="684" y="52" type="line"/>
      <point x="653" y="65"/>
      <point x="639" y="89"/>
      <point x="639" y="124" type="curve"/>
      <point x="639" y="154"/>
      <point x="644" y="298"/>
      <point x="644" y="328" type="curve"/>
      <point x="644" y="391"/>
      <point x="586" y="451"/>
      <point x="518" y="451" type="curve"/>
      <point x="471" y="451"/>
      <point x="339" y="396"/>
      <point x="278" y="357" type="curve"/>
      <point x="295" y="334" type="line"/>
      <point x="350" y="372"/>
      <point x="412" y="387"/>
      <point x="455" y="387" type="curve"/>
      <point x="511" y="387"/>
      <point x="536" y="343"/>
      <point x="536" y="309" type="curve"/>
      <point x="536" y="266"/>
      <point x="535" y="81"/>
      <point x="535" y="41" type="curve"/>
      <point x="535" y="13"/>
      <point x="558" y="-21"/>
    </contour>
    <contour>
      <point x="170" y="-20" type="curve"/>
      <point x="195" y="-20"/>
      <point x="307" y="77"/>
      <point x="366" y="121" type="curve"/>
      <point x="366" y="170" type="line"/>
      <point x="332" y="144"/>
      <point x="283" y="94"/>
      <point x="245" y="94" type="curve"/>
      <point x="173" y="94"/>
      <point x="154" y="165"/>
      <point x="154" y="225" type="curve"/>
      <point x="154" y="292"/>
      <point x="165" y="340"/>
      <point x="169" y="360" type="curve"/>
      <point x="234" y="354"/>
      <point x="259" y="317"/>
      <point x="265" y="317" type="curve"/>
      <point x="270" y="317"/>
      <point x="336" y="360"/>
      <point x="372" y="381" type="curve"/>
      <point x="372" y="396" type="line"/>
      <point x="297" y="410"/>
      <point x="289" y="451"/>
      <point x="273" y="451" type="curve"/>
      <point x="251" y="451"/>
      <point x="83" y="357"/>
      <point x="65" y="341" type="curve"/>
      <point x="52" y="330"/>
      <point x="35" y="224"/>
      <point x="35" y="125" type="curve"/>
      <point x="35" y="91"/>
      <point x="119" y="-20"/>
    </contour>
    <contour>
      <point x="388" y="-20" type="curve"/>
      <point x="420" y="-20"/>
      <point x="472" y="31"/>
      <point x="513" y="64" type="curve"/>
      <point x="557" y="48" type="line"/>
      <point x="579" y="87" type="line"/>
      <point x="579" y="135" type="line"/>
      <point x="555" y="121"/>
      <point x="483" y="65"/>
      <point x="470" y="65" type="curve"/>
      <point x="448" y="65"/>
      <point x="404" y="122"/>
      <point x="404" y="145" type="curve"/>
      <point x="404" y="162"/>
      <point x="512" y="241"/>
      <point x="590" y="287" type="curve"/>
      <point x="579" y="348" type="line"/>
      <point x="512" y="272"/>
      <point x="287" y="122"/>
      <point x="287" y="93" type="curve"/>
      <point x="287" y="68"/>
      <point x="356" y="-20"/>
    </contour>
    <contour>
      <point x="186" y="0" type="move" name="bottom_1"/>
    </contour>
    <contour>
      <point x="529" y="0" type="move" name="bottom_2"/>
    </contour>
    <contour>
      <point x="358" y="0" type="move" name="caret_1"/>
    </contour>
    <contour>
      <point x="186" y="430" type="move" name="top_1"/>
    </contour>
    <contour>
      <point x="529" y="430" type="move" name="top_2"/>
    </contour>
  </outline>
</glyph>
<glyph name="c_a_macr" format="1">
  <advance width="710"/>
  <outline>
    <contour>
      <point x="354" y="587" type="curve"/>
      <point x="384" y="578" type="line"/>
      <point x="428" y="609"/>
      <point x="456" y="596"/>
      <point x="562" y="600" type="curve"/>
      <point x="579" y="621"/>
      <point x="601" y="664"/>
      <point x="624" y="698" type="curve"/>
      <point x="590" y="705" type="line"/>
      <point x="574" y="698"/>
      <point x="559" y="695"/>
      <point x="533" y="693" type="curve"/>
      <point x="506" y="691"/>
      <point x="449" y="691"/>
      <point x="421" y="689" type="curve"/>
      <point x="404" y="668"/>
      <point x="382" y="621"/>
    </contour>
    <component base="c_a"/>
    <contour>
      <point x="114" y="0" type="move" name="bottom_1"/>
    </contour>
    <contour>
      <point x="343" y="0" type="move" name="bottom_2"/>
    </contour>
    <contour>
      <point x="571" y="0" type="move" name="bottom_3"/>
    </contour>
    <contour>
      <point x="228.333" y="0" type="move" name="caret_1"/>
    </contour>
    <contour>
      <point x="456.667" y="0" type="move" name="caret_2"/>
    </contour>
    <contour>
      <point x="114" y="430" type="move" name="top_1"/>
    </contour>
    <contour>
      <point x="343" y="430" type="move" name="top_2"/>
    </contour>
    <contour>
      <point x="571" y="430" type="move" name="top_3"/>
    </contour>
  </outline>
</glyph>
<glyph name="c_e" format="1">
  <advance width="719"/>
  <outline>
    <contour>
      <point x="170" y="-20" type="curve"/>
      <point x="195" y="-20"/>
      <point x="307" y="43"/>
      <point x="366" y="83" type="curve"/>
      <point x="366" y="113" type="line"/>
      <point x="332" y="97"/>
      <point x="303" y="74"/>
      <point x="245" y="74" type="curve"/>
      <point x="173" y="74"/>
      <point x="154" y="165"/>
      <point x="154" y="225" type="curve"/>
      <point x="154" y="292"/>
      <point x="178" y="340"/>
      <point x="189" y="360" type="curve"/>
      <point x="244" y="354"/>
      <point x="269" y="307"/>
      <point x="275" y="307" type="curve"/>
      <point x="280" y="307"/>
      <point x="366" y="340"/>
      <point x="402" y="361" type="curve"/>
      <point x="402" y="376" type="line"/>
      <point x="331" y="394"/>
      <point x="289" y="451"/>
      <point x="273" y="451" type="curve"/>
      <point x="251" y="451"/>
      <point x="93" y="357"/>
      <point x="75" y="341" type="curve"/>
      <point x="62" y="330"/>
      <point x="35" y="238"/>
      <point x="35" y="125" type="curve"/>
      <point x="35" y="91"/>
      <point x="119" y="-20"/>
    </contour>
    <contour>
      <point x="505" y="-20" type="curve"/>
      <point x="541" y="-20"/>
      <point x="638" y="26"/>
      <point x="689" y="52" type="curve"/>
      <point x="686" y="82" type="line"/>
      <point x="666" y="78"/>
      <point x="613" y="73"/>
      <point x="594" y="74" type="curve"/>
      <point x="482" y="81"/>
      <point x="467" y="163"/>
      <point x="467" y="253" type="curve"/>
      <point x="467" y="296"/>
      <point x="472" y="367"/>
      <point x="509" y="367" type="curve"/>
      <point x="555" y="367"/>
      <point x="579" y="316"/>
      <point x="579" y="292" type="curve"/>
      <point x="579" y="238"/>
      <point x="506" y="180"/>
      <point x="450" y="150" type="curve"/>
      <point x="455" y="103" type="line"/>
      <point x="525" y="155"/>
      <point x="709" y="312"/>
      <point x="709" y="326" type="curve"/>
      <point x="709" y="346"/>
      <point x="630" y="450"/>
      <point x="599" y="450" type="curve"/>
      <point x="571" y="450"/>
      <point x="406" y="392"/>
      <point x="385" y="372" type="curve"/>
      <point x="368" y="356"/>
      <point x="347" y="274"/>
      <point x="347" y="172" type="curve"/>
      <point x="347" y="73"/>
      <point x="406" y="-20"/>
    </contour>
    <contour>
      <point x="190" y="0" type="move" name="bottom_1"/>
    </contour>
    <contour>
      <point x="539" y="0" type="move" name="bottom_2"/>
    </contour>
    <contour>
      <point x="365" y="0" type="move" name="caret_1"/>
    </contour>
    <contour>
      <point x="190" y="430" type="move" name="top_1"/>
    </contour>
    <contour>
      <point x="539" y="430" type="move" name="top_2"/>
    </contour>
  </outline>
</glyph>
<glyph name="c_i" format="1">
  <advance width="543"/>
  <outline>
    <contour>
      <point x="170" y="-20" type="curve"/>
      <point x="195" y="-20"/>
      <point x="327" y="43"/>
      <point x="386" y="83" type="curve"/>
      <point x="386" y="113" type="line"/>
      <point x="352" y="97"/>
      <point x="303" y="74"/>
      <point x="245" y="74" type="curve"/>
      <point x="173" y="74"/>
      <point x="154" y="165"/>
      <point x="154" y="225" type="curve"/>
      <point x="154" y="292"/>
      <point x="165" y="340"/>
      <point x="169" y="360" type="curve"/>
      <point x="234" y="354"/>
      <point x="259" y="317"/>
      <point x="265" y="317" type="curve"/>
      <point x="270" y="317"/>
      <point x="336" y="360"/>
      <point x="372" y="381" type="curve"/>
      <point x="372" y="396" type="line"/>
      <point x="297" y="410"/>
      <point x="289" y="451"/>
      <point x="273" y="451" type="curve"/>
      <point x="251" y="451"/>
      <point x="83" y="357"/>
      <point x="65" y="341" type="curve"/>
      <point x="52" y="330"/>
      <point x="35" y="224"/>
      <point x="35" y="125" type="curve"/>
      <point x="35" y="91"/>
      <point x="119" y="-20"/>
    </contour>
    <contour>
      <point x="432" y="-20" type="curve"/>
      <point x="445" y="-20"/>
      <point x="485" y="16"/>
      <point x="513" y="35" type="curve"/>
      <point x="513" y="54" type="line"/>
      <point x="482" y="68"/>
      <point x="479" y="80"/>
      <point x="478" y="97" type="curve"/>
      <point x="477" y="178"/>
      <point x="477" y="243"/>
      <point x="478" y="312" type="curve"/>
      <point x="479" y="370"/>
      <point x="482" y="413"/>
      <point x="487" y="442" type="curve"/>
      <point x="471" y="452" type="line"/>
      <point x="432" y="428"/>
      <point x="391" y="406"/>
      <point x="358" y="389" type="curve"/>
      <point x="371" y="321"/>
      <point x="363" y="108"/>
      <point x="363" y="85" type="curve"/>
      <point x="363" y="2"/>
      <point x="408" y="-20"/>
    </contour>
    <contour>
      <point x="441" y="588" type="line"/>
      <point x="448" y="550" type="line"/>
      <point x="451" y="550" type="line"/>
      <point x="528" y="714" type="line"/>
      <point x="528" y="717" type="line"/>
      <point x="490" y="733" type="line"/>
      <point x="487" y="732" type="line"/>
    </contour>
    <contour>
      <point x="148" y="0" type="move" name="bottom_1"/>
    </contour>
    <contour>
      <point x="415" y="0" type="move" name="bottom_2"/>
    </contour>
    <contour>
      <point x="282" y="0" type="move" name="caret_1"/>
    </contour>
    <contour>
      <point x="148" y="430" type="move" name="top_1"/>
    </contour>
    <contour>
      <point x="415" y="430" type="move" name="top_2"/>
    </contour>
  </outline>
</glyph>
<glyph name="c_o_macr" format="1">
  <advance width="748"/>
  <outline>
    <contour>
      <point x="394" y="587" type="curve"/>
      <point x="424" y="578" type="line"/>
      <point x="468" y="609"/>
      <point x="516" y="596"/>
      <point x="622" y="600" type="curve"/>
      <point x="639" y="621"/>
      <point x="661" y="664"/>
      <point x="684" y="698" type="curve"/>
      <point x="650" y="705" type="line"/>
      <point x="634" y="698"/>
      <point x="619" y="695"/>
      <point x="593" y="693" type="curve"/>
      <point x="566" y="691"/>
      <point x="489" y="691"/>
      <point x="461" y="689" type="curve"/>
      <point x="444" y="668"/>
      <point x="422" y="621"/>
    </contour>
    <component base="c_o"/>
    <contour>
      <point x="123" y="0" type="move" name="bottom_1"/>
    </contour>
    <contour>
      <point x="369" y="0" type="move" name="bottom_2"/>
    </contour>
    <contour>
      <point x="615" y="0" type="move" name="bottom_3"/>
    </contour>
    <contour>
      <point x="246" y="0" type="move" name="caret_1"/>
    </contour>
    <contour>
      <point x="492" y="0" type="move" name="caret_2"/>
    </contour>
    <contour>
      <point x="123" y="430" type="move" name="top_1"/>
    </contour>
    <contour>
      <point x="369" y="430" type="move" name="top_2"/>
    </contour>
    <contour>
      <point x="615" y="430" type="move" name="top_3"/>
    </contour>
  </outline>
</glyph>
<glyph name="c_r" format="1">
  <advance width="644"/>
  <outline>
    <contour>
      <point x="375" y="278" type="curve"/>
      <point x="375" y="-5" type="line"/>
      <point x="379" y="-7" type="line"/>
      <point x="494" y="0" type="line"/>
      <point x="490" y="102"/>
      <point x="489" y="200"/>
      <point x="490" y="302" type="curve"/>
      <point x="490" y="334" type="line"/>
      <point x="490" y="348" type="line" smooth="yes"/>
      <point x="490" y="387"/>
      <point x="436" y="430"/>
      <point x="382" y="450" type="curve"/>
      <point x="375" y="453"/>
      <point x="332" y="414"/>
      <point x="298" y="384" type="curve"/>
      <point x="298" y="359" type="line"/>
      <point x="331" y="359"/>
      <point x="375" y="336"/>
    </contour>
    <contour>
      <point x="552" y="305" type="curve"/>
      <point x="558" y="305"/>
      <point x="644" y="376"/>
      <point x="644" y="380" type="curve"/>
      <point x="644" y="389"/>
      <point x="576" y="455"/>
      <point x="570" y="450" type="curve"/>
      <point x="543" y="427"/>
      <point x="508" y="390"/>
      <point x="483" y="367" type="curve"/>
      <point x="490" y="328" type="line"/>
      <point x="495" y="332"/>
      <point x="507" y="339"/>
      <point x="510" y="339" type="curve"/>
      <point x="512" y="339"/>
      <point x="548" y="305"/>
    </contour>
    <component base="c"/>
    <contour>
      <point x="156" y="0" type="move" name="bottom_1"/>
    </contour>
    <contour>
      <point x="468" y="0" type="move" name="bottom_2"/>
    </contour>
    <contour>
      <point x="312" y="0" type="move" name="caret_1"/>
    </contour>
    <contour>
      <point x="156" y="430" type="move" name="top_1"/>
    </contour>
    <contour>
      <point x="468" y="430" type="move" name="top_2"/>
    </contour>
  </outline>
</glyph>
<glyph name="d_o" format="1">
  <advance width="824"/>
  <outline>
    <contour>
      <point x="255" y="-19" type="curve"/>
      <point x="274" y="-19"/>
      <point x="426" y="80"/>
      <point x="461" y="130" type="curve"/>
      <point x="474" y="149"/>
      <point x="461" y="215"/>
      <point x="480" y="275" type="curve"/>
      <point x="497" y="329"/>
      <point x="522" y="373"/>
      <point x="513" y="381" type="curve"/>
      <point x="489" y="402"/>
      <point x="148" y="496"/>
      <point x="148" y="546" type="curve"/>
      <point x="148" y="553"/>
      <point x="148" y="562"/>
      <point x="202" y="597" type="curve"/>
      <point x="185" y="615" type="line"/>
      <point x="122" y="582"/>
      <point x="20" y="549"/>
      <point x="20" y="510" type="curve"/>
      <point x="20" y="405"/>
      <point x="328" y="365"/>
      <point x="364" y="316" type="curve"/>
      <point x="394" y="275"/>
      <point x="366" y="83"/>
      <point x="308" y="83" type="curve"/>
      <point x="218" y="83"/>
      <point x="178" y="154"/>
      <point x="178" y="240" type="curve"/>
      <point x="178" y="310"/>
      <point x="208" y="347"/>
      <point x="245" y="375" type="curve"/>
      <point x="204" y="390" type="line"/>
      <point x="136" y="337"/>
      <point x="42" y="283"/>
      <point x="42" y="261" type="curve"/>
      <point x="42" y="96"/>
      <point x="125" y="-19"/>
    </contour>
    <component base="o" xOffset="371"/>
    <contour>
      <point x="206" y="0" type="move" name="bottom_1"/>
    </contour>
    <contour>
      <point x="618" y="0" type="move" name="bottom_2"/>
    </contour>
    <contour>
      <point x="412" y="0" type="move" name="caret_1"/>
    </contour>
    <contour>
      <point x="0" y="0" type="move" name="center_1"/>
    </contour>
    <contour>
      <point x="0" y="0" type="move" name="center_2"/>
    </contour>
    <contour>
      <point x="206" y="430" type="move" name="top_1"/>
    </contour>
    <contour>
      <point x="618" y="430" type="move" name="top_2"/>
    </contour>
    <contour>
      <point x="0" y="0" type="move" name="topright_1"/>
    </contour>
    <contour>
      <point x="0" y="0" type="move" name="topright_2"/>
    </contour>
  </outline>
</glyph>
<glyph name="e_t" format="1">
  <advance width="614"/>
  <outline>
    <contour>
      <point x="188" y="-20" type="curve"/>
      <point x="224" y="-20"/>
      <point x="349" y="56"/>
      <point x="400" y="82" type="curve"/>
      <point x="397" y="112" type="line"/>
      <point x="369" y="99"/>
      <point x="320" y="73"/>
      <point x="277" y="74" type="curve"/>
      <point x="165" y="77"/>
      <point x="150" y="163"/>
      <point x="150" y="253" type="curve"/>
      <point x="150" y="296"/>
      <point x="155" y="367"/>
      <point x="182" y="367" type="curve"/>
      <point x="228" y="367"/>
      <point x="252" y="306"/>
      <point x="252" y="282" type="curve"/>
      <point x="252" y="228"/>
      <point x="189" y="180"/>
      <point x="133" y="150" type="curve"/>
      <point x="138" y="103" type="line"/>
      <point x="208" y="155"/>
      <point x="374" y="322"/>
      <point x="374" y="336" type="curve"/>
      <point x="374" y="356"/>
      <point x="293" y="450"/>
      <point x="262" y="450" type="curve"/>
      <point x="234" y="450"/>
      <point x="89" y="372"/>
      <point x="68" y="352" type="curve"/>
      <point x="51" y="336"/>
      <point x="30" y="274"/>
      <point x="30" y="172" type="curve"/>
      <point x="30" y="73"/>
      <point x="89" y="-20"/>
    </contour>
    <component base="t" xOffset="317" yOffset="-6"/>
    <contour>
      <point x="169" y="0" type="move" name="bottom_1"/>
    </contour>
    <contour>
      <point x="466" y="0" type="move" name="bottom_2"/>
    </contour>
    <contour>
      <point x="317" y="0" type="move" name="caret_1"/>
    </contour>
    <contour>
      <point x="20" y="0" type="move" name="ogonek_1"/>
    </contour>
    <contour>
      <point x="20" y="0" type="move" name="ogonek_2"/>
    </contour>
    <contour>
      <point x="169" y="430" type="move" name="top_1"/>
    </contour>
    <contour>
      <point x="466" y="430" type="move" name="top_2"/>
    </contour>
  </outline>
</glyph>
<glyph name="f_o" format="1">
  <advance width="690"/>
  <outline>
    <contour>
      <point x="49" y="-17" type="line"/>
      <point x="55" y="-20" type="line"/>
      <point x="161" y="9" type="line"/>
      <point x="161" y="321" type="line"/>
      <point x="357" y="321" type="line"/>
      <point x="437" y="408" type="line"/>
      <point x="360" y="408"/>
      <point x="161" y="408"/>
      <point x="161" y="408" type="curve"/>
      <point x="161" y="410"/>
      <point x="161" y="586"/>
      <point x="161" y="600" type="curve"/>
      <point x="175" y="610"/>
      <point x="190" y="612"/>
      <point x="204" y="612" type="curve"/>
      <point x="231" y="612"/>
      <point x="264" y="590"/>
      <point x="290" y="561" type="curve"/>
      <point x="298" y="562" type="line"/>
      <point x="377" y="640" type="line"/>
      <point x="377" y="646" type="line" smooth="yes"/>
      <point x="335" y="681"/>
      <point x="270" y="699"/>
      <point x="234" y="699" type="curve"/>
      <point x="225" y="699"/>
      <point x="90" y="610"/>
      <point x="60" y="589" type="curve"/>
      <point x="46" y="579"/>
      <point x="45" y="578"/>
      <point x="47" y="562" type="curve"/>
      <point x="57" y="482"/>
      <point x="49" y="421"/>
      <point x="20" y="357" type="curve"/>
      <point x="20" y="350" type="line" smooth="yes"/>
      <point x="43" y="333"/>
      <point x="49" y="323"/>
      <point x="49" y="279" type="curve"/>
    </contour>
    <component base="o" xOffset="237"/>
    <contour>
      <point x="180" y="0" type="move" name="bottom_1"/>
    </contour>
    <contour>
      <point x="520" y="0" type="move" name="bottom_2"/>
    </contour>
    <contour>
      <point x="350" y="0" type="move" name="caret_1"/>
    </contour>
    <contour>
      <point x="180" y="430" type="move" name="top_1"/>
    </contour>
    <contour>
      <point x="520" y="430" type="move" name="top_2"/>
    </contour>
  </outline>
</glyph>
<glyph name="f_r_a" format="1">
  <advance width="898"/>
  <outline>
    <component base="a" xOffset="475"/>
    <component base="f_r"/>
    <contour>
      <point x="175" y="0" type="move" name="bottom_1"/>
    </contour>
    <contour>
      <point x="464" y="0" type="move" name="bottom_2"/>
    </contour>
    <contour>
      <point x="753" y="0" type="move" name="bottom_3"/>
    </contour>
    <contour>
      <point x="319" y="0" type="move" name="caret_1"/>
    </contour>
    <contour>
      <point x="609" y="0" type="move" name="caret_2"/>
    </contour>
    <contour>
      <point x="175" y="430" type="move" name="top_1"/>
    </contour>
    <contour>
      <point x="464" y="430" type="move" name="top_2"/>
    </contour>
    <contour>
      <point x="753" y="430" type="move" name="top_3"/>
    </contour>
  </outline>
</glyph>
<glyph name="g_macr" format="1">
  <advance width="585"/>
  <outline>
    <contour>
      <point x="336" y="521" type="curve"/>
      <point x="358" y="495" type="line"/>
      <point x="449" y="552"/>
      <point x="562" y="627"/>
      <point x="564" y="642" type="curve"/>
      <point x="566" y="657"/>
      <point x="541" y="709"/>
      <point x="508" y="752" type="curve"/>
      <point x="502" y="753" type="line"/>
      <point x="380" y="704" type="line"/>
      <point x="380" y="699" type="line"/>
      <point x="404" y="678"/>
      <point x="435" y="652"/>
      <point x="430" y="611" type="curve"/>
      <point x="425" y="573"/>
      <point x="371" y="548"/>
    </contour>
    <component base="g.ss01"/>
    <contour>
      <point x="293" y="0" type="move" name="bottom"/>
    </contour>
    <contour>
      <point x="293" y="430" type="move" name="top"/>
    </contour>
  </outline>
</glyph>
<glyph name="g_ra" format="1">
  <advance width="610"/>
  <outline>
    <contour>
      <point x="184" y="518" type="curve"/>
      <point x="224" y="534"/>
      <point x="296" y="586"/>
      <point x="307" y="586" type="curve"/>
      <point x="331" y="537"/>
      <point x="360" y="519"/>
      <point x="392" y="519" type="curve"/>
      <point x="439" y="519"/>
      <point x="501" y="570"/>
      <point x="563" y="631" type="curve"/>
      <point x="547" y="658" type="line"/>
      <point x="519" y="623"/>
      <point x="480" y="614"/>
      <point x="438" y="614" type="curve"/>
      <point x="409" y="614"/>
      <point x="381" y="640"/>
      <point x="371" y="682" type="curve"/>
      <point x="362" y="684" type="line"/>
      <point x="336" y="648"/>
      <point x="285" y="600"/>
      <point x="233" y="600" type="curve"/>
      <point x="200" y="600"/>
      <point x="173" y="630"/>
      <point x="171" y="685" type="curve"/>
      <point x="163" y="685" type="line"/>
      <point x="143" y="670"/>
      <point x="50" y="601"/>
      <point x="18" y="567" type="curve"/>
      <point x="36" y="545" type="line"/>
      <point x="36" y="540"/>
      <point x="68" y="575"/>
      <point x="97" y="575" type="curve"/>
      <point x="135" y="575"/>
      <point x="172" y="518"/>
    </contour>
    <component base="g"/>
    <contour>
      <point x="305" y="0" type="move" name="bottom"/>
    </contour>
    <contour>
      <point x="305" y="430" type="move" name="top"/>
    </contour>
  </outline>
</glyph>
<glyph name="h_e" format="1">
  <advance width="821"/>
  <outline>
    <component base="e" xOffset="420"/>
    <component base="h"/>
    <contour>
      <point x="199" y="0" type="move" name="bottom_1"/>
    </contour>
    <contour>
      <point x="598" y="0" type="move" name="bottom_2"/>
    </contour>
    <contour>
      <point x="398.5" y="0" type="move" name="caret_1"/>
    </contour>
    <contour>
      <point x="0" y="0" type="move" name="center_1"/>
    </contour>
    <contour>
      <point x="0" y="0" type="move" name="center_2"/>
    </contour>
    <contour>
      <point x="199" y="430" type="move" name="top_1"/>
    </contour>
    <contour>
      <point x="598" y="430" type="move" name="top_2"/>
    </contour>
  </outline>
</glyph>
<glyph name="h_strok" format="1">
  <advance width="553"/>
  <outline>
    <contour>
      <point x="123" y="421" type="curve"/>
      <point x="147" y="399" type="line"/>
      <point x="226" y="463"/>
      <point x="412" y="611"/>
      <point x="412" y="625" type="curve"/>
      <point x="412" y="639"/>
      <point x="383" y="685"/>
      <point x="347" y="722" type="curve"/>
      <point x="341" y="722" type="line"/>
      <point x="233" y="662" type="line"/>
      <point x="233" y="657" type="line"/>
      <point x="258" y="640"/>
      <point x="290" y="620"/>
      <point x="290" y="581" type="curve"/>
      <point x="290" y="545"/>
      <point x="153" y="450"/>
    </contour>
    <component base="h"/>
    <contour>
      <point x="274" y="0" type="move" name="bottom"/>
    </contour>
    <contour>
      <point x="274" y="215" type="move" name="center"/>
    </contour>
    <contour>
      <point x="274" y="430" type="move" name="top"/>
    </contour>
  </outline>
</glyph>
<glyph name="i.ss01" format="1">
  <advance width="236"/>
  <outline>
    <contour>
      <point x="140" y="-20" type="curve"/>
      <point x="153" y="-20"/>
      <point x="193" y="16"/>
      <point x="221" y="35" type="curve"/>
      <point x="221" y="54" type="line"/>
      <point x="190" y="68"/>
      <point x="187" y="80"/>
      <point x="186" y="97" type="curve"/>
      <point x="185" y="178"/>
      <point x="186" y="263"/>
      <point x="186" y="332" type="curve"/>
      <point x="186" y="418"/>
      <point x="140" y="464"/>
      <point x="72" y="445" type="curve"/>
      <point x="10" y="362" type="line"/>
      <point x="10" y="342" type="line"/>
      <point x="40" y="334"/>
      <point x="68" y="331"/>
      <point x="70" y="282" type="curve"/>
      <point x="72" y="200"/>
      <point x="74" y="148"/>
      <point x="70" y="35" type="curve"/>
      <point x="70" y="12"/>
      <point x="116" y="-20"/>
    </contour>
    <contour>
      <point x="104" y="588" type="line"/>
      <point x="111" y="550" type="line"/>
      <point x="114" y="550" type="line"/>
      <point x="191" y="714" type="line"/>
      <point x="191" y="717" type="line"/>
      <point x="153" y="733" type="line"/>
      <point x="150" y="732" type="line"/>
    </contour>
    <contour>
      <point x="123" y="0" type="move" name="bottom"/>
    </contour>
  </outline>
</glyph>
<glyph name="i.ss02" format="1">
  <advance width="212"/>
  <outline>
    <contour>
      <point x="116" y="-20" type="curve"/>
      <point x="129" y="-20"/>
      <point x="169" y="16"/>
      <point x="197" y="35" type="curve"/>
      <point x="197" y="54" type="line"/>
      <point x="166" y="68"/>
      <point x="163" y="80"/>
      <point x="162" y="97" type="curve"/>
      <point x="157" y="178"/>
      <point x="154" y="346"/>
      <point x="160" y="445" type="curve"/>
      <point x="150" y="449" type="line"/>
      <point x="104" y="413"/>
      <point x="75" y="390"/>
      <point x="45" y="368" type="curve"/>
      <point x="50" y="283"/>
      <point x="50" y="136"/>
      <point x="46" y="35" type="curve"/>
      <point x="45" y="12"/>
      <point x="92" y="-20"/>
    </contour>
    <contour>
      <point x="80" y="588" type="line"/>
      <point x="87" y="550" type="line"/>
      <point x="90" y="550" type="line"/>
      <point x="167" y="714" type="line"/>
      <point x="167" y="717" type="line"/>
      <point x="129" y="733" type="line"/>
      <point x="126" y="732" type="line"/>
    </contour>
    <contour>
      <point x="109" y="0" type="move" name="bottom"/>
    </contour>
  </outline>
</glyph>
<glyph name="i_j" format="1">
  <advance width="455"/>
  <outline>
    <contour>
      <point x="269" y="-143" type="curve"/>
      <point x="287" y="-149" type="line"/>
      <point x="329" y="-77"/>
      <point x="367" y="-21"/>
      <point x="410" y="32" type="curve"/>
      <point x="402" y="136"/>
      <point x="401" y="178"/>
      <point x="401" y="329" type="curve"/>
      <point x="401" y="415"/>
      <point x="352" y="454"/>
      <point x="283" y="448" type="curve"/>
      <point x="170" y="361" type="line"/>
      <point x="170" y="325" type="line"/>
      <point x="219" y="368"/>
      <point x="287" y="339"/>
      <point x="287" y="263" type="curve"/>
      <point x="287" y="191"/>
      <point x="294" y="72"/>
    </contour>
    <contour>
      <point x="336" y="732" type="line"/>
      <point x="290" y="588" type="line"/>
      <point x="297" y="550" type="line"/>
      <point x="300" y="550" type="line"/>
      <point x="377" y="714" type="line"/>
      <point x="377" y="717" type="line"/>
      <point x="339" y="733" type="line"/>
    </contour>
    <component base="i"/>
    <contour>
      <point x="103" y="0" type="move" name="bottom_1"/>
    </contour>
    <contour>
      <point x="308" y="0" type="move" name="bottom_2"/>
    </contour>
    <contour>
      <point x="205" y="0" type="move" name="caret_1"/>
    </contour>
  </outline>
</glyph>
<glyph name="i_m" format="1">
  <advance width="914"/>
  <outline>
    <contour>
      <point x="514" y="-4" type="curve"/>
      <point x="518" y="-6" type="line"/>
      <point x="637" y="0" type="line"/>
      <point x="634" y="115"/>
      <point x="634" y="229"/>
      <point x="634" y="344" type="curve"/>
      <point x="634" y="430"/>
      <point x="563" y="450"/>
      <point x="499" y="450" type="curve"/>
      <point x="487" y="450"/>
      <point x="453" y="394"/>
      <point x="384" y="333" type="curve"/>
      <point x="391" y="299" type="line"/>
      <point x="401" y="309"/>
      <point x="428" y="337"/>
      <point x="457" y="337" type="curve"/>
      <point x="475" y="337"/>
      <point x="507" y="328"/>
      <point x="511" y="300" type="curve"/>
      <point x="515" y="271"/>
      <point x="518" y="94"/>
    </contour>
    <contour>
      <point x="288" y="-4" type="curve"/>
      <point x="292" y="-6" type="line"/>
      <point x="411" y="0" type="line"/>
      <point x="408" y="115"/>
      <point x="408" y="229"/>
      <point x="408" y="344" type="curve"/>
      <point x="408" y="430"/>
      <point x="337" y="450"/>
      <point x="273" y="450" type="curve"/>
      <point x="261" y="450"/>
      <point x="227" y="394"/>
      <point x="158" y="333" type="curve"/>
      <point x="165" y="299" type="line"/>
      <point x="175" y="309"/>
      <point x="202" y="337"/>
      <point x="231" y="337" type="curve"/>
      <point x="249" y="337"/>
      <point x="281" y="328"/>
      <point x="285" y="300" type="curve"/>
      <point x="289" y="271"/>
      <point x="292" y="94"/>
    </contour>
    <contour>
      <point x="746" y="-2" type="curve"/>
      <point x="869" y="0" type="line"/>
      <point x="866" y="115"/>
      <point x="866" y="229"/>
      <point x="866" y="344" type="curve"/>
      <point x="866" y="430"/>
      <point x="795" y="450"/>
      <point x="731" y="450" type="curve"/>
      <point x="719" y="450"/>
      <point x="685" y="394"/>
      <point x="616" y="333" type="curve"/>
      <point x="623" y="299" type="line"/>
      <point x="633" y="309"/>
      <point x="660" y="337"/>
      <point x="689" y="337" type="curve"/>
      <point x="707" y="337"/>
      <point x="741" y="328"/>
      <point x="743" y="300" type="curve"/>
      <point x="745" y="271"/>
      <point x="750" y="96"/>
    </contour>
    <component base="i"/>
    <contour>
      <point x="81" y="0" type="move" name="bottom_1"/>
    </contour>
    <contour>
      <point x="620" y="0" type="move" name="bottom_2"/>
    </contour>
    <contour>
      <point x="351" y="0" type="move" name="caret_1"/>
    </contour>
  </outline>
</glyph>
<glyph name="i_n" format="1">
  <advance width="655"/>
  <outline>
    <contour>
      <point x="280" y="-4" type="curve"/>
      <point x="284" y="-6" type="line"/>
      <point x="403" y="0" type="line"/>
      <point x="400" y="115"/>
      <point x="400" y="229"/>
      <point x="400" y="344" type="curve"/>
      <point x="400" y="430"/>
      <point x="329" y="450"/>
      <point x="265" y="450" type="curve"/>
      <point x="253" y="450"/>
      <point x="219" y="394"/>
      <point x="150" y="333" type="curve"/>
      <point x="157" y="299" type="line"/>
      <point x="167" y="309"/>
      <point x="194" y="337"/>
      <point x="223" y="337" type="curve"/>
      <point x="241" y="337"/>
      <point x="273" y="328"/>
      <point x="277" y="300" type="curve"/>
      <point x="281" y="271"/>
      <point x="284" y="94"/>
    </contour>
    <contour>
      <point x="512" y="-2" type="curve"/>
      <point x="635" y="0" type="line"/>
      <point x="632" y="115"/>
      <point x="632" y="229"/>
      <point x="632" y="344" type="curve"/>
      <point x="632" y="430"/>
      <point x="561" y="450"/>
      <point x="497" y="450" type="curve"/>
      <point x="485" y="450"/>
      <point x="451" y="394"/>
      <point x="382" y="333" type="curve"/>
      <point x="389" y="299" type="line"/>
      <point x="399" y="309"/>
      <point x="426" y="337"/>
      <point x="455" y="337" type="curve"/>
      <point x="473" y="337"/>
      <point x="507" y="328"/>
      <point x="509" y="300" type="curve"/>
      <point x="511" y="271"/>
      <point x="516" y="96"/>
    </contour>
    <component base="i"/>
    <contour>
      <point x="164" y="0" type="move" name="bottom_1"/>
    </contour>
    <contour>
      <point x="491" y="0" type="move" name="bottom_2"/>
    </contour>
    <contour>
      <point x="327.5" y="0" type="move" name="caret_1"/>
    </contour>
  </outline>
</glyph>
<glyph name="i_u_macr" format="1">
  <advance width="680"/>
  <outline>
    <contour>
      <point x="144" y="-20" type="curve"/>
      <point x="177" y="-20"/>
      <point x="283" y="50"/>
      <point x="311" y="69" type="curve"/>
      <point x="311" y="114" type="line"/>
      <point x="296" y="101"/>
      <point x="255" y="67"/>
      <point x="228" y="67" type="curve"/>
      <point x="200" y="67"/>
      <point x="187" y="87"/>
      <point x="186" y="116" type="curve"/>
      <point x="185" y="177"/>
      <point x="186" y="263"/>
      <point x="186" y="332" type="curve"/>
      <point x="186" y="418"/>
      <point x="140" y="464"/>
      <point x="72" y="445" type="curve"/>
      <point x="10" y="362" type="line"/>
      <point x="10" y="342" type="line"/>
      <point x="40" y="334"/>
      <point x="68" y="331"/>
      <point x="70" y="282" type="curve"/>
      <point x="72" y="200"/>
      <point x="74" y="148"/>
      <point x="72" y="65" type="curve"/>
      <point x="70" y="12"/>
      <point x="100" y="-20"/>
    </contour>
    <contour>
      <point x="104" y="588" type="line"/>
      <point x="111" y="550" type="line"/>
      <point x="114" y="550" type="line"/>
      <point x="191" y="714" type="line"/>
      <point x="191" y="717" type="line"/>
      <point x="153" y="733" type="line"/>
      <point x="150" y="732" type="line"/>
    </contour>
    <component base="u_macr" xOffset="216"/>
  </outline>
</glyph>
<glyph name="longs_i_m" format="1">
  <advance width="1137"/>
  <outline>
    <contour>
      <point x="737" y="-4" type="curve"/>
      <point x="741" y="-6" type="line"/>
      <point x="860" y="0" type="line"/>
      <point x="857" y="115"/>
      <point x="857" y="229"/>
      <point x="857" y="344" type="curve"/>
      <point x="857" y="430"/>
      <point x="786" y="450"/>
      <point x="722" y="450" type="curve"/>
      <point x="710" y="450"/>
      <point x="676" y="394"/>
      <point x="607" y="333" type="curve"/>
      <point x="614" y="299" type="line"/>
      <point x="624" y="309"/>
      <point x="651" y="337"/>
      <point x="680" y="337" type="curve"/>
      <point x="698" y="337"/>
      <point x="730" y="328"/>
      <point x="734" y="300" type="curve"/>
      <point x="738" y="271"/>
      <point x="741" y="94"/>
    </contour>
    <contour>
      <point x="286" y="-10" type="curve"/>
      <point x="293" y="-14" type="line"/>
      <point x="405" y="11" type="line"/>
      <point x="402" y="115"/>
      <point x="404" y="238"/>
      <point x="404" y="332" type="curve"/>
      <point x="404" y="418"/>
      <point x="358" y="464"/>
      <point x="290" y="445" type="curve"/>
      <point x="228" y="362" type="line"/>
      <point x="228" y="342" type="line"/>
      <point x="258" y="334"/>
      <point x="286" y="331"/>
      <point x="288" y="282" type="curve"/>
      <point x="291" y="200"/>
      <point x="290" y="103"/>
    </contour>
    <contour>
      <point x="511" y="-4" type="curve"/>
      <point x="515" y="-6" type="line"/>
      <point x="634" y="0" type="line"/>
      <point x="631" y="115"/>
      <point x="631" y="229"/>
      <point x="631" y="344" type="curve"/>
      <point x="631" y="430"/>
      <point x="560" y="450"/>
      <point x="496" y="450" type="curve"/>
      <point x="484" y="450"/>
      <point x="450" y="394"/>
      <point x="381" y="333" type="curve"/>
      <point x="388" y="299" type="line"/>
      <point x="398" y="309"/>
      <point x="425" y="337"/>
      <point x="454" y="337" type="curve"/>
      <point x="472" y="337"/>
      <point x="504" y="328"/>
      <point x="508" y="300" type="curve"/>
      <point x="512" y="271"/>
      <point x="515" y="94"/>
    </contour>
    <contour>
      <point x="969" y="-2" type="curve"/>
      <point x="1092" y="0" type="line"/>
      <point x="1089" y="115"/>
      <point x="1089" y="229"/>
      <point x="1089" y="344" type="curve"/>
      <point x="1089" y="430"/>
      <point x="1018" y="450"/>
      <point x="954" y="450" type="curve"/>
      <point x="942" y="450"/>
      <point x="908" y="394"/>
      <point x="839" y="333" type="curve"/>
      <point x="846" y="299" type="line"/>
      <point x="856" y="309"/>
      <point x="883" y="337"/>
      <point x="912" y="337" type="curve"/>
      <point x="930" y="337"/>
      <point x="964" y="328"/>
      <point x="966" y="300" type="curve"/>
      <point x="968" y="271"/>
      <point x="973" y="96"/>
    </contour>
    <component base="longs"/>
    <contour>
      <point x="296" y="0" type="move" name="bottom"/>
    </contour>
    <contour>
      <point x="373" y="0" type="move" name="bottom_1"/>
    </contour>
    <contour>
      <point x="732" y="0" type="move" name="bottom_2"/>
    </contour>
    <contour>
      <point x="1091" y="0" type="move" name="bottom_3"/>
    </contour>
    <contour>
      <point x="552" y="0" type="move" name="caret_1"/>
    </contour>
    <contour>
      <point x="911" y="0" type="move" name="caret_2"/>
    </contour>
    <contour>
      <point x="373" y="430" type="move" name="top_1"/>
    </contour>
    <contour>
      <point x="732" y="430" type="move" name="top_2"/>
    </contour>
    <contour>
      <point x="1091" y="430" type="move" name="top_3"/>
    </contour>
  </outline>
</glyph>
<glyph name="longs_longs" format="1">
  <advance width="484"/>
  <outline>
    <contour>
      <point x="59" y="-17" type="line"/>
      <point x="65" y="-20" type="line"/>
      <point x="171" y="9" type="line"/>
      <point x="171" y="600" type="line"/>
      <point x="185" y="610"/>
      <point x="215" y="619"/>
      <point x="239" y="619" type="curve"/>
      <point x="266" y="619"/>
      <point x="311" y="594"/>
      <point x="313" y="578" type="curve"/>
      <point x="315" y="563" type="line"/>
      <point x="432" y="641" type="line"/>
      <point x="432" y="647" type="line"/>
      <point x="390" y="682"/>
      <point x="325" y="700"/>
      <point x="289" y="700" type="curve"/>
      <point x="280" y="700"/>
      <point x="100" y="610"/>
      <point x="70" y="589" type="curve"/>
      <point x="56" y="579"/>
      <point x="55" y="578"/>
      <point x="57" y="562" type="curve"/>
      <point x="67" y="482"/>
      <point x="59" y="421"/>
      <point x="20" y="357" type="curve"/>
      <point x="20" y="350" type="line"/>
      <point x="53" y="333"/>
      <point x="59" y="323"/>
      <point x="59" y="279" type="curve"/>
    </contour>
    <component base="longs" xOffset="250" yOffset="1"/>
    <contour>
      <point x="94" y="0" type="move" name="bottom_1"/>
    </contour>
    <contour>
      <point x="297" y="0" type="move" name="bottom_2"/>
    </contour>
    <contour>
      <point x="195" y="0" type="move" name="caret_1"/>
    </contour>
    <contour>
      <point x="94" y="430" type="move" name="top_1"/>
    </contour>
    <contour>
      <point x="297" y="430" type="move" name="top_2"/>
    </contour>
  </outline>
</glyph>
<glyph name="longs_longs_etfin" format="1">
  <advance width="664"/>
  <outline>
    <contour>
      <point x="71" y="-17" type="line"/>
      <point x="77" y="-20" type="line"/>
      <point x="183" y="9" type="line"/>
      <point x="183" y="600" type="line"/>
      <point x="197" y="610"/>
      <point x="212" y="612"/>
      <point x="226" y="612" type="curve"/>
      <point x="253" y="612"/>
      <point x="305" y="593"/>
      <point x="307" y="577" type="curve"/>
      <point x="309" y="562" type="line"/>
      <point x="414" y="641" type="line"/>
      <point x="414" y="647" type="line"/>
      <point x="372" y="682"/>
      <point x="292" y="699"/>
      <point x="256" y="699" type="curve"/>
      <point x="247" y="699"/>
      <point x="112" y="610"/>
      <point x="82" y="589" type="curve"/>
      <point x="68" y="579"/>
      <point x="67" y="578"/>
      <point x="69" y="562" type="curve"/>
      <point x="77" y="482"/>
      <point x="49" y="421"/>
      <point x="20" y="357" type="curve"/>
      <point x="20" y="350" type="line"/>
      <point x="43" y="333"/>
      <point x="71" y="323"/>
      <point x="71" y="279" type="curve"/>
    </contour>
    <component base="longs_etfin" xOffset="245"/>
    <contour>
      <point x="188" y="0" type="move" name="bottom_1"/>
    </contour>
    <contour>
      <point x="500" y="0" type="move" name="bottom_2"/>
    </contour>
    <contour>
      <point x="344" y="0" type="move" name="caret_1"/>
    </contour>
    <contour>
      <point x="188" y="430" type="move" name="top_1"/>
    </contour>
    <contour>
      <point x="500" y="430" type="move" name="top_2"/>
    </contour>
  </outline>
</glyph>
<glyph name="longs_strok" format="1">
  <advance width="332"/>
  <outline>
    <contour>
      <point x="115" y="87" type="curve"/>
      <point x="104" y="17" type="line"/>
      <point x="239" y="138"/>
      <point x="374" y="317"/>
      <point x="374" y="337" type="curve"/>
      <point x="374" y="372"/>
      <point x="291" y="452"/>
      <point x="265" y="452" type="curve"/>
      <point x="257" y="452"/>
      <point x="174" y="365"/>
      <point x="128" y="353" type="curve"/>
      <point x="146" y="323" type="line"/>
      <point x="199" y="381"/>
      <point x="285" y="366"/>
      <point x="285" y="292" type="curve"/>
      <point x="285" y="239"/>
      <point x="208" y="159"/>
    </contour>
    <contour>
      <point x="66" y="-17" type="line"/>
      <point x="85" y="-23" type="line"/>
      <point x="178" y="89" type="line"/>
      <point x="178" y="600" type="line"/>
      <point x="192" y="610"/>
      <point x="207" y="612"/>
      <point x="221" y="612" type="curve"/>
      <point x="248" y="612"/>
      <point x="281" y="590"/>
      <point x="307" y="561" type="curve"/>
      <point x="315" y="562" type="line"/>
      <point x="394" y="640" type="line"/>
      <point x="394" y="646" type="line"/>
      <point x="352" y="681"/>
      <point x="287" y="699"/>
      <point x="251" y="699" type="curve"/>
      <point x="242" y="699"/>
      <point x="107" y="610"/>
      <point x="77" y="589" type="curve"/>
      <point x="63" y="579"/>
      <point x="62" y="578"/>
      <point x="64" y="562" type="curve"/>
      <point x="72" y="482"/>
      <point x="53" y="421"/>
      <point x="20" y="357" type="curve"/>
      <point x="20" y="350" type="line"/>
      <point x="43" y="333"/>
      <point x="66" y="323"/>
      <point x="66" y="279" type="curve"/>
    </contour>
    <contour>
      <point x="107" y="10" type="move" name="bottom"/>
    </contour>
    <contour>
      <point x="101" y="10" type="move" name="bottom_1"/>
    </contour>
    <contour>
      <point x="302" y="0" type="move" name="bottom_2"/>
    </contour>
    <contour>
      <point x="201" y="0" type="move" name="caret_1"/>
    </contour>
    <contour>
      <point x="107" y="430" type="move" name="top"/>
    </contour>
    <contour>
      <point x="101" y="430" type="move" name="top_1"/>
    </contour>
    <contour>
      <point x="302" y="430" type="move" name="top_2"/>
    </contour>
  </outline>
</glyph>
<glyph name="longs_u" format="1">
  <advance width="688"/>
  <outline>
    <component base="longs"/>
    <component base="u" xOffset="214"/>
    <contour>
      <point x="149" y="0" type="move" name="bottom_1"/>
    </contour>
    <contour>
      <point x="488" y="0" type="move" name="bottom_2"/>
    </contour>
    <contour>
      <point x="319" y="0" type="move" name="caret_1"/>
    </contour>
    <contour>
      <point x="149" y="430" type="move" name="top_1"/>
    </contour>
    <contour>
      <point x="488" y="430" type="move" name="top_2"/>
    </contour>
  </outline>
</glyph>
<glyph name="longs_u_macr" format="1">
  <advance width="697"/>
  <outline>
    <contour>
      <point x="376" y="536" type="curve"/>
      <point x="401" y="525" type="line"/>
      <point x="417" y="537"/>
      <point x="448" y="550"/>
      <point x="470" y="550" type="curve"/>
      <point x="493" y="550"/>
      <point x="552" y="543"/>
      <point x="576" y="543" type="curve"/>
      <point x="589" y="543"/>
      <point x="624" y="604"/>
      <point x="649" y="636" type="curve"/>
      <point x="621" y="645" type="line"/>
      <point x="607" y="639"/>
      <point x="594" y="637"/>
      <point x="572" y="637" type="curve"/>
      <point x="549" y="637"/>
      <point x="493" y="641"/>
      <point x="469" y="641" type="curve"/>
      <point x="457" y="641"/>
      <point x="402" y="568"/>
    </contour>
    <component base="longs_u"/>
    <contour>
      <point x="116" y="0" type="move" name="bottom_1"/>
    </contour>
    <contour>
      <point x="349" y="0" type="move" name="bottom_2"/>
    </contour>
    <contour>
      <point x="581" y="0" type="move" name="bottom_3"/>
    </contour>
    <contour>
      <point x="232.333" y="0" type="move" name="caret_1"/>
    </contour>
    <contour>
      <point x="464.667" y="0" type="move" name="caret_2"/>
    </contour>
    <contour>
      <point x="116" y="430" type="move" name="top_1"/>
    </contour>
    <contour>
      <point x="349" y="430" type="move" name="top_2"/>
    </contour>
    <contour>
      <point x="581" y="430" type="move" name="top_3"/>
    </contour>
  </outline>
</glyph>
<glyph name="m_i" format="1">
  <advance width="912"/>
  <outline>
    <contour>
      <point x="512" y="-4" type="curve"/>
      <point x="516" y="-6" type="line"/>
      <point x="635" y="0" type="line"/>
      <point x="632" y="115"/>
      <point x="632" y="229"/>
      <point x="632" y="344" type="curve"/>
      <point x="632" y="430"/>
      <point x="561" y="450"/>
      <point x="497" y="450" type="curve"/>
      <point x="485" y="450"/>
      <point x="451" y="394"/>
      <point x="382" y="333" type="curve"/>
      <point x="389" y="299" type="line"/>
      <point x="399" y="309"/>
      <point x="426" y="337"/>
      <point x="455" y="337" type="curve"/>
      <point x="473" y="337"/>
      <point x="505" y="328"/>
      <point x="509" y="300" type="curve"/>
      <point x="513" y="271"/>
      <point x="516" y="94"/>
    </contour>
    <contour>
      <point x="68" y="-10" type="curve"/>
      <point x="75" y="-14" type="line"/>
      <point x="187" y="11" type="line"/>
      <point x="184" y="115"/>
      <point x="186" y="238"/>
      <point x="186" y="332" type="curve"/>
      <point x="186" y="418"/>
      <point x="140" y="464"/>
      <point x="72" y="445" type="curve"/>
      <point x="10" y="362" type="line"/>
      <point x="10" y="342" type="line"/>
      <point x="40" y="334"/>
      <point x="68" y="331"/>
      <point x="70" y="282" type="curve"/>
      <point x="73" y="200"/>
      <point x="72" y="103"/>
    </contour>
    <contour>
      <point x="286" y="-4" type="curve"/>
      <point x="290" y="-6" type="line"/>
      <point x="409" y="0" type="line"/>
      <point x="406" y="115"/>
      <point x="406" y="229"/>
      <point x="406" y="344" type="curve"/>
      <point x="406" y="430"/>
      <point x="335" y="450"/>
      <point x="271" y="450" type="curve"/>
      <point x="259" y="450"/>
      <point x="225" y="394"/>
      <point x="156" y="333" type="curve"/>
      <point x="163" y="299" type="line"/>
      <point x="173" y="309"/>
      <point x="200" y="337"/>
      <point x="229" y="337" type="curve"/>
      <point x="247" y="337"/>
      <point x="279" y="328"/>
      <point x="283" y="300" type="curve"/>
      <point x="287" y="271"/>
      <point x="290" y="94"/>
    </contour>
    <contour>
      <point x="744" y="-2" type="curve"/>
      <point x="867" y="0" type="line"/>
      <point x="864" y="115"/>
      <point x="864" y="229"/>
      <point x="864" y="344" type="curve"/>
      <point x="864" y="430"/>
      <point x="793" y="450"/>
      <point x="729" y="450" type="curve"/>
      <point x="717" y="450"/>
      <point x="683" y="394"/>
      <point x="614" y="333" type="curve"/>
      <point x="621" y="299" type="line"/>
      <point x="631" y="309"/>
      <point x="658" y="337"/>
      <point x="687" y="337" type="curve"/>
      <point x="705" y="337"/>
      <point x="739" y="328"/>
      <point x="741" y="300" type="curve"/>
      <point x="743" y="271"/>
      <point x="748" y="96"/>
    </contour>
    <contour>
      <point x="758" y="574" type="line"/>
      <point x="765" y="536" type="line"/>
      <point x="768" y="536" type="line"/>
      <point x="845" y="700" type="line"/>
      <point x="845" y="703" type="line"/>
      <point x="807" y="719" type="line"/>
      <point x="804" y="718" type="line"/>
    </contour>
    <contour>
      <point x="222" y="0" type="move" name="bottom_1"/>
    </contour>
    <contour>
      <point x="665" y="0" type="move" name="bottom_2"/>
    </contour>
    <contour>
      <point x="443.5" y="0" type="move" name="caret_1"/>
    </contour>
    <contour>
      <point x="222" y="430" type="move" name="top_1"/>
    </contour>
    <contour>
      <point x="665" y="430" type="move" name="top_2"/>
    </contour>
  </outline>
</glyph>
<glyph name="n_hook" format="1">
  <advance width="459"/>
  <outline>
    <contour>
      <point x="198" y="480" type="curve"/>
      <point x="220" y="460" type="line"/>
      <point x="296" y="540"/>
      <point x="368" y="619"/>
      <point x="368" y="633" type="curve"/>
      <point x="368" y="675"/>
      <point x="344" y="717"/>
      <point x="286" y="725" type="curve"/>
      <point x="280" y="725" type="line"/>
      <point x="197" y="668" type="line"/>
      <point x="197" y="663" type="line"/>
      <point x="241" y="646"/>
      <point x="262" y="626"/>
      <point x="262" y="589" type="curve"/>
      <point x="262" y="555"/>
      <point x="226" y="508"/>
    </contour>
    <contour>
      <point x="181" y="335" type="curve"/>
      <point x="187" y="298" type="line"/>
      <point x="195" y="307"/>
      <point x="227" y="337"/>
      <point x="257" y="337" type="curve"/>
      <point x="290" y="337"/>
      <point x="311" y="319"/>
      <point x="311" y="283" type="curve"/>
      <point x="311" y="254"/>
      <point x="311" y="98"/>
      <point x="311" y="-4" type="curve"/>
      <point x="315" y="-6" type="line"/>
      <point x="434" y="50" type="line"/>
      <point x="431" y="165"/>
      <point x="431" y="229"/>
      <point x="431" y="344" type="curve"/>
      <point x="431" y="430"/>
      <point x="394" y="450"/>
      <point x="350" y="450" type="curve"/>
      <point x="338" y="450"/>
      <point x="243" y="398"/>
    </contour>
    <contour>
      <point x="80" y="-7" type="line"/>
      <point x="195" y="40" type="line"/>
      <point x="191" y="155"/>
      <point x="190" y="205"/>
      <point x="191" y="338" type="curve"/>
      <point x="191" y="404"/>
      <point x="137" y="450"/>
      <point x="83" y="450" type="curve"/>
      <point x="77" y="450"/>
      <point x="44" y="397"/>
      <point x="10" y="357" type="curve"/>
      <point x="10" y="332" type="line"/>
      <point x="43" y="332"/>
      <point x="76" y="329"/>
      <point x="76" y="271" type="curve"/>
      <point x="76" y="-5" type="line"/>
    </contour>
    <contour>
      <point x="230" y="0" type="move" name="bottom"/>
    </contour>
    <contour>
      <point x="230" y="430" type="move" name="top"/>
    </contour>
  </outline>
</glyph>
<glyph name="n_i" format="1">
  <advance width="690"/>
  <outline>
    <contour>
      <point x="290" y="-4" type="curve"/>
      <point x="294" y="-6" type="line"/>
      <point x="413" y="0" type="line"/>
      <point x="410" y="115"/>
      <point x="410" y="229"/>
      <point x="410" y="344" type="curve"/>
      <point x="410" y="430"/>
      <point x="339" y="450"/>
      <point x="275" y="450" type="curve"/>
      <point x="263" y="450"/>
      <point x="229" y="394"/>
      <point x="160" y="333" type="curve"/>
      <point x="167" y="299" type="line"/>
      <point x="177" y="309"/>
      <point x="204" y="337"/>
      <point x="233" y="337" type="curve"/>
      <point x="251" y="337"/>
      <point x="283" y="328"/>
      <point x="287" y="300" type="curve"/>
      <point x="291" y="271"/>
      <point x="294" y="94"/>
    </contour>
    <contour>
      <point x="68" y="-10" type="curve"/>
      <point x="75" y="-14" type="line"/>
      <point x="187" y="11" type="line"/>
      <point x="184" y="115"/>
      <point x="186" y="238"/>
      <point x="186" y="332" type="curve"/>
      <point x="186" y="418"/>
      <point x="140" y="464"/>
      <point x="72" y="445" type="curve"/>
      <point x="10" y="362" type="line"/>
      <point x="10" y="342" type="line"/>
      <point x="40" y="334"/>
      <point x="68" y="331"/>
      <point x="70" y="282" type="curve"/>
      <point x="72" y="200"/>
      <point x="72" y="103"/>
    </contour>
    <contour>
      <point x="522" y="-2" type="curve"/>
      <point x="645" y="0" type="line"/>
      <point x="642" y="115"/>
      <point x="642" y="229"/>
      <point x="642" y="344" type="curve"/>
      <point x="642" y="430"/>
      <point x="571" y="450"/>
      <point x="507" y="450" type="curve"/>
      <point x="495" y="450"/>
      <point x="461" y="394"/>
      <point x="392" y="333" type="curve"/>
      <point x="399" y="299" type="line"/>
      <point x="409" y="309"/>
      <point x="436" y="337"/>
      <point x="465" y="337" type="curve"/>
      <point x="483" y="337"/>
      <point x="517" y="328"/>
      <point x="519" y="300" type="curve"/>
      <point x="521" y="271"/>
      <point x="526" y="96"/>
    </contour>
    <contour>
      <point x="574" y="718" type="line"/>
      <point x="528" y="574" type="line"/>
      <point x="535" y="536" type="line"/>
      <point x="538" y="536" type="line"/>
      <point x="615" y="700" type="line"/>
      <point x="615" y="703" type="line"/>
      <point x="577" y="719" type="line"/>
    </contour>
    <contour>
      <point x="168" y="0" type="move" name="bottom_1"/>
    </contour>
    <contour>
      <point x="503" y="0" type="move" name="bottom_2"/>
    </contour>
    <contour>
      <point x="335" y="0" type="move" name="caret_1"/>
    </contour>
    <contour>
      <point x="168" y="430" type="move" name="top_1"/>
    </contour>
    <contour>
      <point x="503" y="430" type="move" name="top_2"/>
    </contour>
  </outline>
</glyph>
<glyph name="o_r_ra" format="1">
  <advance width="706"/>
  <outline>
    <contour>
      <point x="360" y="549" type="curve"/>
      <point x="398" y="564"/>
      <point x="457" y="613"/>
      <point x="467" y="613" type="curve"/>
      <point x="490" y="597"/>
      <point x="510" y="551"/>
      <point x="540" y="551" type="curve"/>
      <point x="575" y="561"/>
      <point x="622" y="588"/>
      <point x="681" y="646" type="curve"/>
      <point x="666" y="672" type="line"/>
      <point x="639" y="639"/>
      <point x="612" y="641"/>
      <point x="592" y="640" type="curve"/>
      <point x="564" y="640"/>
      <point x="538" y="665"/>
      <point x="528" y="705" type="curve"/>
      <point x="520" y="707" type="line"/>
      <point x="495" y="672"/>
      <point x="475" y="637"/>
      <point x="426" y="637" type="curve"/>
      <point x="395" y="637"/>
      <point x="369" y="665"/>
      <point x="367" y="718" type="curve"/>
      <point x="359" y="718" type="line"/>
      <point x="340" y="703"/>
      <point x="253" y="638"/>
      <point x="222" y="605" type="curve"/>
      <point x="240" y="584" type="line"/>
      <point x="240" y="580"/>
      <point x="260" y="609"/>
      <point x="288" y="603" type="curve"/>
      <point x="323" y="596"/>
      <point x="349" y="549"/>
    </contour>
    <component base="o_r"/>
    <contour>
      <point x="111" y="0" type="move" name="bottom_1"/>
    </contour>
    <contour>
      <point x="332" y="0" type="move" name="bottom_2"/>
    </contour>
    <contour>
      <point x="553" y="0" type="move" name="bottom_3"/>
    </contour>
    <contour>
      <point x="221.333" y="0" type="move" name="caret_1"/>
    </contour>
    <contour>
      <point x="442.667" y="0" type="move" name="caret_2"/>
    </contour>
    <contour>
      <point x="0" y="0" type="move" name="center_1"/>
    </contour>
    <contour>
      <point x="0" y="0" type="move" name="center_2"/>
    </contour>
    <contour>
      <point x="0" y="0" type="move" name="center_3"/>
    </contour>
    <contour>
      <point x="0" y="0" type="move" name="ogonek_1"/>
    </contour>
    <contour>
      <point x="0" y="0" type="move" name="ogonek_2"/>
    </contour>
    <contour>
      <point x="0" y="0" type="move" name="ogonek_3"/>
    </contour>
    <contour>
      <point x="111" y="430" type="move" name="top_1"/>
    </contour>
    <contour>
      <point x="332" y="430" type="move" name="top_2"/>
    </contour>
    <contour>
      <point x="553" y="430" type="move" name="top_3"/>
    </contour>
    <contour>
      <point x="0" y="0" type="move" name="topright_1"/>
    </contour>
    <contour>
      <point x="0" y="0" type="move" name="topright_2"/>
    </contour>
    <contour>
      <point x="0" y="0" type="move" name="topright_3"/>
    </contour>
  </outline>
</glyph>
<glyph name="p_e_macr" format="1">
  <advance width="785"/>
  <outline>
    <contour>
      <point x="478" y="520" type="curve"/>
      <point x="505" y="513" type="line"/>
      <point x="519" y="527"/>
      <point x="568" y="564"/>
      <point x="609" y="574" type="curve"/>
      <point x="632" y="579"/>
      <point x="692" y="586"/>
      <point x="715" y="590" type="curve"/>
      <point x="728" y="592"/>
      <point x="754" y="649"/>
      <point x="775" y="684" type="curve"/>
      <point x="751" y="691" type="line"/>
      <point x="738" y="683"/>
      <point x="720" y="677"/>
      <point x="698" y="674" type="curve"/>
      <point x="676" y="671"/>
      <point x="620" y="667"/>
      <point x="596" y="664" type="curve"/>
      <point x="584" y="662"/>
      <point x="500" y="555"/>
    </contour>
    <component base="p_e"/>
    <contour>
      <point x="123" y="0" type="move" name="bottom_1"/>
    </contour>
    <contour>
      <point x="370" y="0" type="move" name="bottom_2"/>
    </contour>
    <contour>
      <point x="617" y="0" type="move" name="bottom_3"/>
    </contour>
    <contour>
      <point x="247" y="0" type="move" name="caret_1"/>
    </contour>
    <contour>
      <point x="493" y="0" type="move" name="caret_2"/>
    </contour>
    <contour>
      <point x="123" y="430" type="move" name="top_1"/>
    </contour>
    <contour>
      <point x="370" y="430" type="move" name="top_2"/>
    </contour>
    <contour>
      <point x="617" y="430" type="move" name="top_3"/>
    </contour>
  </outline>
</glyph>
<glyph name="p_o_macr" format="1">
  <advance width="841"/>
  <outline>
    <contour>
      <point x="498" y="580" type="curve"/>
      <point x="525" y="573" type="line"/>
      <point x="539" y="587"/>
      <point x="578" y="613"/>
      <point x="619" y="624" type="curve"/>
      <point x="642" y="630"/>
      <point x="702" y="636"/>
      <point x="725" y="640" type="curve"/>
      <point x="738" y="642"/>
      <point x="764" y="699"/>
      <point x="785" y="734" type="curve"/>
      <point x="761" y="741" type="line"/>
      <point x="748" y="733"/>
      <point x="730" y="727"/>
      <point x="708" y="724" type="curve"/>
      <point x="686" y="721"/>
      <point x="630" y="718"/>
      <point x="606" y="714" type="curve"/>
      <point x="594" y="712"/>
      <point x="520" y="615"/>
    </contour>
    <component base="p_o"/>
    <contour>
      <point x="140" y="0" type="move" name="bottom_1"/>
    </contour>
    <contour>
      <point x="421" y="0" type="move" name="bottom_2"/>
    </contour>
    <contour>
      <point x="701" y="0" type="move" name="bottom_3"/>
    </contour>
    <contour>
      <point x="280.333" y="0" type="move" name="caret_1"/>
    </contour>
    <contour>
      <point x="560.667" y="0" type="move" name="caret_2"/>
    </contour>
    <contour>
      <point x="140" y="430" type="move" name="top_1"/>
    </contour>
    <contour>
      <point x="421" y="430" type="move" name="top_2"/>
    </contour>
    <contour>
      <point x="701" y="430" type="move" name="top_3"/>
    </contour>
  </outline>
</glyph>
<glyph name="p_p_flour_hook" format="1">
  <advance width="784"/>
  <outline>
    <contour>
      <point x="584" y="540" type="curve"/>
      <point x="602" y="525" type="line"/>
      <point x="664" y="563"/>
      <point x="692" y="577"/>
      <point x="709" y="590" type="curve"/>
      <point x="744" y="648"/>
      <point x="707" y="700"/>
      <point x="650" y="719" type="curve"/>
      <point x="644" y="719" type="line"/>
      <point x="556" y="665" type="line"/>
      <point x="556" y="648" type="line"/>
      <point x="587" y="645"/>
      <point x="617" y="631"/>
      <point x="617" y="597" type="curve"/>
      <point x="617" y="574"/>
      <point x="600" y="552"/>
    </contour>
    <contour>
      <point x="-43" y="-218" type="curve"/>
      <point x="-37" y="-218"/>
      <point x="55" y="-181"/>
      <point x="80" y="-181" type="curve"/>
      <point x="80" y="-147" type="line"/>
      <point x="64" y="-161"/>
      <point x="47" y="-165"/>
      <point x="31" y="-165" type="curve"/>
      <point x="-11" y="-165"/>
      <point x="-39" y="-127"/>
      <point x="-39" y="-81" type="curve"/>
      <point x="-39" y="-31"/>
      <point x="5" y="9"/>
      <point x="33" y="9" type="curve"/>
      <point x="42" y="9"/>
      <point x="68" y="-3"/>
      <point x="84" y="-11" type="curve"/>
      <point x="100" y="6" type="line"/>
      <point x="74" y="117" type="line"/>
      <point x="56" y="47"/>
      <point x="-115" y="-21"/>
      <point x="-115" y="-124" type="curve"/>
      <point x="-115" y="-179"/>
      <point x="-74" y="-218"/>
    </contour>
    <component base="p_p"/>
    <contour>
      <point x="99" y="0" type="move" name="bottom_1"/>
    </contour>
    <contour>
      <point x="296" y="0" type="move" name="bottom_2"/>
    </contour>
    <contour>
      <point x="493" y="0" type="move" name="bottom_3"/>
    </contour>
    <contour>
      <point x="0" y="0" type="move" name="bottom_4"/>
    </contour>
    <contour>
      <point x="197" y="0" type="move" name="caret_1"/>
    </contour>
    <contour>
      <point x="394" y="0" type="move" name="caret_2"/>
    </contour>
    <contour>
      <point x="591" y="0" type="move" name="caret_3"/>
    </contour>
    <contour>
      <point x="99" y="430" type="move" name="top_1"/>
    </contour>
    <contour>
      <point x="296" y="430" type="move" name="top_2"/>
    </contour>
    <contour>
      <point x="493" y="430" type="move" name="top_3"/>
    </contour>
    <contour>
      <point x="0" y="0" type="move" name="top_4"/>
    </contour>
  </outline>
</glyph>
<glyph name="p_p_hook" format="1">
  <advance width="788"/>
  <outline>
    <contour>
      <point x="508" y="503" type="curve"/>
      <point x="531" y="482" type="line"/>
      <point x="605" y="542"/>
      <point x="697" y="621"/>
      <point x="697" y="634" type="curve"/>
      <point x="697" y="647"/>
      <point x="670" y="690"/>
      <point x="636" y="725" type="curve"/>
      <point x="630" y="725" type="line"/>
      <point x="528" y="669" type="line"/>
      <point x="528" y="664" type="line"/>
      <point x="552" y="648"/>
      <point x="582" y="629"/>
      <point x="582" y="592" type="curve"/>
      <point x="582" y="558"/>
      <point x="537" y="530"/>
    </contour>
    <component base="p_p"/>
    <contour>
      <point x="131" y="0" type="move" name="bottom_1"/>
    </contour>
    <contour>
      <point x="394" y="0" type="move" name="bottom_2"/>
    </contour>
    <contour>
      <point x="657" y="0" type="move" name="bottom_3"/>
    </contour>
    <contour>
      <point x="262.667" y="0" type="move" name="caret_1"/>
    </contour>
    <contour>
      <point x="525.333" y="0" type="move" name="caret_2"/>
    </contour>
    <contour>
      <point x="131" y="430" type="move" name="top_1"/>
    </contour>
    <contour>
      <point x="394" y="430" type="move" name="top_2"/>
    </contour>
    <contour>
      <point x="657" y="430" type="move" name="top_3"/>
    </contour>
  </outline>
</glyph>
<glyph name="p_p_macr" format="1">
  <advance width="784"/>
  <outline>
    <contour>
      <point x="408" y="576" type="curve"/>
      <point x="436" y="567" type="line"/>
      <point x="453" y="581"/>
      <point x="486" y="596"/>
      <point x="510" y="598" type="curve"/>
      <point x="536" y="599"/>
      <point x="602" y="597"/>
      <point x="628" y="599" type="curve"/>
      <point x="643" y="600"/>
      <point x="677" y="663"/>
      <point x="702" y="697" type="curve"/>
      <point x="671" y="704" type="line"/>
      <point x="656" y="697"/>
      <point x="642" y="694"/>
      <point x="617" y="692" type="curve"/>
      <point x="592" y="691"/>
      <point x="530" y="690"/>
      <point x="503" y="688" type="curve"/>
      <point x="490" y="687"/>
      <point x="434" y="610"/>
    </contour>
    <component base="p_p"/>
    <contour>
      <point x="131" y="0" type="move" name="bottom_1"/>
    </contour>
    <contour>
      <point x="394" y="0" type="move" name="bottom_2"/>
    </contour>
    <contour>
      <point x="657" y="0" type="move" name="bottom_3"/>
    </contour>
    <contour>
      <point x="262.667" y="0" type="move" name="caret_1"/>
    </contour>
    <contour>
      <point x="525.333" y="0" type="move" name="caret_2"/>
    </contour>
    <contour>
      <point x="131" y="430" type="move" name="top_1"/>
    </contour>
    <contour>
      <point x="394" y="430" type="move" name="top_2"/>
    </contour>
    <contour>
      <point x="657" y="430" type="move" name="top_3"/>
    </contour>
  </outline>
</glyph>
<glyph name="q_etfin_ring" format="1">
  <advance width="771"/>
  <outline>
    <contour>
      <point x="441" y="477" type="curve"/>
      <point x="469" y="477"/>
      <point x="551" y="534"/>
      <point x="575" y="558" type="curve"/>
      <point x="597" y="580"/>
      <point x="602" y="622"/>
      <point x="602" y="646" type="curve"/>
      <point x="602" y="735"/>
      <point x="529" y="795"/>
      <point x="486" y="795" type="curve"/>
      <point x="461" y="795"/>
      <point x="376" y="727"/>
      <point x="358" y="714" type="curve"/>
      <point x="341" y="701"/>
      <point x="324" y="662"/>
      <point x="324" y="622" type="curve"/>
      <point x="324" y="546"/>
      <point x="380" y="477"/>
    </contour>
    <contour>
      <point x="491" y="553" type="curve"/>
      <point x="477" y="547"/>
      <point x="403" y="566"/>
      <point x="403" y="655" type="curve"/>
      <point x="403" y="690"/>
      <point x="422" y="711"/>
      <point x="435" y="715" type="curve"/>
      <point x="461" y="723"/>
      <point x="516" y="695"/>
      <point x="516" y="617" type="curve"/>
      <point x="516" y="584"/>
      <point x="503" y="558"/>
    </contour>
    <component base="q_etfin"/>
    <contour>
      <point x="202" y="0" type="move" name="bottom_1"/>
    </contour>
    <contour>
      <point x="605" y="0" type="move" name="bottom_2"/>
    </contour>
    <contour>
      <point x="697" y="0" type="move" name="bottom_3"/>
    </contour>
    <contour>
      <point x="269" y="0" type="move" name="caret_1"/>
    </contour>
    <contour>
      <point x="538" y="0" type="move" name="caret_2"/>
    </contour>
    <contour>
      <point x="202" y="430" type="move" name="top_1"/>
    </contour>
    <contour>
      <point x="605" y="430" type="move" name="top_2"/>
    </contour>
    <contour>
      <point x="647" y="430" type="move" name="top_3"/>
    </contour>
  </outline>
</glyph>
<glyph name="q_r" format="1">
  <advance width="781"/>
  <outline>
    <contour>
      <point x="655" y="-20" type="curve"/>
      <point x="705" y="28"/>
      <point x="755" y="86"/>
      <point x="791" y="118" type="curve"/>
      <point x="772" y="136" type="line"/>
      <point x="689" y="79"/>
      <point x="642" y="88"/>
      <point x="539" y="168" type="curve"/>
      <point x="554" y="131" type="line"/>
      <point x="607" y="203"/>
      <point x="688" y="250"/>
      <point x="688" y="337" type="curve"/>
      <point x="688" y="417"/>
      <point x="608" y="450"/>
      <point x="565" y="450" type="curve"/>
      <point x="509" y="431"/>
      <point x="486" y="407"/>
      <point x="456" y="397" type="curve"/>
      <point x="449" y="316" type="line"/>
      <point x="459" y="353"/>
      <point x="488" y="371"/>
      <point x="515" y="371" type="curve"/>
      <point x="536" y="371"/>
      <point x="578" y="350"/>
      <point x="578" y="293" type="curve"/>
      <point x="578" y="218"/>
      <point x="513" y="113"/>
      <point x="436" y="85" type="curve"/>
      <point x="433" y="47" type="line"/>
      <point x="506" y="90"/>
      <point x="568" y="0"/>
    </contour>
    <component base="q"/>
    <contour>
      <point x="193" y="0" type="move" name="bottom_1"/>
    </contour>
    <contour>
      <point x="579" y="0" type="move" name="bottom_2"/>
    </contour>
    <contour>
      <point x="386" y="0" type="move" name="caret_1"/>
    </contour>
    <contour>
      <point x="193" y="430" type="move" name="top_1"/>
    </contour>
    <contour>
      <point x="579" y="430" type="move" name="top_2"/>
    </contour>
  </outline>
</glyph>
